<svg xmlns="http://www.w3.org/2000/svg" width="192" height="192">
  <g fill="none">
    <path d="M0 0h192v192H0z"/>
    <path d="M36.227 122.934L53.655 11.388a4 4 0 0 1 7.477-1.275l18.74 34.96zm65.373 59.553a11.989 11.989 0 0 1-11.696-.02L32 150 136.636 45.175a3.994 3.994 0 0 1 6.771 2.164l8.292 51.302A46.308 46.308 0 0 0 144 98c-25.405 0-46 20.595-46 46 0 12.856 5.274 24.48 13.775 32.827zM33.584 139.92L92.461 34.888a3.999 3.999 0 0 1 7.081 0l13.406 25.525zM104 144c0-22.091 17.909-40 40-40s40 17.909 40 40-17.909 40-40 40-40-17.909-40-40zm27.6-7h1.4c1.2-4.4 5.2-7.6 10-7.6 5.8 0 10.4 4.6 10.4 10.4v1h2.6c3 0 5.2 2.2 5.6 5l3.8 1.6c0-.4.2-.6.2-1 0-5-3.8-9-8.8-9.4-1.4-6.2-7-11-14-11-5.4 0-10 3.2-12.4 7.6-5.6.6-10 5.4-10 11.2 0 6.2 5 11.2 11.2 11.2h8.4v-3.8h-8.4c-4.2 0-7.6-3.4-7.6-7.6 0-4.2 3.4-7.6 7.6-7.6zm12.4 27l24-9.898L144 144v7.32l18 2.68-18 2.66z" fill="#fff"/>
  </g>
</svg>
