<svg xmlns="http://www.w3.org/2000/svg" width="504.533" height="464">
  <g fill="none">
    <path d="M0 0h504.533v464H0z"/>
    <path d="M156.267 192c0-53.02 42.98-96 96-96 53.019 0 96 42.98 96 96s-42.981 96-96 96c-53.02 0-96-42.98-96-96zm67.066-16.333h3.267c2.8-10.267 12.133-17.734 23.333-17.734 13.534 0 24.267 10.734 24.267 24.267v2.333h6.067c7 0 12.133 5.134 13.066 11.667l8.867 3.733c0-.933.467-1.4.467-2.333 0-11.667-8.867-21-20.534-21.933C278.867 161.2 265.8 150 249.467 150c-12.6 0-23.334 7.467-28.934 17.733-13.066 1.4-23.333 12.6-23.333 26.134 0 14.466 11.667 26.133 26.133 26.133h19.6v-8.867h-19.6c-9.8 0-17.733-7.933-17.733-17.733s7.933-17.733 17.733-17.733zm28.934 63l56-23.096-56-23.571v17.08l42 6.253-42 6.207zM111.87 352.683c-4.493 0-8.262-1.522-11.307-4.566-3.042-3.043-4.563-6.84-4.563-11.39 0-4.551 1.521-8.35 4.563-11.394 3.045-3.044 6.814-4.566 11.307-4.566 4.609 0 8.35 1.664 11.223 4.993l-2.733 2.647c-2.076-2.59-4.906-3.884-8.49-3.884-3.327 0-6.136 1.124-8.427 3.37-2.289 2.247-3.433 5.191-3.433 8.834 0 3.64 1.144 6.583 3.433 8.83 2.291 2.246 5.1 3.37 8.427 3.37 3.669 0 6.798-1.48 9.387-4.437l2.73 2.73c-1.394 1.68-3.143 3.01-5.247 3.99-2.104.982-4.394 1.473-6.87 1.473zm19.117-31.233V352h-3.927v-30.55zm6.186 12.14c2.018-2.12 4.591-3.18 7.72-3.18 3.13 0 5.704 1.06 7.724 3.18 2.02 2.118 3.03 4.77 3.03 7.957 0 3.186-1.01 5.839-3.03 7.956-2.02 2.12-4.595 3.18-7.724 3.18-3.129 0-5.702-1.06-7.72-3.18-2.02-2.117-3.03-4.77-3.03-7.956 0-3.187 1.01-5.84 3.03-7.957zm2.92 13.44c1.351 1.38 2.951 2.07 4.8 2.07 1.85 0 3.45-.69 4.8-2.07 1.351-1.38 2.027-3.208 2.027-5.483 0-2.276-.676-4.104-2.027-5.484-1.35-1.38-2.95-2.07-4.8-2.07-1.849 0-3.449.69-4.8 2.07-1.35 1.38-2.026 3.208-2.026 5.484 0 2.275.675 4.103 2.026 5.483zm37.057-15.937V352h-3.753v-2.9h-.17c-.598.996-1.51 1.841-2.734 2.537a7.707 7.707 0 0 1-3.88 1.046c-2.617 0-4.602-.796-5.953-2.39-1.351-1.593-2.027-3.726-2.027-6.4v-12.8h3.927v12.16c0 3.898 1.72 5.847 5.16 5.847 1.622 0 2.946-.654 3.97-1.963 1.024-1.31 1.537-2.817 1.537-4.524v-11.52zm13.1 21.59c-2.702 0-5.034-1.066-6.997-3.2-1.964-2.133-2.946-4.779-2.946-7.936 0-3.158.982-5.804 2.946-7.937 1.963-2.133 4.295-3.2 6.997-3.2 1.593 0 3.022.341 4.287 1.023 1.266.685 2.212 1.538 2.836 2.56h.174l-.174-2.9v-9.643h3.927V352h-3.753v-2.9h-.174c-.624 1.022-1.57 1.876-2.836 2.56-1.265.682-2.694 1.023-4.287 1.023zm.64-3.583c1.849 0 3.42-.683 4.713-2.05 1.296-1.364 1.944-3.199 1.944-5.503 0-2.305-.648-4.14-1.944-5.504-1.293-1.366-2.864-2.05-4.713-2.05-1.82 0-3.384.69-4.693 2.07-1.31 1.38-1.964 3.208-1.964 5.484 0 2.275.655 4.103 1.964 5.483s2.873 2.07 4.693 2.07zm29.183 2.9h-3.926v-30.55h3.926l10.624 18.603h.17l10.626-18.603h3.924V352h-3.924v-18.133l.17-5.12h-.17l-9.56 16.766h-2.303l-9.557-16.766h-.17l.17 5.12zm39.85.683c-3.157 0-5.724-1.052-7.7-3.156-1.977-2.107-2.966-4.767-2.966-7.98 0-3.045.96-5.661 2.88-7.85 1.92-2.191 4.373-3.287 7.36-3.287 3.1 0 5.582 1.01 7.446 3.03 1.863 2.02 2.794 4.722 2.794 8.107l-.044.726h-16.51c.114 2.105.817 3.768 2.11 4.99 1.296 1.225 2.811 1.837 4.547 1.837 2.816 0 4.721-1.196 5.717-3.587l3.496 1.454c-.682 1.62-1.805 2.977-3.37 4.073-1.564 1.096-3.484 1.643-5.76 1.643zm-6.483-13.653h12.117c-.087-1.196-.635-2.333-1.644-3.413-1.009-1.083-2.509-1.624-4.5-1.624-1.45 0-2.71.456-3.776 1.367-1.067.911-1.8 2.134-2.197 3.67zm27.22 13.653c-2.333 0-4.26-.569-5.78-1.706-1.522-1.138-2.639-2.56-3.35-4.267l3.497-1.45c1.11 2.616 3.003 3.923 5.676 3.923 1.223 0 2.225-.27 3.007-.81s1.173-1.25 1.173-2.133c0-1.364-.952-2.289-2.856-2.773l-4.227-1.024c-1.336-.342-2.601-.99-3.797-1.943-1.193-.951-1.79-2.238-1.79-3.86 0-1.849.818-3.349 2.454-4.5 1.635-1.153 3.576-1.73 5.823-1.73 1.849 0 3.499.42 4.95 1.26 1.449.838 2.487 2.039 3.113 3.603l-3.413 1.41c-.769-1.849-2.362-2.773-4.78-2.773-1.164 0-2.146.241-2.943.723-.796.485-1.194 1.14-1.194 1.964 0 1.195.925 2.006 2.774 2.433l4.136.98c1.965.456 3.416 1.238 4.354 2.347.937 1.109 1.406 2.36 1.406 3.756 0 1.876-.767 3.44-2.303 4.694-1.536 1.25-3.512 1.876-5.93 1.876zm18.987 0c-2.334 0-4.26-.569-5.78-1.706-1.523-1.138-2.64-2.56-3.35-4.267l3.496-1.45c1.111 2.616 3.004 3.923 5.677 3.923 1.222 0 2.224-.27 3.007-.81.782-.54 1.173-1.25 1.173-2.133 0-1.364-.952-2.289-2.857-2.773l-4.226-1.024c-1.336-.342-2.601-.99-3.797-1.943-1.193-.951-1.79-2.238-1.79-3.86 0-1.849.818-3.349 2.453-4.5 1.636-1.153 3.577-1.73 5.824-1.73 1.849 0 3.499.42 4.95 1.26 1.449.838 2.486 2.039 3.113 3.603l-3.413 1.41c-.77-1.849-2.363-2.773-4.78-2.773-1.165 0-2.146.241-2.944.723-.795.485-1.193 1.14-1.193 1.964 0 1.195.924 2.006 2.773 2.433l4.137.98c1.964.456 3.416 1.238 4.353 2.347.938 1.109 1.407 2.36 1.407 3.756 0 1.876-.768 3.44-2.303 4.694-1.536 1.25-3.513 1.876-5.93 1.876zm18.473 0c-2.218 0-4.073-.64-5.567-1.92-1.493-1.28-2.24-2.972-2.24-5.076 0-2.276.883-4.061 2.647-5.357 1.762-1.293 3.938-1.94 6.527-1.94 2.304 0 4.195.427 5.673 1.28v-.597c0-1.537-.526-2.769-1.577-3.693-1.053-.924-2.347-1.387-3.883-1.387-1.138 0-2.169.271-3.093.814-.925.54-1.558 1.279-1.9 2.216l-3.584-1.536c.485-1.251 1.438-2.41 2.86-3.477 1.423-1.067 3.3-1.6 5.63-1.6 2.676 0 4.895.782 6.657 2.347 1.764 1.564 2.647 3.769 2.647 6.613V352h-3.757v-2.9h-.17c-1.564 2.389-3.854 3.583-6.87 3.583zm.64-3.583c1.622 0 3.094-.604 4.417-1.813 1.322-1.21 1.983-2.64 1.983-4.29-1.109-.91-2.772-1.364-4.99-1.364-1.907 0-3.343.413-4.31 1.237-.967.824-1.45 1.791-1.45 2.9 0 1.024.441 1.836 1.323 2.433.88.598 1.89.897 3.027.897zm23.467 12.8c-2.474 0-4.493-.619-6.057-1.857-1.564-1.237-2.688-2.653-3.37-4.246l3.583-1.494c.398 1.138 1.13 2.091 2.197 2.86 1.067.767 2.282 1.15 3.647 1.15 2.162 0 3.862-.646 5.1-1.94 1.237-1.293 1.856-3.05 1.856-5.27V349.1h-.17c-.684 1.022-1.652 1.876-2.903 2.56-1.251.682-2.659 1.023-4.223 1.023-2.703 0-5.035-1.066-6.997-3.2-1.962-2.133-2.943-4.779-2.943-7.936 0-3.158.98-5.804 2.943-7.937 1.962-2.133 4.294-3.2 6.997-3.2 1.564 0 2.972.341 4.223 1.023 1.251.685 2.219 1.538 2.903 2.56h.17v-2.9h3.754v19.84c0 3.585-1.038 6.308-3.114 8.17-2.077 1.865-4.61 2.797-7.596 2.797zm.3-12.8c1.849 0 3.42-.683 4.713-2.05 1.296-1.364 1.943-3.199 1.943-5.503 0-2.305-.647-4.14-1.943-5.504-1.293-1.366-2.864-2.05-4.713-2.05-1.82 0-3.385.69-4.694 2.07-1.309 1.38-1.963 3.208-1.963 5.484 0 2.275.654 4.103 1.963 5.483 1.31 1.38 2.874 2.07 4.694 2.07zm18.816-23.253c-.54.54-1.194.81-1.963.81-.769 0-1.423-.27-1.963-.81a2.68 2.68 0 0 1-.81-1.964c0-.769.27-1.423.81-1.963s1.194-.81 1.963-.81c.769 0 1.423.27 1.963.81s.81 1.194.81 1.963a2.68 2.68 0 0 1-.81 1.964zm0 5.246V352h-3.926v-20.907zm4.694 0h3.753v2.9h.17c.569-.995 1.466-1.84 2.69-2.536a7.786 7.786 0 0 1 3.923-1.047c2.59 0 4.567.797 5.934 2.39 1.364 1.593 2.046 3.727 2.046 6.4V352h-3.926v-12.203c0-3.87-1.72-5.804-5.16-5.804-1.623 0-2.946.648-3.97 1.944-1.025 1.293-1.537 2.793-1.537 4.5V352h-3.923zm31.786 30.807c-2.475 0-4.495-.619-6.06-1.857-1.564-1.237-2.687-2.653-3.37-4.246l3.584-1.494c.397 1.138 1.13 2.091 2.196 2.86 1.067.767 2.284 1.15 3.65 1.15 2.163 0 3.861-.646 5.097-1.94 1.238-1.293 1.857-3.05 1.857-5.27V349.1h-.17c-.683 1.022-1.65 1.876-2.9 2.56-1.254.682-2.663 1.023-4.227 1.023-2.702 0-5.034-1.066-6.997-3.2-1.962-2.133-2.943-4.779-2.943-7.936 0-3.158.981-5.804 2.943-7.937 1.963-2.133 4.295-3.2 6.997-3.2 1.564 0 2.973.341 4.227 1.023 1.25.685 2.217 1.538 2.9 2.56h.17v-2.9h3.756v19.84c0 3.585-1.039 6.308-3.116 8.17-2.076 1.865-4.607 2.797-7.594 2.797zm.297-12.8c1.849 0 3.421-.683 4.717-2.05 1.293-1.364 1.94-3.199 1.94-5.503 0-2.305-.647-4.14-1.94-5.504-1.296-1.366-2.868-2.05-4.717-2.05-1.82 0-3.384.69-4.693 2.07-1.307 1.38-1.96 3.208-1.96 5.484 0 2.275.653 4.103 1.96 5.483 1.309 1.38 2.873 2.07 4.693 2.07z" fill="#fff"/>
  </g>
</svg>
