<svg xmlns="http://www.w3.org/2000/svg" width="192" height="192">
  <g fill="none">
    <path d="M0 0h192v192H0z"/>
    <path d="M16 98.4c0 16.8 13.6 30.4 30.4 30.4H80V144H46.4c-24.8 0-44.8-20-44.8-44.8 0-23.2 17.6-42.4 40-44.8C51.2 36.8 69.6 24 91.2 24c28 0 50.4 19.2 56 44 20 1.6 35.2 17.6 35.2 37.6 0 1.6-.8 2.4-.8 4l-15.2-6.4c-1.6-11.2-10.4-20-22.4-20h-10.4v-4c0-23.2-18.4-41.6-41.6-41.6-19.2 0-35.2 12.8-40 30.4h-5.6C29.6 68 16 81.6 16 98.4zm80 48.24L168 136l-72-10.72V96l96 40.408L96 176z" fill="#fff" fill-rule="evenodd"/>
  </g>
</svg>
