<svg xmlns="http://www.w3.org/2000/svg" width="383.23" height="464">
  <g fill="none">
    <path d="M0 0h383.23v464H0z"/>
    <circle cx="191.615" cy="192" r="96" fill="#ffca28"/>
    <path d="M197.019 145.973l10.91 11.074c3.669 3.724 2.18 5.114-.186 7.518l-10.659 10.817c-2.366 2.403-2.006 5.334-.014 7.355l7.243 7.35c1.997 2.025 4.877 2.389 7.243-.014l10.658-10.818c2.366-2.403 5.414-2.212 7.42-.186l10.822 10.99c1.998 2.03 2.194 5.128-.177 7.532l-34.967 35.49a21.7 21.7 0 0 1-31.015 0l-31.547-32.023c-2.006-2.03-2.179-5.147.187-7.546l10.58-10.738c2.365-2.403 2.86-4.62.863-6.65l-7.985-8.106c-2.002-2.025-2.025-5.283.34-7.686l10.277-10.43c2.366-2.403 5.469-2.268 7.466-.243l7.99 8.106c1.997 2.03 4.106 1.606 6.472-.793l10.66-10.822c2.366-2.403 5.423-2.207 7.42-.177z" fill="#fff" fill-rule="evenodd"/>
    <path d="M113.833 321.45v3.757h-13.91v9.683h12.544v3.67H99.923v9.687h13.91V352H96v-30.55zm13.91 19.927L135.21 352h-4.61l-5.16-7.723-5.08 7.723h-4.607l7.38-10.623-7.21-10.284h4.437l5.163 7.38 4.907-7.38h4.61zm19.244 10.963c-2.191 0-3.863-.582-5.014-1.747-1.153-1.166-1.73-2.816-1.73-4.95v-10.966h-3.67v-3.584h3.67v-6.4h3.927v6.4h5.12v3.584h-5.12v10.666c0 2.276.939 3.414 2.817 3.414.71 0 1.307-.114 1.79-.34l1.366 3.37c-.853.369-1.905.553-3.156.553zm14.89.343c-3.158 0-5.726-1.052-7.704-3.156-1.975-2.107-2.963-4.767-2.963-7.98 0-3.045.96-5.661 2.88-7.85 1.92-2.191 4.373-3.287 7.36-3.287 3.1 0 5.581 1.01 7.443 3.03 1.865 2.02 2.797 4.722 2.797 8.107l-.043.726h-16.514c.116 2.105.82 3.768 2.114 4.99 1.293 1.225 2.807 1.837 4.543 1.837 2.816 0 4.721-1.196 5.717-3.587l3.5 1.454c-.683 1.62-1.806 2.977-3.37 4.073-1.565 1.096-3.485 1.643-5.76 1.643zm-6.487-13.653h12.117c-.085-1.196-.631-2.333-1.64-3.413-1.011-1.083-2.513-1.624-4.504-1.624-1.45 0-2.71.456-3.776 1.367-1.067.911-1.8 2.134-2.197 3.67zm19.457-7.937h3.753v2.9h.173c.57-.995 1.465-1.84 2.687-2.536a7.792 7.792 0 0 1 3.927-1.047c2.586 0 4.563.797 5.93 2.39 1.364 1.593 2.046 3.727 2.046 6.4V352h-3.923v-12.203c0-3.87-1.721-5.804-5.163-5.804-1.623 0-2.946.648-3.97 1.944-1.023 1.293-1.534 2.793-1.534 4.5V352h-3.926zm30.463 21.59c-2.331 0-4.258-.569-5.78-1.706-1.522-1.138-2.639-2.56-3.35-4.267l3.5-1.45c1.109 2.616 3 3.923 5.673 3.923 1.223 0 2.225-.27 3.007-.81s1.173-1.25 1.173-2.133c0-1.364-.952-2.289-2.856-2.773l-4.224-1.024c-1.337-.342-2.604-.99-3.8-1.943-1.193-.951-1.79-2.238-1.79-3.86 0-1.849.818-3.349 2.454-4.5 1.635-1.153 3.576-1.73 5.823-1.73 1.849 0 3.499.42 4.95 1.26 1.451.838 2.489 2.039 3.113 3.603l-3.413 1.41c-.767-1.849-2.359-2.773-4.777-2.773-1.166 0-2.149.241-2.946.723-.796.485-1.194 1.14-1.194 1.964 0 1.195.925 2.006 2.774 2.433l4.14.98c1.962.456 3.412 1.238 4.35 2.347.94 1.109 1.41 2.36 1.41 3.756 0 1.876-.77 3.44-2.307 4.694-1.536 1.25-3.512 1.876-5.93 1.876zm15.277-26.836a2.68 2.68 0 0 1-1.964.81c-.769 0-1.423-.27-1.963-.81a2.68 2.68 0 0 1-.81-1.964c0-.769.27-1.423.81-1.963s1.194-.81 1.963-.81c.767 0 1.421.27 1.964.81.54.54.81 1.194.81 1.963a2.68 2.68 0 0 1-.81 1.964zm0 5.246V352h-3.927v-20.907zm6.313 2.497c2.02-2.12 4.594-3.18 7.723-3.18 3.13 0 5.704 1.06 7.724 3.18 2.017 2.118 3.026 4.77 3.026 7.957 0 3.186-1.009 5.839-3.026 7.956-2.02 2.12-4.595 3.18-7.724 3.18-3.129 0-5.703-1.06-7.723-3.18-2.02-2.117-3.03-4.77-3.03-7.956 0-3.187 1.01-5.84 3.03-7.957zm2.923 13.44c1.351 1.38 2.951 2.07 4.8 2.07 1.85 0 3.45-.69 4.8-2.07 1.351-1.38 2.027-3.208 2.027-5.483 0-2.276-.676-4.104-2.027-5.484-1.35-1.38-2.95-2.07-4.8-2.07-1.849 0-3.449.69-4.8 2.07-1.35 1.38-2.026 3.208-2.026 5.484 0 2.275.675 4.103 2.026 5.483zm18.71-15.937h3.754v2.9h.17c.569-.995 1.465-1.84 2.69-2.536a7.786 7.786 0 0 1 3.923-1.047c2.589 0 4.566.797 5.93 2.39 1.367 1.593 2.05 3.727 2.05 6.4V352h-3.927v-12.203c0-3.87-1.72-5.804-5.163-5.804-1.62 0-2.942.648-3.967 1.944-1.024 1.293-1.536 2.793-1.536 4.5V352h-3.924zm30.464 21.59c-2.334 0-4.261-.569-5.784-1.706-1.52-1.138-2.635-2.56-3.346-4.267l3.496-1.45c1.11 2.616 3.001 3.923 5.677 3.923 1.222 0 2.224-.27 3.007-.81.782-.54 1.173-1.25 1.173-2.133 0-1.364-.953-2.289-2.86-2.773l-4.223-1.024c-1.336-.342-2.601-.99-3.797-1.943-1.196-.951-1.793-2.238-1.793-3.86 0-1.849.817-3.349 2.453-4.5 1.636-1.153 3.578-1.73 5.827-1.73 1.849 0 3.497.42 4.946 1.26 1.451.838 2.49 2.039 3.117 3.603l-3.413 1.41c-.77-1.849-2.363-2.773-4.78-2.773-1.167 0-2.148.241-2.944.723-.795.485-1.193 1.14-1.193 1.964 0 1.195.924 2.006 2.773 2.433l4.137.98c1.962.456 3.413 1.238 4.353 2.347.938 1.109 1.407 2.36 1.407 3.756 0 1.876-.768 3.44-2.303 4.694-1.536 1.25-3.513 1.876-5.93 1.876z" fill-opacity=".54" fill="#000"/>
  </g>
</svg>
