<svg xmlns="http://www.w3.org/2000/svg" width="192" height="192">
  <g fill="none">
    <path d="M0 0h192v192H0z"/>
    <path d="M105.264 17.096l18.704 18.984c6.288 6.384 3.736 8.768-.32 12.888l-18.272 18.544c-4.056 4.12-3.44 9.144-.024 12.608l12.416 12.6c3.424 3.472 8.36 4.096 12.416-.024l18.272-18.544c4.056-4.12 9.28-3.792 12.72-.32l18.552 18.84c3.424 3.48 3.76 8.792-.304 12.912l-59.944 60.84a37.2 37.2 0 0 1-53.168 0l-54.08-54.896c-3.44-3.48-3.736-8.824.32-12.936l18.136-18.408c4.056-4.12 4.904-7.92 1.48-11.4L18.48 54.888c-3.432-3.472-3.472-9.056.584-13.176l17.616-17.88c4.056-4.12 9.376-3.888 12.8-.416l13.696 13.896c3.424 3.48 7.04 2.752 11.096-1.36L92.544 17.4c4.056-4.12 9.296-3.784 12.72-.304z" fill="#fff" fill-rule="evenodd"/>
  </g>
</svg>
