<svg xmlns="http://www.w3.org/2000/svg" width="192" height="192">
  <g fill="none">
    <path d="M0 0h192v192H0z"/>
    <path d="M36.227 122.934L53.655 11.388a4 4 0 0 1 7.477-1.275l18.74 34.96zm65.373 59.553a11.989 11.989 0 0 1-11.696-.02L32 150 136.636 45.175a3.994 3.994 0 0 1 6.771 2.164l8.292 51.302A46.308 46.308 0 0 0 144 98c-25.405 0-46 20.595-46 46 0 12.856 5.274 24.48 13.775 32.827zM33.584 139.92L92.461 34.888a3.999 3.999 0 0 1 7.081 0l13.406 25.525zM104 144c0-22.091 17.909-40 40-40s40 17.909 40 40-17.909 40-40 40-40-17.909-40-40zm39.136-19.65l-4.568 4.638c-1.014 1.028-1.918 1.21-2.774.34l-3.424-3.474c-.856-.868-2.186-.926-3.2.104l-4.404 4.47c-1.014 1.03-1.004 2.426-.146 3.294l3.422 3.474c.856.87.644 1.82-.37 2.85l-4.534 4.602c-1.014 1.028-.94 2.364-.08 3.234l13.52 13.724a9.3 9.3 0 0 0 13.292 0l14.986-15.21c1.016-1.03.932-2.358.076-3.228l-4.638-4.71c-.86-.868-2.166-.95-3.18.08l-4.568 4.636c-1.014 1.03-2.248.874-3.104.006l-3.104-3.15c-.854-.866-1.008-2.122.006-3.152l4.568-4.636c1.014-1.03 1.652-1.626.08-3.222l-4.676-4.746c-.856-.87-2.166-.954-3.18.076z" fill="#fff"/>
  </g>
</svg>
