<svg xmlns="http://www.w3.org/2000/svg" width="192" height="192">
  <g fill="none">
    <path d="M0 0h192v192H0z"/>
    <path d="M36.227 122.934L53.655 11.388a4 4 0 0 1 7.477-1.275l18.74 34.96zm65.373 59.553a11.989 11.989 0 0 1-11.696-.02L32 150 136.636 45.175a3.994 3.994 0 0 1 6.771 2.164l8.292 51.302A46.308 46.308 0 0 0 144 98c-25.405 0-46 20.595-46 46 0 12.856 5.274 24.48 13.775 32.827zM33.584 139.92L92.461 34.888a3.999 3.999 0 0 1 7.081 0l13.406 25.525zM104 144c0-22.091 17.909-40 40-40s40 17.909 40 40-17.909 40-40 40-40-17.909-40-40zm28.544 11.456a6.202 6.202 0 0 1 0-8.768l5.66-5.66-2.69-2.684L129.86 144a9.996 9.996 0 0 0 0 14.14 9.996 9.996 0 0 0 14.14 0l5.656-5.654-2.686-2.688-5.66 5.656a6.2 6.2 0 0 1-8.766 0zm7.214-4.384l11.312-11.314-2.83-2.832-11.312 11.314zM144 129.86l-5.656 5.652 2.686 2.688 5.66-5.656a6.2 6.2 0 0 1 8.766 8.768l-5.66 5.66 2.69 2.684L158.14 144a9.996 9.996 0 0 0 0-14.14 9.996 9.996 0 0 0-14.14 0z" fill="#fff"/>
  </g>
</svg>
