<svg xmlns="http://www.w3.org/2000/svg" width="192" height="192">
  <g fill="none">
    <path d="M0 0h192v192H0z"/>
    <path d="M50.176 141.824c-9.68-9.687-9.68-25.385 0-35.072l22.64-22.64-10.76-10.736L39.44 96a39.984 39.984 0 0 0 0 56.56 39.984 39.984 0 0 0 56.56 0l22.624-22.616-10.744-10.752-22.64 22.624c-9.684 9.68-25.38 9.68-35.064 0zm28.856-17.536l45.248-45.256-11.32-11.328-45.248 45.256zM96 39.44L73.376 62.048 84.12 72.8l22.64-22.624c9.729-9.42 25.215-9.294 34.79.282 9.574 9.577 9.696 25.063.274 34.79l-22.64 22.64 10.76 10.736L152.56 96a39.984 39.984 0 0 0 0-56.56 39.984 39.984 0 0 0-56.56 0z" fill="#fff" fill-rule="evenodd"/>
  </g>
</svg>
