<svg xmlns="http://www.w3.org/2000/svg" width="451.37" height="464">
  <g fill="none">
    <path d="M0 0h451.37v464H0z"/>
    <circle cx="225.685" cy="192" r="96" fill="#ff8a65"/>
    <path d="M198.954 218.73c-5.646-5.65-5.646-14.807 0-20.458l13.207-13.207-6.277-6.262L192.692 192a23.324 23.324 0 0 0 0 32.993 23.324 23.324 0 0 0 32.993 0l13.197-13.192-6.267-6.272-13.207 13.197c-5.649 5.646-14.805 5.646-20.454 0zm16.833-10.229l26.395-26.399-6.604-6.608-26.394 26.4zm9.898-49.494l-13.197 13.188 6.267 6.272 13.207-13.198c5.675-5.495 14.708-5.421 20.294.165 5.585 5.586 5.656 14.62.16 20.294l-13.207 13.207 6.277 6.262L258.678 192a23.324 23.324 0 0 0 0-32.993 23.324 23.324 0 0 0-32.993 0z" fill="#fff" fill-rule="evenodd"/>
    <path d="M105.343 352H96v-30.55h9.343c4.694 0 8.448 1.416 11.264 4.247 2.815 2.829 4.223 6.505 4.223 11.03 0 4.522-1.408 8.197-4.223 11.026-2.816 2.831-6.57 4.247-11.264 4.247zm-5.42-26.793v23.04h5.42c3.527 0 6.321-1.01 8.384-3.03 2.062-2.02 3.093-4.85 3.093-8.49 0-3.614-1.031-6.437-3.093-8.47-2.063-2.034-4.857-3.05-8.384-3.05zm43.35 5.886l-13.1 30.124h-4.053l4.867-10.54-8.62-19.584h4.266l6.23 15.02h.084l6.06-15.02zm2.56 0h3.754v2.9h.173c.569-.995 1.464-1.84 2.687-2.536a7.792 7.792 0 0 1 3.926-1.047c2.587 0 4.564.797 5.93 2.39 1.365 1.593 2.047 3.727 2.047 6.4V352h-3.923v-12.203c0-3.87-1.721-5.804-5.164-5.804-1.622 0-2.945.648-3.97 1.944-1.022 1.293-1.533 2.793-1.533 4.5V352h-3.927zm29.527 21.59c-2.22 0-4.077-.64-5.57-1.92-1.493-1.28-2.24-2.972-2.24-5.076 0-2.276.882-4.061 2.647-5.357 1.762-1.293 3.937-1.94 6.526-1.94 2.305 0 4.197.427 5.677 1.28v-.597c0-1.537-.527-2.769-1.58-3.693-1.053-.924-2.348-1.387-3.883-1.387-1.138 0-2.17.271-3.094.814-.924.54-1.556 1.279-1.896 2.216l-3.587-1.536c.484-1.251 1.438-2.41 2.86-3.477 1.422-1.067 3.3-1.6 5.633-1.6 2.674 0 4.891.782 6.654 2.347 1.764 1.564 2.646 3.769 2.646 6.613V352H182.4v-2.9h-.173c-1.565 2.389-3.854 3.583-6.867 3.583zm.64-3.583c1.62 0 3.091-.604 4.413-1.813 1.325-1.21 1.987-2.64 1.987-4.29-1.111-.91-2.776-1.364-4.993-1.364-1.907 0-3.344.413-4.31 1.237-.967.824-1.45 1.791-1.45 2.9 0 1.024.44 1.836 1.323 2.433.882.598 1.892.897 3.03.897zm18.09 2.9h-3.927v-20.907h3.757v2.9h.17c.598-.995 1.514-1.84 2.75-2.536 1.238-.698 2.469-1.047 3.693-1.047 3.243 0 5.447 1.337 6.614 4.01 1.706-2.673 4.137-4.01 7.293-4.01 2.476 0 4.339.79 5.59 2.37 1.251 1.578 1.877 3.718 1.877 6.42V352h-3.924v-12.203c0-2.105-.384-3.598-1.153-4.48-.767-.883-1.932-1.324-3.497-1.324-1.537 0-2.81.655-3.82 1.964-1.009 1.309-1.513 2.802-1.513 4.48V352h-3.927v-12.203c0-2.105-.384-3.598-1.153-4.48-.767-.883-1.932-1.324-3.497-1.324-1.535 0-2.809.655-3.82 1.964-1.009 1.309-1.513 2.802-1.513 4.48zm36.267-26.153c-.54.54-1.195.81-1.964.81-.769 0-1.423-.27-1.963-.81a2.68 2.68 0 0 1-.81-1.964c0-.769.27-1.423.81-1.963s1.194-.81 1.963-.81c.77 0 1.424.27 1.964.81s.81 1.194.81 1.963a2.68 2.68 0 0 1-.81 1.964zm0 5.246V352h-3.927v-20.907zm14.036 21.59c-3.129 0-5.703-1.06-7.723-3.18-2.02-2.117-3.03-4.77-3.03-7.956 0-3.187 1.01-5.84 3.03-7.957 2.02-2.12 4.594-3.18 7.723-3.18 2.334 0 4.268.569 5.804 1.707 1.535 1.137 2.659 2.574 3.37 4.31l-3.584 1.493c-1.082-2.618-3.03-3.927-5.846-3.927-1.736 0-3.265.711-4.587 2.134-1.322 1.422-1.983 3.229-1.983 5.42 0 2.19.66 3.997 1.983 5.42 1.322 1.422 2.851 2.133 4.587 2.133 2.93 0 4.95-1.309 6.06-3.927l3.496 1.494c-.71 1.706-1.855 3.135-3.433 4.286-1.578 1.154-3.533 1.73-5.867 1.73zM284.33 352h-17.153v-30.55h3.926v26.797h13.227zm7.68-26.153c-.54.54-1.194.81-1.963.81-.77 0-1.424-.27-1.964-.81a2.68 2.68 0 0 1-.81-1.964c0-.769.27-1.423.81-1.963s1.195-.81 1.964-.81c.769 0 1.423.27 1.963.81s.81 1.194.81 1.963a2.68 2.68 0 0 1-.81 1.964zm0 5.246V352h-3.927v-20.907zm4.693 0h3.754v2.9h.17c.569-.995 1.465-1.84 2.69-2.536a7.786 7.786 0 0 1 3.923-1.047c2.589 0 4.567.797 5.933 2.39 1.365 1.593 2.047 3.727 2.047 6.4V352h-3.927v-12.203c0-3.87-1.72-5.804-5.16-5.804-1.622 0-2.945.648-3.97 1.944-1.024 1.293-1.536 2.793-1.536 4.5V352h-3.924zm22.697-9.643h3.927v18.817l9.046-9.174h5.034v.17l-8.15 8.15 8.533 12.417v.17h-4.737l-6.57-9.857-3.156 3.157v6.7H319.4zm27.733 31.233c-2.33 0-4.257-.569-5.78-1.706-1.522-1.138-2.639-2.56-3.35-4.267l3.5-1.45c1.11 2.616 3 3.923 5.674 3.923 1.224 0 2.227-.27 3.01-.81.782-.54 1.173-1.25 1.173-2.133 0-1.364-.953-2.289-2.86-2.773l-4.223-1.024c-1.338-.342-2.604-.99-3.797-1.943-1.196-.951-1.793-2.238-1.793-3.86 0-1.849.817-3.349 2.453-4.5 1.636-1.153 3.577-1.73 5.823-1.73 1.85 0 3.5.42 4.95 1.26 1.451.838 2.49 2.039 3.114 3.603l-3.414 1.41c-.766-1.849-2.359-2.773-4.776-2.773-1.167 0-2.148.241-2.944.723-.797.485-1.196 1.14-1.196 1.964 0 1.195.924 2.006 2.773 2.433l4.14.98c1.962.456 3.412 1.238 4.35 2.347.94 1.109 1.41 2.36 1.41 3.756 0 1.876-.768 3.44-2.303 4.694-1.538 1.25-3.516 1.876-5.934 1.876z" fill="#fff"/>
  </g>
</svg>
