<svg xmlns="http://www.w3.org/2000/svg" width="192" height="192">
  <g fill="none">
    <path d="M0 0h192v192H0z"/>
    <circle cx="96" cy="96" r="96" fill="#ff8a65"/>
    <path d="M69.27 122.73c-5.647-5.65-5.647-14.807 0-20.458l13.206-13.207-6.277-6.262L63.007 96a23.324 23.324 0 0 0 0 32.993 23.324 23.324 0 0 0 32.993 0l13.197-13.192-6.267-6.272-13.207 13.197c-5.649 5.646-14.805 5.646-20.454 0zm16.832-10.229l26.395-26.399-6.604-6.608-26.394 26.4zM96 63.007L82.803 76.195l6.267 6.272 13.207-13.198c5.675-5.495 14.708-5.421 20.294.165 5.585 5.586 5.656 14.62.16 20.294l-13.207 13.207 6.277 6.262L128.993 96a23.324 23.324 0 0 0 0-32.993 23.324 23.324 0 0 0-32.993 0z" fill="#fff" fill-rule="evenodd"/>
  </g>
</svg>
