<svg xmlns="http://www.w3.org/2000/svg" width="192" height="192">
  <g fill="none">
    <path d="M0 0h192v192H0z"/>
    <path d="M96 16c44 0 80 36 80 80s-36 80-80 80-80-36-80-80 36-80 80-80zm42.4 128c12.8-12 21.6-28.8 21.6-48 0-35.2-28.8-64-64-64S32 60.8 32 96c0 19.2 8.8 36 21.6 48 11.2-9.6 25.6-16 42.4-16 16.8 0 31.2 6.4 42.4 16zM56 72c4.8 0 8 3.2 8 8s-3.2 8-8 8-8-3.2-8-8 3.2-8 8-8zm32-16c0 4.8-3.2 8-8 8s-8-3.2-8-8 3.2-8 8-8 8 3.2 8 8zm48 16c4.8 0 8 3.2 8 8s-3.2 8-8 8-8-3.2-8-8 3.2-8 8-8zm-30.744-20.304a8 8 0 0 1 14.528 6.144c-2.679 13.68-5.362 27.36-8.048 41.04a16 16 0 1 1-29.064-11.784z" fill-opacity=".54" fill="#000" fill-rule="evenodd"/>
  </g>
</svg>
