<svg xmlns="http://www.w3.org/2000/svg" width="635.263" height="464">
  <g fill="none">
    <path d="M0 0h635.263v464H0z"/>
    <circle cx="317.632" cy="192" r="96" fill="#ffa000"/>
    <path d="M317.632 145.333c25.666 0 46.666 21 46.666 46.667s-21 46.667-46.666 46.667c-25.667 0-46.667-21-46.667-46.667s21-46.667 46.667-46.667zM342.365 220c7.467-7 12.6-16.8 12.6-28 0-20.533-16.8-37.333-37.333-37.333-20.534 0-37.334 16.8-37.334 37.333 0 11.2 5.134 21 12.6 28 6.534-5.6 14.934-9.333 24.734-9.333 9.8 0 18.2 3.733 24.733 9.333zm-48.067-42c2.8 0 4.667 1.867 4.667 4.667s-1.867 4.666-4.667 4.666-4.666-1.866-4.666-4.666c0-2.8 1.866-4.667 4.666-4.667zm18.667-9.333c0 2.8-1.867 4.666-4.667 4.666s-4.666-1.866-4.666-4.666c0-2.8 1.866-4.667 4.666-4.667 2.8 0 4.667 1.867 4.667 4.667zm28 9.333c2.8 0 4.667 1.867 4.667 4.667s-1.867 4.666-4.667 4.666-4.667-1.866-4.667-4.666c0-2.8 1.867-4.667 4.667-4.667zm-17.934-11.844a4.667 4.667 0 0 1 8.475 3.584c-1.563 7.98-3.128 15.96-4.695 23.94a9.333 9.333 0 1 1-16.954-6.874z" fill="#fff" fill-rule="evenodd"/>
    <path d="M99.923 339.627V352H96v-30.55h10.41c2.589 0 4.829.861 6.72 2.583 1.891 1.72 2.837 3.89 2.837 6.507 0 2.616-.946 4.784-2.837 6.507-1.891 1.72-4.131 2.58-6.72 2.58zm0-14.42v10.666h6.57c1.651 0 2.975-.555 3.97-1.666.996-1.11 1.494-2.331 1.494-3.667 0-1.338-.498-2.561-1.494-3.67-.995-1.109-2.319-1.663-3.97-1.663zm27.437 27.476c-3.158 0-5.726-1.052-7.703-3.156-1.976-2.107-2.964-4.767-2.964-7.98 0-3.045.96-5.661 2.88-7.85 1.92-2.191 4.374-3.287 7.36-3.287 3.1 0 5.581 1.01 7.444 3.03 1.864 2.02 2.796 4.722 2.796 8.107l-.043.726h-16.513c.113 2.105.817 3.768 2.113 4.99 1.293 1.225 2.808 1.837 4.543 1.837 2.816 0 4.721-1.196 5.717-3.587l3.5 1.454c-.682 1.62-1.806 2.977-3.37 4.073-1.564 1.096-3.484 1.643-5.76 1.643zm-6.487-13.653h12.117c-.084-1.196-.632-2.333-1.643-3.413-1.01-1.083-2.51-1.624-4.5-1.624-1.451 0-2.71.456-3.777 1.367-1.067.911-1.799 2.134-2.197 3.67zm46.08-17.75c1.251 0 2.304.184 3.157.553l-1.363 3.374c-.456-.23-1.054-.344-1.794-.344-1.024 0-1.863.306-2.516.917-.656.613-.984 1.502-.984 2.667v2.646h5.464v3.584h-5.464V352h-3.923v-17.323h-3.927v-3.584h3.927v-2.773c0-2.133.682-3.84 2.047-5.12 1.366-1.28 3.159-1.92 5.376-1.92zm-26.196 9.813h3.753v3.414h.17c.456-1.223 1.302-2.183 2.54-2.88 1.238-.698 2.596-1.047 4.073-1.047.427 0 .897.029 1.41.087v3.84a14.85 14.85 0 0 0-1.58-.087c-1.877 0-3.42.548-4.63 1.643-1.209 1.096-1.813 2.597-1.813 4.504V352h-3.923zm32.47 2.497c2.017-2.12 4.59-3.18 7.72-3.18 3.129 0 5.703 1.06 7.723 3.18 2.02 2.118 3.03 4.77 3.03 7.957 0 3.186-1.01 5.839-3.03 7.956-2.02 2.12-4.594 3.18-7.723 3.18-3.13 0-5.703-1.06-7.72-3.18-2.02-2.117-3.03-4.77-3.03-7.956 0-3.187 1.01-5.84 3.03-7.957zm2.92 13.44c1.35 1.38 2.95 2.07 4.8 2.07 1.849 0 3.449-.69 4.8-2.07 1.35-1.38 2.026-3.208 2.026-5.483 0-2.276-.675-4.104-2.026-5.484-1.351-1.38-2.951-2.07-4.8-2.07-1.85 0-3.45.69-4.8 2.07-1.351 1.38-2.027 3.208-2.027 5.484 0 2.275.676 4.103 2.027 5.483zm22.636-6.463V352h-3.926v-20.907h3.756v3.414h.17c.398-1.138 1.216-2.077 2.454-2.817 1.237-.74 2.439-1.11 3.603-1.11 1.167 0 2.149.171 2.947.513l-1.494 3.67c-.513-.2-1.21-.3-2.093-.3-1.422 0-2.68.563-3.773 1.687-1.096 1.122-1.644 2.594-1.644 4.417zM213.843 352h-3.923v-20.907h3.753v2.9h.17c.598-.995 1.516-1.84 2.754-2.536 1.237-.698 2.467-1.047 3.69-1.047 3.242 0 5.446 1.337 6.613 4.01 1.707-2.673 4.139-4.01 7.297-4.01 2.473 0 4.336.79 5.59 2.37 1.25 1.578 1.876 3.718 1.876 6.42V352h-3.926v-12.203c0-2.105-.384-3.598-1.15-4.48-.77-.883-1.936-1.324-3.5-1.324-1.536 0-2.81.655-3.82 1.964-1.01 1.309-1.514 2.802-1.514 4.48V352h-3.926v-12.203c0-2.105-.384-3.598-1.15-4.48-.77-.883-1.936-1.324-3.5-1.324-1.536 0-2.808.655-3.817 1.964-1.011 1.309-1.517 2.802-1.517 4.48zm38.827.683c-2.218 0-4.073-.64-5.567-1.92-1.493-1.28-2.24-2.972-2.24-5.076 0-2.276.881-4.061 2.644-5.357 1.764-1.293 3.94-1.94 6.53-1.94 2.304 0 4.195.427 5.673 1.28v-.597c0-1.537-.526-2.769-1.577-3.693-1.053-.924-2.347-1.387-3.883-1.387-1.138 0-2.169.271-3.093.814-.925.54-1.558 1.279-1.9 2.216l-3.584-1.536c.485-1.251 1.438-2.41 2.86-3.477 1.423-1.067 3.3-1.6 5.63-1.6 2.674 0 4.893.782 6.657 2.347 1.764 1.564 2.647 3.769 2.647 6.613V352h-3.757v-2.9h-.17c-1.564 2.389-3.854 3.583-6.87 3.583zm.64-3.583c1.622 0 3.094-.604 4.417-1.813 1.322-1.21 1.983-2.64 1.983-4.29-1.109-.91-2.772-1.364-4.99-1.364-1.907 0-3.343.413-4.31 1.237-.967.824-1.45 1.791-1.45 2.9 0 1.024.44 1.836 1.32 2.433.882.598 1.892.897 3.03.897zm14.167-18.007h3.753v2.9h.17c.569-.995 1.466-1.84 2.69-2.536a7.786 7.786 0 0 1 3.923-1.047c2.59 0 4.567.797 5.934 2.39 1.364 1.593 2.046 3.727 2.046 6.4V352h-3.926v-12.203c0-3.87-1.72-5.804-5.16-5.804-1.623 0-2.946.648-3.97 1.944-1.025 1.293-1.537 2.793-1.537 4.5V352h-3.923zm32.256 21.59c-3.129 0-5.703-1.06-7.723-3.18-2.02-2.117-3.03-4.77-3.03-7.956 0-3.187 1.01-5.84 3.03-7.957 2.02-2.12 4.594-3.18 7.723-3.18 2.331 0 4.265.569 5.8 1.707 1.538 1.137 2.663 2.574 3.374 4.31l-3.587 1.493c-1.08-2.618-3.028-3.927-5.843-3.927-1.736 0-3.265.711-4.587 2.134-1.322 1.422-1.983 3.229-1.983 5.42 0 2.19.66 3.997 1.983 5.42 1.322 1.422 2.851 2.133 4.587 2.133 2.929 0 4.947-1.309 6.056-3.927l3.5 1.494c-.71 1.706-1.855 3.135-3.433 4.286-1.58 1.154-3.536 1.73-5.867 1.73zm21.76 0c-3.157 0-5.725-1.052-7.703-3.156-1.976-2.107-2.963-4.767-2.963-7.98 0-3.045.96-5.661 2.88-7.85 1.92-2.191 4.373-3.287 7.36-3.287 3.1 0 5.58 1.01 7.443 3.03 1.864 2.02 2.797 4.722 2.797 8.107l-.044.726H314.75c.113 2.105.818 3.768 2.113 4.99 1.294 1.225 2.808 1.837 4.544 1.837 2.815 0 4.72-1.196 5.716-3.587l3.5 1.454c-.682 1.62-1.805 2.977-3.37 4.073-1.564 1.096-3.484 1.643-5.76 1.643zm-6.486-13.653h12.116c-.084-1.196-.632-2.333-1.643-3.413-1.009-1.083-2.509-1.624-4.5-1.624-1.451 0-2.71.456-3.777 1.367-1.066.911-1.799 2.134-2.196 3.67zM348.883 352h-3.923v-30.55h3.923l10.624 18.603h.173l10.623-18.603h3.924V352h-3.924v-18.133l.17-5.12h-.17l-9.556 16.766h-2.307l-9.557-16.766h-.17l.17 5.12zm32.64-18.41c2.02-2.12 4.595-3.18 7.724-3.18 3.129 0 5.703 1.06 7.723 3.18 2.02 2.118 3.03 4.77 3.03 7.957 0 3.186-1.01 5.839-3.03 7.956-2.02 2.12-4.594 3.18-7.723 3.18-3.13 0-5.704-1.06-7.724-3.18-2.02-2.117-3.03-4.77-3.03-7.956 0-3.187 1.01-5.84 3.03-7.957zm2.924 13.44c1.35 1.38 2.95 2.07 4.8 2.07 1.849 0 3.449-.69 4.8-2.07 1.35-1.38 2.026-3.208 2.026-5.483 0-2.276-.675-4.104-2.026-5.484-1.351-1.38-2.951-2.07-4.8-2.07-1.85 0-3.45.69-4.8 2.07-1.351 1.38-2.027 3.208-2.027 5.484 0 2.275.676 4.103 2.027 5.483zm18.71-15.937h3.753v2.9h.17c.569-.995 1.466-1.84 2.69-2.536a7.786 7.786 0 0 1 3.923-1.047c2.59 0 4.567.797 5.934 2.39 1.364 1.593 2.046 3.727 2.046 6.4V352h-3.926v-12.203c0-3.87-1.72-5.804-5.16-5.804-1.623 0-2.946.648-3.97 1.944-1.025 1.293-1.537 2.793-1.537 4.5V352h-3.923zm27.39-5.246a2.67 2.67 0 0 1-1.96.81c-.77 0-1.424-.27-1.964-.81a2.68 2.68 0 0 1-.81-1.964c0-.769.27-1.423.81-1.963s1.195-.81 1.964-.81c.766 0 1.42.27 1.96.81.542.54.813 1.194.813 1.963 0 .767-.271 1.421-.813 1.964zm0 5.246V352h-3.924v-20.907zm13.313 21.247c-2.191 0-3.862-.582-5.013-1.747-1.151-1.166-1.727-2.816-1.727-4.95v-10.966h-3.67v-3.584h3.67v-6.4h3.923v6.4h5.12v3.584h-5.12v10.666c0 2.276.94 3.414 2.817 3.414.711 0 1.309-.114 1.793-.34l1.364 3.37c-.854.369-1.906.553-3.157.553zm7.253-18.75c2.02-2.12 4.595-3.18 7.724-3.18 3.129 0 5.703 1.06 7.723 3.18 2.018 2.118 3.027 4.77 3.027 7.957 0 3.186-1.01 5.839-3.027 7.956-2.02 2.12-4.594 3.18-7.723 3.18-3.13 0-5.704-1.06-7.724-3.18-2.02-2.117-3.03-4.77-3.03-7.956 0-3.187 1.01-5.84 3.03-7.957zm2.924 13.44c1.35 1.38 2.95 2.07 4.8 2.07 1.849 0 3.449-.69 4.8-2.07 1.35-1.38 2.026-3.208 2.026-5.483 0-2.276-.675-4.104-2.026-5.484-1.351-1.38-2.951-2.07-4.8-2.07-1.85 0-3.45.69-4.8 2.07-1.351 1.38-2.027 3.208-2.027 5.484 0 2.275.676 4.103 2.027 5.483zm22.633-6.463V352h-3.923v-20.907h3.753v3.414h.17c.398-1.138 1.216-2.077 2.453-2.817 1.238-.74 2.44-1.11 3.607-1.11 1.167 0 2.148.171 2.943.513l-1.493 3.67c-.511-.2-1.208-.3-2.09-.3-1.422 0-2.681.563-3.777 1.687-1.095 1.122-1.643 2.594-1.643 4.417zm15.403-14.72c-.54.54-1.194.81-1.963.81a2.68 2.68 0 0 1-1.963-.81 2.68 2.68 0 0 1-.81-1.964c0-.769.27-1.423.81-1.963a2.68 2.68 0 0 1 1.963-.81c.769 0 1.423.27 1.963.81s.81 1.194.81 1.963a2.68 2.68 0 0 1-.81 1.964zm0 5.246V352h-3.926v-20.907zm4.694 0h3.753v2.9h.173c.57-.995 1.465-1.84 2.687-2.536a7.792 7.792 0 0 1 3.927-1.047c2.586 0 4.563.797 5.93 2.39 1.364 1.593 2.046 3.727 2.046 6.4V352h-3.923v-12.203c0-3.87-1.721-5.804-5.163-5.804-1.623 0-2.946.648-3.97 1.944-1.023 1.293-1.534 2.793-1.534 4.5V352h-3.926zm31.786 30.807c-2.475 0-4.495-.619-6.06-1.857-1.564-1.237-2.687-2.653-3.37-4.246l3.584-1.494c.4 1.138 1.133 2.091 2.2 2.86 1.066.767 2.282 1.15 3.646 1.15 2.163 0 3.863-.646 5.1-1.94 1.236-1.293 1.854-3.05 1.854-5.27V349.1h-.17c-.683 1.022-1.65 1.876-2.9 2.56-1.251.682-2.66 1.023-4.224 1.023-2.702 0-5.035-1.066-7-3.2-1.962-2.133-2.943-4.779-2.943-7.936 0-3.158.981-5.804 2.943-7.937 1.965-2.133 4.298-3.2 7-3.2 1.565 0 2.973.341 4.224 1.023 1.25.685 2.217 1.538 2.9 2.56h.17v-2.9h3.756v19.84c0 3.585-1.039 6.308-3.116 8.17-2.076 1.865-4.607 2.797-7.594 2.797zm.3-12.8c1.85 0 3.42-.683 4.714-2.05 1.293-1.364 1.94-3.199 1.94-5.503 0-2.305-.647-4.14-1.94-5.504-1.294-1.366-2.865-2.05-4.714-2.05-1.822 0-3.386.69-4.693 2.07-1.309 1.38-1.963 3.208-1.963 5.484 0 2.275.654 4.103 1.963 5.483 1.307 1.38 2.871 2.07 4.693 2.07z" fill-opacity=".54" fill="#000"/>
  </g>
</svg>
