<svg xmlns="http://www.w3.org/2000/svg" width="192" height="192">
  <g fill="none">
    <path d="M0 0h192v192H0z"/>
    <path d="M60 44.8L80 56 68.8 36 80 16 60 27.2 40 16l11.2 20L40 56zm96 78.4L136 112l11.2 20-11.2 20 20-11.2 20 11.2-11.2-20 11.2-20zM176 16l-20 11.2L136 16l11.2 20L136 56l20-11.2L176 56l-11.2-20zm-61.04 42.32a7.968 7.968 0 0 0-11.28 0l-93.36 93.36a7.968 7.968 0 0 0 0 11.28l18.72 18.72a7.967 7.967 0 0 0 11.28 0L133.6 88.4a7.968 7.968 0 0 0 0-11.28zm-8.24 43.92L89.76 85.28l19.52-19.52 16.96 16.96z" fill-opacity=".54" fill="#000"/>
  </g>
</svg>
