<svg xmlns="http://www.w3.org/2000/svg" width="192" height="192">
  <g fill="none">
    <path d="M0 0h192v192H0z"/>
    <path d="M36.227 122.934L53.655 11.388a4 4 0 0 1 7.477-1.275l18.74 34.96zm65.373 59.553a11.989 11.989 0 0 1-11.696-.02L32 150 136.636 45.175a3.994 3.994 0 0 1 6.771 2.164l8.292 51.302A46.308 46.308 0 0 0 144 98c-25.405 0-46 20.595-46 46 0 12.856 5.274 24.48 13.775 32.827zM33.584 139.92L92.461 34.888a3.999 3.999 0 0 1 7.081 0l13.406 25.525zM104 144c0-22.091 17.909-40 40-40s40 17.909 40 40-17.909 40-40 40-40-17.909-40-40zm31-12.8l5 2.8-2.8-5 2.8-5-5 2.8-5-2.8 2.8 5-2.8 5zm24 19.6l-5-2.8 2.8 5-2.8 5 5-2.8 5 2.8-2.8-5 2.8-5zm5-26.8l-5 2.8-5-2.8 2.8 5-2.8 5 5-2.8 5 2.8-2.8-5zm-15.26 10.58a1.992 1.992 0 0 0-2.82 0l-23.34 23.34a1.992 1.992 0 0 0 0 2.82l4.68 4.68c.78.78 2.04.78 2.82 0l23.32-23.32a1.992 1.992 0 0 0 0-2.82zm-2.06 10.98l-4.24-4.24 4.88-4.88 4.24 4.24z" fill="#fff"/>
  </g>
</svg>
