<svg xmlns="http://www.w3.org/2000/svg" width="391.507" height="464">
  <g fill="none">
    <path d="M0 0h391.507v464H0z"/>
    <path d="M99.753 192c0-53.02 42.981-96 96-96 53.02 0 96 42.98 96 96s-42.98 96-96 96c-53.019 0-96-42.98-96-96zm75-29.867l11.667 6.534L179.887 157l6.533-11.667-11.667 6.534-11.666-6.534L169.62 157l-6.533 11.667zm56 45.734l-11.666-6.534L225.62 213l-6.533 11.667 11.666-6.534 11.667 6.534L235.887 213l6.533-11.667zm11.667-62.534l-11.667 6.534-11.666-6.534L225.62 157l-6.533 11.667 11.666-6.534 11.667 6.534L235.887 157zm-35.607 24.687a4.648 4.648 0 0 0-6.58 0l-54.46 54.46a4.648 4.648 0 0 0 0 6.58l10.92 10.92a4.647 4.647 0 0 0 6.58 0l54.414-54.413a4.648 4.648 0 0 0 0-6.58zm-4.806 25.62l-9.894-9.893L203.5 174.36l9.893 9.893zM99.923 339.627V352H96v-30.55h10.41c2.589 0 4.829.861 6.72 2.583 1.891 1.72 2.837 3.89 2.837 6.507 0 2.616-.946 4.784-2.837 6.507-1.891 1.72-4.131 2.58-6.72 2.58zm0-14.42v10.666h6.57c1.651 0 2.975-.555 3.97-1.666.996-1.11 1.494-2.331 1.494-3.667 0-1.338-.498-2.561-1.494-3.67-.995-1.109-2.319-1.663-3.97-1.663zm22.53 15.36V352h-3.926v-20.907h3.753v3.414h.173c.398-1.138 1.216-2.077 2.454-2.817 1.235-.74 2.436-1.11 3.603-1.11 1.167 0 2.148.171 2.943.513l-1.493 3.67c-.511-.2-1.208-.3-2.09-.3-1.422 0-2.681.563-3.777 1.687-1.093 1.122-1.64 2.594-1.64 4.417zm19.754 12.116c-3.158 0-5.725-1.052-7.7-3.156-1.978-2.107-2.967-4.767-2.967-7.98 0-3.045.96-5.661 2.88-7.85 1.92-2.191 4.373-3.287 7.36-3.287 3.1 0 5.582 1.01 7.447 3.03 1.862 2.02 2.793 4.722 2.793 8.107l-.043.726h-16.51c.113 2.105.816 3.768 2.11 4.99 1.295 1.225 2.81 1.837 4.543 1.837 2.818 0 4.724-1.196 5.72-3.587l3.497 1.454c-.683 1.62-1.806 2.977-3.37 4.073-1.565 1.096-3.485 1.643-5.76 1.643zm-6.487-13.653h12.12c-.087-1.196-.634-2.333-1.643-3.413-1.011-1.083-2.513-1.624-4.504-1.624-1.449 0-2.706.456-3.773 1.367-1.067.911-1.8 2.134-2.2 3.67zm28.417 13.653c-2.703 0-5.035-1.066-6.997-3.2-1.962-2.133-2.943-4.779-2.943-7.936 0-3.158.98-5.804 2.943-7.937 1.962-2.133 4.294-3.2 6.997-3.2 1.593 0 3.023.341 4.29 1.023 1.264.685 2.21 1.538 2.836 2.56h.17l-.17-2.9v-9.643h3.924V352h-3.754v-2.9h-.17c-.626 1.022-1.572 1.876-2.836 2.56-1.267.682-2.697 1.023-4.29 1.023zm.64-3.583c1.849 0 3.42-.683 4.716-2.05 1.294-1.364 1.94-3.199 1.94-5.503 0-2.305-.646-4.14-1.94-5.504-1.295-1.366-2.867-2.05-4.716-2.05-1.82 0-3.385.69-4.694 2.07-1.309 1.38-1.963 3.208-1.963 5.484 0 2.275.654 4.103 1.963 5.483 1.31 1.38 2.874 2.07 4.694 2.07zm19.03-23.253c-.54.54-1.195.81-1.964.81a2.68 2.68 0 0 1-1.963-.81 2.68 2.68 0 0 1-.81-1.964c0-.769.27-1.423.81-1.963a2.68 2.68 0 0 1 1.963-.81c.77 0 1.424.27 1.964.81s.81 1.194.81 1.963a2.68 2.68 0 0 1-.81 1.964zm0 5.246V352h-3.927v-20.907zm14.036 21.59c-3.129 0-5.703-1.06-7.723-3.18-2.018-2.117-3.027-4.77-3.027-7.956 0-3.187 1.01-5.84 3.027-7.957 2.02-2.12 4.594-3.18 7.723-3.18 2.334 0 4.268.569 5.804 1.707 1.535 1.137 2.659 2.574 3.37 4.31l-3.584 1.493c-1.08-2.618-3.029-3.927-5.846-3.927-1.734 0-3.263.711-4.587 2.134-1.322 1.422-1.983 3.229-1.983 5.42 0 2.19.66 3.997 1.983 5.42 1.324 1.422 2.853 2.133 4.587 2.133 2.93 0 4.95-1.309 6.06-3.927l3.5 1.494c-.711 1.706-1.857 3.135-3.437 4.286-1.578 1.154-3.533 1.73-5.867 1.73zm21.12-.343c-2.189 0-3.86-.582-5.013-1.747-1.151-1.166-1.727-2.816-1.727-4.95v-10.966h-3.67v-3.584h3.67v-6.4h3.924v6.4h5.12v3.584h-5.12v10.666c0 2.276.939 3.414 2.816 3.414.711 0 1.31-.114 1.794-.34l1.363 3.37c-.853.369-1.906.553-3.157.553zm9.9-26.493c-.54.54-1.194.81-1.963.81-.769 0-1.423-.27-1.963-.81a2.68 2.68 0 0 1-.81-1.964c0-.769.27-1.423.81-1.963s1.194-.81 1.963-.81c.769 0 1.423.27 1.963.81s.81 1.194.81 1.963a2.68 2.68 0 0 1-.81 1.964zm0 5.246V352h-3.926v-20.907zm6.314 2.497c2.02-2.12 4.594-3.18 7.723-3.18 3.129 0 5.703 1.06 7.723 3.18 2.02 2.118 3.03 4.77 3.03 7.957 0 3.186-1.01 5.839-3.03 7.956-2.02 2.12-4.594 3.18-7.723 3.18-3.129 0-5.703-1.06-7.723-3.18-2.02-2.117-3.03-4.77-3.03-7.956 0-3.187 1.01-5.84 3.03-7.957zm2.923 13.44c1.351 1.38 2.951 2.07 4.8 2.07 1.849 0 3.449-.69 4.8-2.07s2.027-3.208 2.027-5.483c0-2.276-.676-4.104-2.027-5.484s-2.951-2.07-4.8-2.07c-1.849 0-3.449.69-4.8 2.07s-2.027 3.208-2.027 5.484c0 2.275.676 4.103 2.027 5.483zm18.71-15.937h3.753v2.9h.17c.57-.995 1.466-1.84 2.69-2.536a7.786 7.786 0 0 1 3.924-1.047c2.589 0 4.566.797 5.933 2.39 1.364 1.593 2.047 3.727 2.047 6.4V352H271.4v-12.203c0-3.87-1.72-5.804-5.16-5.804-1.622 0-2.946.648-3.97 1.944-1.024 1.293-1.537 2.793-1.537 4.5V352h-3.923zm30.463 21.59c-2.333 0-4.26-.569-5.78-1.706-1.522-1.138-2.639-2.56-3.35-4.267l3.497-1.45c1.111 2.616 3.003 3.923 5.677 3.923 1.222 0 2.224-.27 3.006-.81.783-.54 1.174-1.25 1.174-2.133 0-1.364-.953-2.289-2.857-2.773l-4.227-1.024c-1.335-.342-2.6-.99-3.796-1.943-1.194-.951-1.79-2.238-1.79-3.86 0-1.849.817-3.349 2.453-4.5 1.636-1.153 3.577-1.73 5.823-1.73 1.85 0 3.5.42 4.95 1.26 1.45.838 2.487 2.039 3.114 3.603l-3.414 1.41c-.769-1.849-2.362-2.773-4.78-2.773-1.164 0-2.145.241-2.943.723-.796.485-1.193 1.14-1.193 1.964 0 1.195.924 2.006 2.773 2.433l4.137.98c1.964.456 3.415 1.238 4.353 2.347.938 1.109 1.407 2.36 1.407 3.756 0 1.876-.768 3.44-2.304 4.694-1.535 1.25-3.512 1.876-5.93 1.876z" fill="#fff"/>
  </g>
</svg>
