<svg xmlns="http://www.w3.org/2000/svg" width="628.01" height="464">
  <g fill="none">
    <path d="M0 0h628.01v464H0z"/>
    <path d="M254.232 218.934l17.428-111.546a4 4 0 0 1 7.477-1.275l18.74 34.96zm65.373 59.553a11.989 11.989 0 0 1-11.696-.02L250.005 246l104.636-104.825a3.994 3.994 0 0 1 6.771 2.164l8.292 51.302a46.308 46.308 0 0 0-7.699-.641c-25.405 0-46 20.595-46 46 0 12.856 5.274 24.48 13.775 32.827zm-68.016-42.567l58.877-105.032a3.999 3.999 0 0 1 7.081 0l13.406 25.525zm70.416 4.08c0-22.091 17.909-40 40-40s40 17.909 40 40-17.909 40-40 40-40-17.909-40-40zm38 8v4h12v6l8-8-8-8v6zm-4-20c-2.21.006-4 1.81-4 4v16c0-.006-7.996 0-8 0v4h8c2.21 0 4-1.804 4-4v-16c0 .014 15.996.006 16 0v6l8-8-8-8v6zM99.923 338.9V352H96v-30.55h17.833v3.757h-13.91v10.026h12.544v3.667zm21.29-13.053a2.67 2.67 0 0 1-1.96.81c-.769 0-1.423-.27-1.963-.81a2.68 2.68 0 0 1-.81-1.964c0-.769.27-1.423.81-1.963s1.194-.81 1.963-.81c.767 0 1.42.27 1.96.81.543.54.814 1.194.814 1.963 0 .767-.271 1.421-.814 1.964zm0 5.246V352h-3.923v-20.907zm8.62 9.474V352h-3.926v-20.907h3.756v3.414h.17c.398-1.138 1.216-2.077 2.454-2.817 1.237-.74 2.44-1.11 3.606-1.11 1.165 0 2.146.171 2.944.513l-1.494 3.67c-.513-.2-1.21-.3-2.09-.3-1.422 0-2.68.563-3.776 1.687-1.096 1.122-1.644 2.594-1.644 4.417zm19.754 12.116c-3.156 0-5.723-1.052-7.7-3.156-1.978-2.107-2.967-4.767-2.967-7.98 0-3.045.96-5.661 2.88-7.85 1.92-2.191 4.373-3.287 7.36-3.287 3.102 0 5.584 1.01 7.447 3.03 1.862 2.02 2.793 4.722 2.793 8.107l-.04.726h-16.513c.113 2.105.817 3.768 2.113 4.99 1.293 1.225 2.808 1.837 4.543 1.837 2.816 0 4.721-1.196 5.717-3.587l3.5 1.454c-.684 1.62-1.809 2.977-3.373 4.073-1.565 1.096-3.485 1.643-5.76 1.643zm-6.484-13.653h12.117c-.084-1.196-.632-2.333-1.643-3.413-1.01-1.083-2.51-1.624-4.5-1.624-1.451 0-2.71.456-3.777 1.367-1.067.911-1.799 2.134-2.197 3.67zm30.507 13.653c-1.593 0-3.023-.34-4.29-1.023-1.264-.684-2.21-1.538-2.837-2.56h-.17v2.9h-3.753v-30.55h3.923v9.643l-.17 2.9h.17c.627-1.022 1.573-1.875 2.837-2.56 1.267-.682 2.697-1.023 4.29-1.023 2.702 0 5.034 1.067 6.997 3.2 1.962 2.133 2.943 4.779 2.943 7.937 0 3.157-.981 5.803-2.943 7.936-1.963 2.134-4.295 3.2-6.997 3.2zm-.64-3.583c1.82 0 3.384-.69 4.693-2.07 1.31-1.38 1.964-3.208 1.964-5.483 0-2.276-.655-4.104-1.964-5.484s-2.873-2.07-4.693-2.07c-1.849 0-3.421.684-4.717 2.05-1.293 1.365-1.94 3.2-1.94 5.504 0 2.304.647 4.139 1.94 5.503 1.296 1.367 2.868 2.05 4.717 2.05zm20.563 3.583c-2.217 0-4.073-.64-5.566-1.92-1.494-1.28-2.24-2.972-2.24-5.076 0-2.276.882-4.061 2.646-5.357 1.763-1.293 3.938-1.94 6.527-1.94 2.304 0 4.196.427 5.673 1.28v-.597c0-1.537-.525-2.769-1.576-3.693-1.054-.924-2.348-1.387-3.884-1.387-1.137 0-2.169.271-3.093.814-.924.54-1.558 1.279-1.9 2.216l-3.583-1.536c.484-1.251 1.437-2.41 2.86-3.477 1.422-1.067 3.299-1.6 5.63-1.6 2.675 0 4.894.782 6.656 2.347 1.765 1.564 2.647 3.769 2.647 6.613V352h-3.757v-2.9h-.17c-1.564 2.389-3.854 3.583-6.87 3.583zm.64-3.583c1.623 0 3.095-.604 4.417-1.813 1.322-1.21 1.983-2.64 1.983-4.29-1.109-.91-2.772-1.364-4.99-1.364-1.906 0-3.343.413-4.31 1.237-.966.824-1.45 1.791-1.45 2.9 0 1.024.441 1.836 1.324 2.433.88.598 1.889.897 3.026.897zm21.72 3.583c-2.333 0-4.26-.569-5.783-1.706-1.522-1.138-2.639-2.56-3.35-4.267l3.5-1.45c1.109 2.616 3 3.923 5.673 3.923 1.225 0 2.228-.27 3.01-.81.783-.54 1.174-1.25 1.174-2.133 0-1.364-.954-2.289-2.86-2.773l-4.224-1.024c-1.337-.342-2.603-.99-3.796-1.943-1.196-.951-1.794-2.238-1.794-3.86 0-1.849.818-3.349 2.454-4.5 1.635-1.153 3.576-1.73 5.823-1.73 1.849 0 3.499.42 4.95 1.26 1.451.838 2.49 2.039 3.117 3.603l-3.414 1.41c-.769-1.849-2.362-2.773-4.78-2.773-1.166 0-2.147.241-2.943.723-.798.485-1.197 1.14-1.197 1.964 0 1.195.925 2.006 2.774 2.433l4.14.98c1.962.456 3.413 1.238 4.353 2.347.938 1.109 1.407 2.36 1.407 3.756 0 1.876-.768 3.44-2.304 4.694-1.535 1.25-3.512 1.876-5.93 1.876zm21.334 0c-3.158 0-5.726-1.052-7.704-3.156-1.975-2.107-2.963-4.767-2.963-7.98 0-3.045.96-5.661 2.88-7.85 1.92-2.191 4.373-3.287 7.36-3.287 3.1 0 5.581 1.01 7.443 3.03 1.865 2.02 2.797 4.722 2.797 8.107l-.043.726h-16.514c.114 2.105.818 3.768 2.114 4.99 1.293 1.225 2.807 1.837 4.543 1.837 2.816 0 4.721-1.196 5.717-3.587l3.5 1.454c-.683 1.62-1.806 2.977-3.37 4.073-1.565 1.096-3.485 1.643-5.76 1.643zm-6.487-13.653h12.117c-.085-1.196-.633-2.333-1.644-3.413-1.009-1.083-2.509-1.624-4.5-1.624-1.45 0-2.71.456-3.776 1.367-1.067.911-1.8 2.134-2.197 3.67zM264.617 352h-3.924v-30.55h10.41c2.59 0 4.83.861 6.72 2.583 1.891 1.72 2.837 3.89 2.837 6.507 0 2.133-.697 4.018-2.09 5.653-1.393 1.636-3.129 2.667-5.207 3.094l-.083.126 8.573 12.417v.17h-4.65l-8.233-12.373h-4.353zm0-26.793v10.75h6.316c1.565 0 2.908-.513 4.03-1.537 1.125-1.022 1.687-2.316 1.687-3.88 0-1.338-.498-2.561-1.493-3.67-.996-1.109-2.32-1.663-3.97-1.663zm28.886 27.476c-3.157 0-5.725-1.052-7.703-3.156-1.976-2.107-2.963-4.767-2.963-7.98 0-3.045.96-5.661 2.88-7.85 1.92-2.191 4.373-3.287 7.36-3.287 3.1 0 5.58 1.01 7.443 3.03 1.864 2.02 2.797 4.722 2.797 8.107l-.044.726H286.76c.116 2.105.82 3.768 2.113 4.99 1.294 1.225 2.808 1.837 4.544 1.837 2.815 0 4.72-1.196 5.716-3.587l3.5 1.454c-.682 1.62-1.805 2.977-3.37 4.073-1.564 1.096-3.484 1.643-5.76 1.643zm-6.486-13.653h12.116c-.084-1.196-.63-2.333-1.64-3.413-1.01-1.083-2.512-1.624-4.503-1.624-1.451 0-2.71.456-3.777 1.367-1.066.911-1.799 2.134-2.196 3.67zM310.4 352h-3.927v-20.907h3.754v2.9h.173c.596-.995 1.512-1.84 2.75-2.536 1.238-.698 2.468-1.047 3.69-1.047 3.244 0 5.449 1.337 6.613 4.01 1.707-2.673 4.14-4.01 7.297-4.01 2.476 0 4.339.79 5.59 2.37 1.251 1.578 1.877 3.718 1.877 6.42V352h-3.924v-12.203c0-2.105-.384-3.598-1.153-4.48-.769-.883-1.936-1.324-3.5-1.324-1.536 0-2.808.655-3.817 1.964-1.01 1.309-1.516 2.802-1.516 4.48V352h-3.924v-12.203c0-2.105-.384-3.598-1.153-4.48-.767-.883-1.932-1.324-3.497-1.324-1.537 0-2.81.655-3.82 1.964-1.009 1.309-1.513 2.802-1.513 4.48zm33.833-18.41c2.02-2.12 4.595-3.18 7.724-3.18 3.129 0 5.703 1.06 7.723 3.18 2.018 2.118 3.027 4.77 3.027 7.957 0 3.186-1.01 5.839-3.027 7.956-2.02 2.12-4.594 3.18-7.723 3.18-3.13 0-5.704-1.06-7.724-3.18-2.02-2.117-3.03-4.77-3.03-7.956 0-3.187 1.01-5.84 3.03-7.957zm2.924 13.44c1.35 1.38 2.95 2.07 4.8 2.07 1.849 0 3.449-.69 4.8-2.07 1.35-1.38 2.026-3.208 2.026-5.483 0-2.276-.675-4.104-2.026-5.484-1.351-1.38-2.951-2.07-4.8-2.07-1.85 0-3.45.69-4.8 2.07-1.351 1.38-2.027 3.208-2.027 5.484 0 2.275.676 4.103 2.027 5.483zm27.326 5.31c-2.189 0-3.86-.582-5.013-1.747-1.151-1.166-1.727-2.816-1.727-4.95v-10.966h-3.67v-3.584h3.67v-6.4h3.924v6.4h5.12v3.584h-5.12v10.666c0 2.276.939 3.414 2.816 3.414.711 0 1.31-.114 1.794-.34l1.363 3.37c-.853.369-1.906.553-3.157.553zm14.89.343c-3.155 0-5.722-1.052-7.7-3.156-1.977-2.107-2.966-4.767-2.966-7.98 0-3.045.96-5.661 2.88-7.85 1.92-2.191 4.373-3.287 7.36-3.287 3.102 0 5.584 1.01 7.446 3.03 1.863 2.02 2.794 4.722 2.794 8.107l-.04.726h-16.514c.114 2.105.818 3.768 2.114 4.99 1.293 1.225 2.807 1.837 4.543 1.837 2.816 0 4.721-1.196 5.717-3.587l3.5 1.454c-.685 1.62-1.81 2.977-3.374 4.073-1.564 1.096-3.484 1.643-5.76 1.643zm-6.483-13.653h12.117c-.085-1.196-.633-2.333-1.644-3.413-1.009-1.083-2.509-1.624-4.5-1.624-1.45 0-2.71.456-3.776 1.367-1.067.911-1.8 2.134-2.197 3.67zm43.477 13.653c-4.494 0-8.263-1.522-11.307-4.566-3.044-3.043-4.567-6.84-4.567-11.39 0-4.551 1.523-8.35 4.567-11.394 3.044-3.044 6.813-4.566 11.307-4.566 4.609 0 8.349 1.664 11.22 4.993l-2.73 2.647c-2.076-2.59-4.906-3.884-8.49-3.884-3.33 0-6.138 1.124-8.427 3.37-2.289 2.247-3.433 5.191-3.433 8.834 0 3.64 1.144 6.583 3.433 8.83 2.289 2.246 5.098 3.37 8.427 3.37 3.669 0 6.797-1.48 9.386-4.437l2.73 2.73c-1.393 1.68-3.142 3.01-5.246 3.99-2.105.982-4.395 1.473-6.87 1.473zm16.81-19.093c2.02-2.12 4.594-3.18 7.723-3.18 3.129 0 5.703 1.06 7.723 3.18 2.02 2.118 3.03 4.77 3.03 7.957 0 3.186-1.01 5.839-3.03 7.956-2.02 2.12-4.594 3.18-7.723 3.18-3.129 0-5.703-1.06-7.723-3.18-2.02-2.117-3.03-4.77-3.03-7.956 0-3.187 1.01-5.84 3.03-7.957zm2.923 13.44c1.351 1.38 2.951 2.07 4.8 2.07 1.849 0 3.449-.69 4.8-2.07s2.027-3.208 2.027-5.483c0-2.276-.676-4.104-2.027-5.484s-2.951-2.07-4.8-2.07c-1.849 0-3.449.69-4.8 2.07s-2.027 3.208-2.027 5.484c0 2.275.676 4.103 2.027 5.483zm18.71-15.937h3.753v2.9h.17c.57-.995 1.466-1.84 2.69-2.536a7.786 7.786 0 0 1 3.924-1.047c2.589 0 4.566.797 5.933 2.39 1.364 1.593 2.047 3.727 2.047 6.4V352H479.4v-12.203c0-3.87-1.72-5.804-5.16-5.804-1.622 0-2.946.648-3.97 1.944-1.024 1.293-1.537 2.793-1.537 4.5V352h-3.923zm32.683-9.813c1.251 0 2.304.184 3.157.553l-1.367 3.374c-.455-.23-1.052-.344-1.79-.344-1.024 0-1.864.306-2.52.917-.653.613-.98 1.502-.98 2.667v2.646h13.314V352h-3.927v-17.323h-9.387V352h-3.926v-17.323h-3.924v-3.584h3.924v-2.773c0-2.133.683-3.84 2.05-5.12 1.364-1.28 3.156-1.92 5.376-1.92zm9.814 4.567a2.68 2.68 0 0 1-1.964.81c-.769 0-1.423-.27-1.963-.81a2.68 2.68 0 0 1-.81-1.964c0-.769.27-1.423.81-1.963s1.194-.81 1.963-.81c.767 0 1.421.27 1.964.81.54.54.81 1.194.81 1.963a2.68 2.68 0 0 1-.81 1.964zM521.3 361.9c-2.476 0-4.496-.619-6.06-1.857-1.564-1.237-2.688-2.653-3.37-4.246l3.583-1.494c.4 1.138 1.134 2.091 2.2 2.86 1.067.767 2.283 1.15 3.647 1.15 2.162 0 3.862-.646 5.1-1.94 1.236-1.293 1.853-3.05 1.853-5.27V349.1h-.17c-.682 1.022-1.649 1.876-2.9 2.56-1.25.682-2.659 1.023-4.223 1.023-2.702 0-5.036-1.066-7-3.2-1.962-2.133-2.943-4.779-2.943-7.936 0-3.158.98-5.804 2.943-7.937 1.964-2.133 4.298-3.2 7-3.2 1.564 0 2.972.341 4.223 1.023 1.251.685 2.218 1.538 2.9 2.56h.17v-2.9h3.757v19.84c0 3.585-1.039 6.308-3.117 8.17-2.075 1.865-4.606 2.797-7.593 2.797zm.3-12.8c1.849 0 3.42-.683 4.713-2.05 1.294-1.364 1.94-3.199 1.94-5.503 0-2.305-.646-4.14-1.94-5.504-1.293-1.366-2.864-2.05-4.713-2.05-1.822 0-3.387.69-4.693 2.07-1.31 1.38-1.964 3.208-1.964 5.484 0 2.275.655 4.103 1.964 5.483 1.306 1.38 2.87 2.07 4.693 2.07z" fill="#fff"/>
  </g>
</svg>
