<svg xmlns="http://www.w3.org/2000/svg" width="192" height="192">
  <g fill="none">
    <path d="M0 0h192v192H0z"/>
    <path d="M36.227 122.934L53.655 11.388a4 4 0 0 1 7.477-1.275l18.74 34.96zm65.373 59.553a11.989 11.989 0 0 1-11.696-.02L32 150 136.636 45.175a3.994 3.994 0 0 1 6.771 2.164l8.292 51.302A46.308 46.308 0 0 0 144 98c-25.405 0-46 20.595-46 46 0 12.856 5.274 24.48 13.775 32.827zM33.584 139.92L92.461 34.888a3.999 3.999 0 0 1 7.081 0l13.406 25.525zM104 144c0-22.091 17.909-40 40-40s40 17.909 40 40-17.909 40-40 40-40-17.909-40-40zm38 8v4h12v6l8-8-8-8v6zm-4-20c-2.21.006-4 1.81-4 4v16c0-.006-7.996 0-8 0v4h8c2.21 0 4-1.804 4-4v-16c0 .014 15.996.006 16 0v6l8-8-8-8v6z" fill="#fff"/>
  </g>
</svg>
