<svg xmlns="http://www.w3.org/2000/svg" width="463.317" height="464">
  <g fill="none">
    <path d="M0 0h463.317v464H0z"/>
    <circle cx="231.658" cy="192" r="96" fill="#ff8a65"/>
    <path d="M254.992 210.667v-14l18.666 18.666L254.992 234v-14h-28v-9.333zM250.325 164h-32.667c-5.156.014-9.333 4.223-9.333 9.333v37.334c0-.014-18.657 0-18.667 0V220h18.667c5.157 0 9.333-4.21 9.333-9.333v-37.334c0 .033 37.324.014 37.334 0v14l18.666-18.666L254.992 150v14z" fill="#fff" fill-rule="evenodd"/>
    <path d="M99.923 352H96v-30.55h10.41c2.589 0 4.829.861 6.72 2.583 1.891 1.72 2.837 3.89 2.837 6.507 0 2.133-.697 4.018-2.09 5.653-1.394 1.636-3.13 2.667-5.207 3.094l-.083.126 8.573 12.417v.17h-4.65l-8.233-12.373h-4.354zm0-26.793v10.75h6.317c1.564 0 2.908-.513 4.03-1.537 1.124-1.022 1.687-2.316 1.687-3.88 0-1.338-.498-2.561-1.494-3.67-.995-1.109-2.319-1.663-3.97-1.663zm28.887 27.476c-3.158 0-5.726-1.052-7.703-3.156-1.976-2.107-2.964-4.767-2.964-7.98 0-3.045.96-5.661 2.88-7.85 1.92-2.191 4.374-3.287 7.36-3.287 3.1 0 5.581 1.01 7.444 3.03 1.864 2.02 2.796 4.722 2.796 8.107l-.043.726h-16.513c.115 2.105.82 3.768 2.113 4.99 1.293 1.225 2.808 1.837 4.543 1.837 2.816 0 4.721-1.196 5.717-3.587l3.5 1.454c-.682 1.62-1.806 2.977-3.37 4.073-1.564 1.096-3.484 1.643-5.76 1.643zm-6.487-13.653h12.117c-.084-1.196-.631-2.333-1.64-3.413-1.011-1.083-2.512-1.624-4.503-1.624-1.451 0-2.71.456-3.777 1.367-1.067.911-1.799 2.134-2.197 3.67zM145.707 352h-3.927v-20.907h3.753v2.9h.174c.595-.995 1.512-1.84 2.75-2.536 1.237-.698 2.467-1.047 3.69-1.047 3.244 0 5.449 1.337 6.613 4.01 1.707-2.673 4.139-4.01 7.297-4.01 2.475 0 4.339.79 5.59 2.37 1.25 1.578 1.876 3.718 1.876 6.42V352H169.6v-12.203c0-2.105-.384-3.598-1.153-4.48-.77-.883-1.936-1.324-3.5-1.324-1.536 0-2.808.655-3.817 1.964-1.011 1.309-1.517 2.802-1.517 4.48V352h-3.923v-12.203c0-2.105-.384-3.598-1.153-4.48-.767-.883-1.933-1.324-3.497-1.324-1.538 0-2.811.655-3.82 1.964s-1.513 2.802-1.513 4.48zm33.833-18.41c2.02-2.12 4.594-3.18 7.723-3.18 3.13 0 5.704 1.06 7.724 3.18 2.017 2.118 3.026 4.77 3.026 7.957 0 3.186-1.009 5.839-3.026 7.956-2.02 2.12-4.595 3.18-7.724 3.18-3.129 0-5.703-1.06-7.723-3.18-2.02-2.117-3.03-4.77-3.03-7.956 0-3.187 1.01-5.84 3.03-7.957zm2.923 13.44c1.351 1.38 2.951 2.07 4.8 2.07 1.85 0 3.45-.69 4.8-2.07 1.351-1.38 2.027-3.208 2.027-5.483 0-2.276-.676-4.104-2.027-5.484-1.35-1.38-2.95-2.07-4.8-2.07-1.849 0-3.449.69-4.8 2.07-1.35 1.38-2.026 3.208-2.026 5.484 0 2.275.675 4.103 2.026 5.483zm27.327 5.31c-2.189 0-3.86-.582-5.013-1.747-1.151-1.166-1.727-2.816-1.727-4.95v-10.966h-3.67v-3.584h3.67v-6.4h3.923v6.4h5.12v3.584h-5.12v10.666c0 2.276.94 3.414 2.817 3.414.711 0 1.309-.114 1.793-.34l1.364 3.37c-.854.369-1.906.553-3.157.553zm14.89.343c-3.156 0-5.722-1.052-7.7-3.156-1.978-2.107-2.967-4.767-2.967-7.98 0-3.045.96-5.661 2.88-7.85 1.92-2.191 4.374-3.287 7.36-3.287 3.103 0 5.585 1.01 7.447 3.03 1.862 2.02 2.793 4.722 2.793 8.107l-.04.726H217.94c.113 2.105.818 3.768 2.113 4.99 1.294 1.225 2.808 1.837 4.544 1.837 2.815 0 4.72-1.196 5.716-3.587l3.5 1.454c-.684 1.62-1.809 2.977-3.373 4.073-1.564 1.096-3.484 1.643-5.76 1.643zm-6.483-13.653h12.116c-.084-1.196-.632-2.333-1.643-3.413-1.009-1.083-2.509-1.624-4.5-1.624-1.451 0-2.71.456-3.777 1.367-1.066.911-1.799 2.134-2.196 3.67zm43.476 13.653c-4.493 0-8.262-1.522-11.306-4.566-3.045-3.043-4.567-6.84-4.567-11.39 0-4.551 1.522-8.35 4.567-11.394 3.044-3.044 6.813-4.566 11.306-4.566 4.61 0 8.35 1.664 11.22 4.993l-2.73 2.647c-2.075-2.59-4.905-3.884-8.49-3.884-3.329 0-6.137 1.124-8.426 3.37-2.29 2.247-3.434 5.191-3.434 8.834 0 3.64 1.145 6.583 3.434 8.83 2.289 2.246 5.097 3.37 8.426 3.37 3.67 0 6.798-1.48 9.387-4.437l2.73 2.73c-1.393 1.68-3.142 3.01-5.247 3.99-2.104.982-4.394 1.473-6.87 1.473zm16.81-19.093c2.02-2.12 4.595-3.18 7.724-3.18 3.129 0 5.703 1.06 7.723 3.18 2.02 2.118 3.03 4.77 3.03 7.957 0 3.186-1.01 5.839-3.03 7.956-2.02 2.12-4.594 3.18-7.723 3.18-3.13 0-5.704-1.06-7.724-3.18-2.02-2.117-3.03-4.77-3.03-7.956 0-3.187 1.01-5.84 3.03-7.957zm2.924 13.44c1.35 1.38 2.95 2.07 4.8 2.07 1.849 0 3.449-.69 4.8-2.07 1.35-1.38 2.026-3.208 2.026-5.483 0-2.276-.675-4.104-2.026-5.484-1.351-1.38-2.951-2.07-4.8-2.07-1.85 0-3.45.69-4.8 2.07-1.351 1.38-2.027 3.208-2.027 5.484 0 2.275.676 4.103 2.027 5.483zm18.71-15.937h3.753v2.9h.17c.569-.995 1.466-1.84 2.69-2.536a7.786 7.786 0 0 1 3.923-1.047c2.59 0 4.567.797 5.934 2.39 1.364 1.593 2.046 3.727 2.046 6.4V352h-3.926v-12.203c0-3.87-1.72-5.804-5.16-5.804-1.623 0-2.946.648-3.97 1.944-1.025 1.293-1.537 2.793-1.537 4.5V352h-3.923zm32.683-9.813c1.251 0 2.303.184 3.157.553l-1.367 3.374c-.456-.23-1.052-.344-1.79-.344-1.024 0-1.864.306-2.52.917-.653.613-.98 1.502-.98 2.667v2.646h13.313V352h-3.926v-17.323H329.3V352h-3.927v-17.323h-3.923v-3.584h3.923v-2.773c0-2.133.684-3.84 2.05-5.12 1.365-1.28 3.157-1.92 5.377-1.92zm9.813 4.567a2.68 2.68 0 0 1-1.963.81c-.769 0-1.423-.27-1.963-.81a2.68 2.68 0 0 1-.81-1.964c0-.769.27-1.423.81-1.963s1.194-.81 1.963-.81c.767 0 1.421.27 1.963.81.54.54.81 1.194.81 1.963a2.68 2.68 0 0 1-.81 1.964zm13.994 36.053c-2.476 0-4.496-.619-6.06-1.857-1.565-1.237-2.688-2.653-3.37-4.246l3.583-1.494c.4 1.138 1.133 2.091 2.2 2.86 1.067.767 2.282 1.15 3.647 1.15 2.162 0 3.862-.646 5.1-1.94 1.235-1.293 1.853-3.05 1.853-5.27V349.1h-.17c-.682 1.022-1.649 1.876-2.9 2.56-1.251.682-2.659 1.023-4.223 1.023-2.703 0-5.036-1.066-7-3.2-1.963-2.133-2.944-4.779-2.944-7.936 0-3.158.981-5.804 2.944-7.937 1.964-2.133 4.297-3.2 7-3.2 1.564 0 2.972.341 4.223 1.023 1.251.685 2.218 1.538 2.9 2.56h.17v-2.9h3.757v19.84c0 3.585-1.04 6.308-3.117 8.17-2.076 1.865-4.607 2.797-7.593 2.797zm.3-12.8c1.849 0 3.42-.683 4.713-2.05 1.293-1.364 1.94-3.199 1.94-5.503 0-2.305-.647-4.14-1.94-5.504-1.293-1.366-2.864-2.05-4.713-2.05-1.823 0-3.387.69-4.694 2.07-1.309 1.38-1.963 3.208-1.963 5.484 0 2.275.654 4.103 1.963 5.483 1.307 1.38 2.871 2.07 4.694 2.07z" fill="#fff"/>
  </g>
</svg>
