<svg xmlns="http://www.w3.org/2000/svg" width="192" height="192">
  <g fill="none">
    <path d="M0 0h192v192H0z"/>
    <path d="M120 66.064c-13.185-8.807-30.581-7.95-42.837 2.11-12.256 10.06-16.487 26.955-10.418 41.605 6.069 14.649 21.008 23.602 36.788 22.047 15.78-1.554 28.685-13.25 31.779-28.802l26.912 26.92c4.685 4.686 4.685 12.282 0 16.968l-11.312 11.312c-4.686 4.685-12.282 4.685-16.968 0L120 144.288V164c0 6.627-5.373 12-12 12H92c-6.627 0-12-5.373-12-12v-19.712l-13.944 13.936c-4.686 4.685-12.282 4.685-16.968 0l-11.312-11.312c-4.685-4.686-4.685-12.282 0-16.968L51.712 116H32c-6.627 0-12-5.373-12-12V88c0-6.627 5.373-12 12-12h19.712L37.776 62.056c-4.685-4.686-4.685-12.282 0-16.968l11.312-11.312c4.686-4.685 12.282-4.685 16.968 0L80 47.712V28c0-6.627 5.373-12 12-12h16c6.627 0 12 5.373 12 12zM100 112c-8.837 0-16-7.163-16-16s7.163-16 16-16 16 7.163 16 16-7.163 16-16 16z" fill="#fff"/>
  </g>
</svg>
