<svg xmlns="http://www.w3.org/2000/svg" width="392.233" height="464">
  <g fill="none">
    <path d="M0 0h392.233v464H0z"/>
    <path d="M100.117 192c0-53.02 42.98-96 96-96 53.019 0 96 42.98 96 96s-42.981 96-96 96c-53.02 0-96-42.98-96-96zm110-39.667a7 7 0 0 0-7-7h-9.334a7 7 0 0 0-7 7v11.499l-8.134-8.13a7 7 0 0 0-9.898 0l-6.598 6.6a7 7 0 0 0 0 9.897l8.129 8.134h-11.499a7 7 0 0 0-7 7v9.334a7 7 0 0 0 7 7h11.499l-8.13 8.134a7 7 0 0 0 0 9.898l6.6 6.598a7 7 0 0 0 9.897 0l8.134-8.129v11.499a7 7 0 0 0 7 7h9.334a7 7 0 0 0 7-7v-11.499l8.134 8.13a7 7 0 0 0 9.898 0l6.598-6.6a7 7 0 0 0 0-9.897l-15.698-15.704a21 21 0 1 1-8.932-21.56zM207.783 192a9.333 9.333 0 1 0-18.666 0 9.333 9.333 0 0 0 18.666 0zM111.87 352.683c-4.493 0-8.262-1.522-11.307-4.566-3.042-3.043-4.563-6.84-4.563-11.39 0-4.551 1.521-8.35 4.563-11.394 3.045-3.044 6.814-4.566 11.307-4.566 4.609 0 8.35 1.664 11.223 4.993l-2.733 2.647c-2.076-2.59-4.906-3.884-8.49-3.884-3.327 0-6.136 1.124-8.427 3.37-2.289 2.247-3.433 5.191-3.433 8.834 0 3.64 1.144 6.583 3.433 8.83 2.291 2.246 5.1 3.37 8.427 3.37 3.669 0 6.798-1.48 9.387-4.437l2.73 2.73c-1.394 1.68-3.143 3.01-5.247 3.99-2.104.982-4.394 1.473-6.87 1.473zm19.117-12.116V352h-3.927v-20.907h3.753v3.414h.174c.397-1.138 1.215-2.077 2.453-2.817 1.236-.74 2.437-1.11 3.603-1.11 1.167 0 2.148.171 2.944.513l-1.494 3.67c-.51-.2-1.207-.3-2.09-.3-1.422 0-2.68.563-3.776 1.687-1.094 1.122-1.64 2.594-1.64 4.417zm17.32 12.116c-2.218 0-4.074-.64-5.567-1.92-1.493-1.28-2.24-2.972-2.24-5.076 0-2.276.882-4.061 2.647-5.357 1.762-1.293 3.937-1.94 6.526-1.94 2.305 0 4.196.427 5.674 1.28v-.597c0-1.537-.526-2.769-1.577-3.693-1.053-.924-2.348-1.387-3.883-1.387-1.138 0-2.17.271-3.094.814-.924.54-1.557 1.279-1.9 2.216l-3.583-1.536c.484-1.251 1.438-2.41 2.86-3.477 1.422-1.067 3.299-1.6 5.63-1.6 2.676 0 4.894.782 6.657 2.347 1.764 1.564 2.646 3.769 2.646 6.613V352h-3.756v-2.9h-.17c-1.565 2.389-3.855 3.583-6.87 3.583zm.64-3.583c1.622 0 3.094-.604 4.416-1.813 1.323-1.21 1.984-2.64 1.984-4.29-1.11-.91-2.773-1.364-4.99-1.364-1.907 0-3.344.413-4.31 1.237-.967.824-1.45 1.791-1.45 2.9 0 1.024.44 1.836 1.323 2.433.88.598 1.889.897 3.027.897zm21.72 3.583c-2.334 0-4.261-.569-5.784-1.706-1.522-1.138-2.639-2.56-3.35-4.267l3.5-1.45c1.11 2.616 3 3.923 5.674 3.923 1.224 0 2.227-.27 3.01-.81.782-.54 1.173-1.25 1.173-2.133 0-1.364-.953-2.289-2.86-2.773l-4.223-1.024c-1.338-.342-2.604-.99-3.797-1.943-1.196-.951-1.793-2.238-1.793-3.86 0-1.849.817-3.349 2.453-4.5 1.636-1.153 3.577-1.73 5.823-1.73 1.85 0 3.5.42 4.95 1.26 1.451.838 2.49 2.039 3.117 3.603l-3.413 1.41c-.77-1.849-2.363-2.773-4.78-2.773-1.167 0-2.148.241-2.944.723-.797.485-1.196 1.14-1.196 1.964 0 1.195.924 2.006 2.773 2.433l4.14.98c1.962.456 3.413 1.238 4.353 2.347.938 1.109 1.407 2.36 1.407 3.756 0 1.876-.768 3.44-2.303 4.694-1.536 1.25-3.513 1.876-5.93 1.876zM182.1 321.45h3.927v9.643l-.174 2.9h.174c.569-.995 1.464-1.84 2.686-2.536a7.792 7.792 0 0 1 3.927-1.047c2.587 0 4.563.797 5.93 2.39 1.364 1.593 2.047 3.727 2.047 6.4V352h-3.924v-12.203c0-3.87-1.72-5.804-5.163-5.804-1.622 0-2.946.648-3.97 1.944-1.022 1.293-1.533 2.793-1.533 4.5V352H182.1zm26.623 0V352H204.8v-30.55zm23.467 9.643l-13.097 30.124h-4.053l4.863-10.54-8.62-19.584h4.267l6.23 15.02h.087l6.056-15.02zm11.607 21.247c-2.191 0-3.863-.582-5.014-1.747-1.153-1.166-1.73-2.816-1.73-4.95v-10.966h-3.666v-3.584h3.666v-6.4h3.927v6.4h5.12v3.584h-5.12v10.666c0 2.276.939 3.414 2.817 3.414.71 0 1.307-.114 1.79-.34l1.366 3.37c-.853.369-1.905.553-3.156.553zm9.896-26.493a2.67 2.67 0 0 1-1.96.81c-.769 0-1.423-.27-1.963-.81a2.68 2.68 0 0 1-.81-1.964c0-.769.27-1.423.81-1.963s1.194-.81 1.963-.81c.767 0 1.42.27 1.96.81.543.54.814 1.194.814 1.963 0 .767-.271 1.421-.814 1.964zm0 5.246V352h-3.923v-20.907zm14.04 21.59c-3.129 0-5.703-1.06-7.723-3.18-2.02-2.117-3.03-4.77-3.03-7.956 0-3.187 1.01-5.84 3.03-7.957 2.02-2.12 4.594-3.18 7.723-3.18 2.331 0 4.265.569 5.8 1.707 1.538 1.137 2.663 2.574 3.374 4.31l-3.587 1.493c-1.08-2.618-3.028-3.927-5.843-3.927-1.736 0-3.265.711-4.587 2.134-1.322 1.422-1.983 3.229-1.983 5.42 0 2.19.66 3.997 1.983 5.42 1.322 1.422 2.851 2.133 4.587 2.133 2.929 0 4.947-1.309 6.056-3.927l3.5 1.494c-.71 1.706-1.855 3.135-3.433 4.286-1.58 1.154-3.536 1.73-5.867 1.73zm20.267 0c-2.333 0-4.261-.569-5.783-1.706-1.523-1.138-2.64-2.56-3.35-4.267l3.5-1.45c1.109 2.616 3 3.923 5.673 3.923 1.224 0 2.228-.27 3.01-.81.782-.54 1.173-1.25 1.173-2.133 0-1.364-.953-2.289-2.86-2.773l-4.223-1.024c-1.338-.342-2.603-.99-3.797-1.943-1.195-.951-1.793-2.238-1.793-3.86 0-1.849.818-3.349 2.453-4.5 1.636-1.153 3.577-1.73 5.824-1.73 1.849 0 3.499.42 4.95 1.26 1.45.838 2.49 2.039 3.116 3.603l-3.413 1.41c-.769-1.849-2.362-2.773-4.78-2.773-1.167 0-2.148.241-2.943.723-.798.485-1.197 1.14-1.197 1.964 0 1.195.924 2.006 2.773 2.433l4.14.98c1.963.456 3.414 1.238 4.354 2.347.937 1.109 1.406 2.36 1.406 3.756 0 1.876-.767 3.44-2.303 4.694-1.536 1.25-3.512 1.876-5.93 1.876z" fill="#fff"/>
  </g>
</svg>
