<svg xmlns="http://www.w3.org/2000/svg" width="684.84" height="464">
  <g fill="none">
    <path d="M0 0h684.84v464H0z"/>
    <path d="M282.647 218.934l17.428-111.546a4 4 0 0 1 7.477-1.275l18.74 34.96zm65.373 59.553a11.989 11.989 0 0 1-11.696-.02L278.42 246l104.636-104.825a3.994 3.994 0 0 1 6.771 2.164l8.292 51.302a46.308 46.308 0 0 0-7.699-.641c-25.405 0-46 20.595-46 46 0 12.856 5.274 24.48 13.775 32.827zm-68.016-42.567l58.877-105.032a3.999 3.999 0 0 1 7.081 0l13.406 25.525zM350.42 240c0-22.091 17.909-40 40-40s40 17.909 40 40-17.909 40-40 40-40-17.909-40-40zm28 16a6 6 0 0 0 6 6h16a6 6 0 0 0 6-6v-32a6 6 0 0 0-6-6h-16a6 6 0 0 0-6 6v4.166l4 1.668V224h20v32h-20v-5.774l-4 1.65zm-10-6l24-9.898-24-10.102v7.32l18 2.68-18 2.66zM99.923 338.9V352H96v-30.55h17.833v3.757h-13.91v10.026h12.544v3.667zm21.29-13.053a2.67 2.67 0 0 1-1.96.81c-.769 0-1.423-.27-1.963-.81a2.68 2.68 0 0 1-.81-1.964c0-.769.27-1.423.81-1.963s1.194-.81 1.963-.81c.767 0 1.42.27 1.96.81.543.54.814 1.194.814 1.963 0 .767-.271 1.421-.814 1.964zm0 5.246V352h-3.923v-20.907zm8.62 9.474V352h-3.926v-20.907h3.756v3.414h.17c.398-1.138 1.216-2.077 2.454-2.817 1.237-.74 2.44-1.11 3.606-1.11 1.165 0 2.146.171 2.944.513l-1.494 3.67c-.513-.2-1.21-.3-2.09-.3-1.422 0-2.68.563-3.776 1.687-1.096 1.122-1.644 2.594-1.644 4.417zm19.754 12.116c-3.156 0-5.723-1.052-7.7-3.156-1.978-2.107-2.967-4.767-2.967-7.98 0-3.045.96-5.661 2.88-7.85 1.92-2.191 4.373-3.287 7.36-3.287 3.102 0 5.584 1.01 7.447 3.03 1.862 2.02 2.793 4.722 2.793 8.107l-.04.726h-16.513c.113 2.105.817 3.768 2.113 4.99 1.293 1.225 2.808 1.837 4.543 1.837 2.816 0 4.721-1.196 5.717-3.587l3.5 1.454c-.684 1.62-1.809 2.977-3.373 4.073-1.565 1.096-3.485 1.643-5.76 1.643zm-6.484-13.653h12.117c-.084-1.196-.632-2.333-1.643-3.413-1.01-1.083-2.51-1.624-4.5-1.624-1.451 0-2.71.456-3.777 1.367-1.067.911-1.799 2.134-2.197 3.67zm30.507 13.653c-1.593 0-3.023-.34-4.29-1.023-1.264-.684-2.21-1.538-2.837-2.56h-.17v2.9h-3.753v-30.55h3.923v9.643l-.17 2.9h.17c.627-1.022 1.573-1.875 2.837-2.56 1.267-.682 2.697-1.023 4.29-1.023 2.702 0 5.034 1.067 6.997 3.2 1.962 2.133 2.943 4.779 2.943 7.937 0 3.157-.981 5.803-2.943 7.936-1.963 2.134-4.295 3.2-6.997 3.2zm-.64-3.583c1.82 0 3.384-.69 4.693-2.07 1.31-1.38 1.964-3.208 1.964-5.483 0-2.276-.655-4.104-1.964-5.484s-2.873-2.07-4.693-2.07c-1.849 0-3.421.684-4.717 2.05-1.293 1.365-1.94 3.2-1.94 5.504 0 2.304.647 4.139 1.94 5.503 1.296 1.367 2.868 2.05 4.717 2.05zm20.563 3.583c-2.217 0-4.073-.64-5.566-1.92-1.494-1.28-2.24-2.972-2.24-5.076 0-2.276.882-4.061 2.646-5.357 1.763-1.293 3.938-1.94 6.527-1.94 2.304 0 4.196.427 5.673 1.28v-.597c0-1.537-.525-2.769-1.576-3.693-1.054-.924-2.348-1.387-3.884-1.387-1.137 0-2.169.271-3.093.814-.924.54-1.558 1.279-1.9 2.216l-3.583-1.536c.484-1.251 1.437-2.41 2.86-3.477 1.422-1.067 3.299-1.6 5.63-1.6 2.675 0 4.894.782 6.656 2.347 1.765 1.564 2.647 3.769 2.647 6.613V352h-3.757v-2.9h-.17c-1.564 2.389-3.854 3.583-6.87 3.583zm.64-3.583c1.623 0 3.095-.604 4.417-1.813 1.322-1.21 1.983-2.64 1.983-4.29-1.109-.91-2.772-1.364-4.99-1.364-1.906 0-3.343.413-4.31 1.237-.966.824-1.45 1.791-1.45 2.9 0 1.024.441 1.836 1.324 2.433.88.598 1.889.897 3.026.897zm21.72 3.583c-2.333 0-4.26-.569-5.783-1.706-1.522-1.138-2.639-2.56-3.35-4.267l3.5-1.45c1.109 2.616 3 3.923 5.673 3.923 1.225 0 2.228-.27 3.01-.81.783-.54 1.174-1.25 1.174-2.133 0-1.364-.954-2.289-2.86-2.773l-4.224-1.024c-1.337-.342-2.603-.99-3.796-1.943-1.196-.951-1.794-2.238-1.794-3.86 0-1.849.818-3.349 2.454-4.5 1.635-1.153 3.576-1.73 5.823-1.73 1.849 0 3.499.42 4.95 1.26 1.451.838 2.49 2.039 3.117 3.603l-3.414 1.41c-.769-1.849-2.362-2.773-4.78-2.773-1.166 0-2.147.241-2.943.723-.798.485-1.197 1.14-1.197 1.964 0 1.195.925 2.006 2.774 2.433l4.14.98c1.962.456 3.413 1.238 4.353 2.347.938 1.109 1.407 2.36 1.407 3.756 0 1.876-.768 3.44-2.304 4.694-1.535 1.25-3.512 1.876-5.93 1.876zm21.334 0c-3.158 0-5.726-1.052-7.704-3.156-1.975-2.107-2.963-4.767-2.963-7.98 0-3.045.96-5.661 2.88-7.85 1.92-2.191 4.373-3.287 7.36-3.287 3.1 0 5.581 1.01 7.443 3.03 1.865 2.02 2.797 4.722 2.797 8.107l-.043.726h-16.514c.114 2.105.818 3.768 2.114 4.99 1.293 1.225 2.807 1.837 4.543 1.837 2.816 0 4.721-1.196 5.717-3.587l3.5 1.454c-.683 1.62-1.806 2.977-3.37 4.073-1.565 1.096-3.485 1.643-5.76 1.643zm-6.487-13.653h12.117c-.085-1.196-.633-2.333-1.644-3.413-1.009-1.083-2.509-1.624-4.5-1.624-1.45 0-2.71.456-3.776 1.367-1.067.911-1.8 2.134-2.197 3.67zM264.617 352h-3.924v-30.55h3.924zm4.61-20.907h3.753v2.9h.17c.569-.995 1.466-1.84 2.69-2.536a7.786 7.786 0 0 1 3.923-1.047c2.59 0 4.566.797 5.93 2.39 1.367 1.593 2.05 3.727 2.05 6.4V352h-3.926v-12.203c0-3.87-1.721-5.804-5.164-5.804-1.62 0-2.942.648-3.966 1.944-1.025 1.293-1.537 2.793-1.537 4.5V352h-3.923zm36.776 9.3H292.35v-3.24h13.653zM313.257 352h-4.35l11.52-30.55h4.436l11.52 30.55h-4.353l-2.943-8.277h-12.844zm9.303-25.727l-4.993 13.78h10.153l-4.99-13.78zm26.963 26.41c-1.593 0-3.022-.34-4.286-1.023-1.267-.684-2.213-1.538-2.837-2.56h-.173l.173 2.9v9.217h-3.927v-30.124h3.754v2.9h.173c.624-1.022 1.57-1.875 2.837-2.56 1.264-.682 2.693-1.023 4.286-1.023 2.703 0 5.035 1.067 6.997 3.2 1.964 2.133 2.947 4.779 2.947 7.937 0 3.157-.983 5.803-2.947 7.936-1.962 2.134-4.294 3.2-6.997 3.2zm-.64-3.583c1.82 0 3.385-.69 4.694-2.07 1.309-1.38 1.963-3.208 1.963-5.483 0-2.276-.654-4.104-1.963-5.484-1.31-1.38-2.874-2.07-4.694-2.07-1.849 0-3.42.684-4.713 2.05-1.296 1.365-1.943 3.2-1.943 5.504 0 2.304.647 4.139 1.943 5.503 1.293 1.367 2.864 2.05 4.713 2.05zm23.98 3.583c-1.593 0-3.023-.34-4.29-1.023-1.264-.684-2.21-1.538-2.836-2.56h-.17l.17 2.9v9.217h-3.924v-30.124h3.754v2.9h.17c.626-1.022 1.572-1.875 2.836-2.56 1.267-.682 2.697-1.023 4.29-1.023 2.703 0 5.035 1.067 6.997 3.2 1.962 2.133 2.943 4.779 2.943 7.937 0 3.157-.98 5.803-2.943 7.936-1.962 2.134-4.294 3.2-6.997 3.2zm-.64-3.583c1.82 0 3.385-.69 4.694-2.07 1.309-1.38 1.963-3.208 1.963-5.483 0-2.276-.654-4.104-1.963-5.484-1.31-1.38-2.874-2.07-4.694-2.07-1.849 0-3.42.684-4.716 2.05-1.294 1.365-1.94 3.2-1.94 5.504 0 2.304.646 4.139 1.94 5.503 1.295 1.367 2.867 2.05 4.716 2.05zm28.16 2.9h-3.926v-30.55h3.926l10.624 18.603h.17L421.8 321.45h3.927V352H421.8v-18.133l.173-5.12h-.173l-9.557 16.766h-2.303l-9.557-16.766h-.17l.17 5.12zm39.85.683c-3.157 0-5.724-1.052-7.7-3.156-1.977-2.107-2.966-4.767-2.966-7.98 0-3.045.96-5.661 2.88-7.85 1.92-2.191 4.373-3.287 7.36-3.287 3.1 0 5.582 1.01 7.446 3.03 1.863 2.02 2.794 4.722 2.794 8.107l-.044.726h-16.51c.114 2.105.817 3.768 2.11 4.99 1.296 1.225 2.81 1.837 4.544 1.837 2.817 0 4.724-1.196 5.72-3.587l3.496 1.454c-.682 1.62-1.805 2.977-3.37 4.073-1.564 1.096-3.484 1.643-5.76 1.643zm-6.486-13.653h12.12c-.087-1.196-.635-2.333-1.644-3.413-1.01-1.083-2.512-1.624-4.503-1.624-1.449 0-2.707.456-3.773 1.367-1.067.911-1.8 2.134-2.2 3.67zm27.223 13.653c-2.333 0-4.261-.569-5.783-1.706-1.52-1.138-2.636-2.56-3.347-4.267l3.497-1.45c1.109 2.616 3 3.923 5.676 3.923 1.223 0 2.225-.27 3.007-.81s1.173-1.25 1.173-2.133c0-1.364-.953-2.289-2.86-2.773l-4.223-1.024c-1.336-.342-2.601-.99-3.797-1.943-1.195-.951-1.793-2.238-1.793-3.86 0-1.849.818-3.349 2.453-4.5 1.636-1.153 3.578-1.73 5.827-1.73 1.849 0 3.498.42 4.947 1.26 1.45.838 2.49 2.039 3.116 3.603l-3.413 1.41c-.769-1.849-2.362-2.773-4.78-2.773-1.167 0-2.148.241-2.943.723-.796.485-1.194 1.14-1.194 1.964 0 1.195.925 2.006 2.774 2.433l4.136.98c1.963.456 3.414 1.238 4.354 2.347.937 1.109 1.406 2.36 1.406 3.756 0 1.876-.767 3.44-2.303 4.694-1.536 1.25-3.512 1.876-5.93 1.876zm18.987 0c-2.334 0-4.261-.569-5.784-1.706-1.52-1.138-2.635-2.56-3.346-4.267l3.496-1.45c1.11 2.616 3.001 3.923 5.677 3.923 1.222 0 2.224-.27 3.007-.81.782-.54 1.173-1.25 1.173-2.133 0-1.364-.953-2.289-2.86-2.773l-4.223-1.024c-1.336-.342-2.601-.99-3.797-1.943-1.196-.951-1.793-2.238-1.793-3.86 0-1.849.817-3.349 2.453-4.5 1.636-1.153 3.578-1.73 5.827-1.73 1.849 0 3.497.42 4.946 1.26 1.451.838 2.49 2.039 3.117 3.603l-3.413 1.41c-.77-1.849-2.363-2.773-4.78-2.773-1.167 0-2.148.241-2.944.723-.795.485-1.193 1.14-1.193 1.964 0 1.195.924 2.006 2.773 2.433l4.137.98c1.962.456 3.413 1.238 4.353 2.347.938 1.109 1.407 2.36 1.407 3.756 0 1.876-.768 3.44-2.303 4.694-1.536 1.25-3.513 1.876-5.93 1.876zm18.473 0c-2.218 0-4.073-.64-5.567-1.92-1.493-1.28-2.24-2.972-2.24-5.076 0-2.276.881-4.061 2.644-5.357 1.764-1.293 3.94-1.94 6.53-1.94 2.304 0 4.195.427 5.673 1.28v-.597c0-1.537-.526-2.769-1.577-3.693-1.053-.924-2.347-1.387-3.883-1.387-1.138 0-2.169.271-3.093.814-.925.54-1.558 1.279-1.9 2.216l-3.584-1.536c.485-1.251 1.438-2.41 2.86-3.477 1.423-1.067 3.3-1.6 5.63-1.6 2.674 0 4.893.782 6.657 2.347 1.764 1.564 2.647 3.769 2.647 6.613V352h-3.757v-2.9h-.17c-1.564 2.389-3.854 3.583-6.87 3.583zm.64-3.583c1.622 0 3.094-.604 4.417-1.813 1.322-1.21 1.983-2.64 1.983-4.29-1.109-.91-2.772-1.364-4.99-1.364-1.907 0-3.343.413-4.31 1.237-.967.824-1.45 1.791-1.45 2.9 0 1.024.44 1.836 1.32 2.433.882.598 1.892.897 3.03.897zm23.467 12.8c-2.474 0-4.493-.619-6.057-1.857-1.564-1.237-2.689-2.653-3.373-4.246l3.586-1.494c.398 1.138 1.13 2.091 2.197 2.86 1.067.767 2.282 1.15 3.647 1.15 2.162 0 3.862-.646 5.1-1.94 1.237-1.293 1.856-3.05 1.856-5.27V349.1h-.173c-.682 1.022-1.649 1.876-2.9 2.56-1.251.682-2.659 1.023-4.223 1.023-2.703 0-5.035-1.066-6.997-3.2-1.964-2.133-2.947-4.779-2.947-7.936 0-3.158.983-5.804 2.947-7.937 1.962-2.133 4.294-3.2 6.997-3.2 1.564 0 2.972.341 4.223 1.023 1.251.685 2.218 1.538 2.9 2.56h.173v-2.9h3.754v19.84c0 3.585-1.038 6.308-3.114 8.17-2.077 1.865-4.61 2.797-7.596 2.797zm.3-12.8c1.849 0 3.42-.683 4.713-2.05 1.296-1.364 1.943-3.199 1.943-5.503 0-2.305-.647-4.14-1.943-5.504-1.293-1.366-2.864-2.05-4.713-2.05-1.82 0-3.385.69-4.694 2.07-1.309 1.38-1.963 3.208-1.963 5.484 0 2.275.654 4.103 1.963 5.483 1.31 1.38 2.874 2.07 4.694 2.07zm18.816-23.253a2.68 2.68 0 0 1-1.963.81c-.769 0-1.423-.27-1.963-.81a2.68 2.68 0 0 1-.81-1.964c0-.769.27-1.423.81-1.963s1.194-.81 1.963-.81c.767 0 1.421.27 1.963.81.54.54.81 1.194.81 1.963a2.68 2.68 0 0 1-.81 1.964zm0 5.246V352h-3.926v-20.907zm4.694 0h3.753v2.9h.17c.569-.995 1.466-1.84 2.69-2.536a7.786 7.786 0 0 1 3.923-1.047c2.59 0 4.566.797 5.93 2.39 1.367 1.593 2.05 3.727 2.05 6.4V352h-3.926v-12.203c0-3.87-1.721-5.804-5.164-5.804-1.62 0-2.942.648-3.966 1.944-1.025 1.293-1.537 2.793-1.537 4.5V352h-3.923zm31.786 30.807c-2.475 0-4.495-.619-6.06-1.857-1.564-1.237-2.687-2.653-3.37-4.246l3.584-1.494c.397 1.138 1.13 2.091 2.196 2.86 1.067.767 2.284 1.15 3.65 1.15 2.16 0 3.86-.646 5.097-1.94 1.238-1.293 1.857-3.05 1.857-5.27V349.1h-.17c-.683 1.022-1.65 1.876-2.904 2.56-1.25.682-2.659 1.023-4.223 1.023-2.702 0-5.034-1.066-6.997-3.2-1.962-2.133-2.943-4.779-2.943-7.936 0-3.158.981-5.804 2.943-7.937 1.963-2.133 4.295-3.2 6.997-3.2 1.564 0 2.972.341 4.223 1.023 1.254.685 2.221 1.538 2.904 2.56h.17v-2.9h3.753v19.84c0 3.585-1.038 6.308-3.113 8.17-2.076 1.865-4.607 2.797-7.594 2.797zm.297-12.8c1.849 0 3.421-.683 4.717-2.05 1.293-1.364 1.94-3.199 1.94-5.503 0-2.305-.647-4.14-1.94-5.504-1.296-1.366-2.868-2.05-4.717-2.05-1.82 0-3.384.69-4.693 2.07-1.31 1.38-1.964 3.208-1.964 5.484 0 2.275.655 4.103 1.964 5.483s2.873 2.07 4.693 2.07z" fill="#fff"/>
  </g>
</svg>
