<svg xmlns="http://www.w3.org/2000/svg" width="520.147" height="464">
  <g fill="none">
    <path d="M0 0h520.147v464H0z"/>
    <circle cx="260.073" cy="192" r="96" fill="#ff8a65"/>
    <path d="M232.073 219.71l9.334-3.85v13.473h46.666v-74.666h-46.666v13.612l-9.334-3.892v-9.72c0-7.732 6.268-14 14-14h37.334c7.732 0 14 6.268 14 14v74.666c0 7.732-6.268 14-14 14h-37.334c-7.732 0-14-6.268-14-14zm-23.333-21.503l42-6.207-42-6.253v-17.08l56 23.571-56 23.095z" fill="#fff" fill-rule="evenodd"/>
    <path d="M99.923 352H96v-30.55h3.923zm4.61-20.907h3.754v2.9h.17c.569-.995 1.465-1.84 2.69-2.536a7.786 7.786 0 0 1 3.923-1.047c2.589 0 4.566.797 5.93 2.39 1.367 1.593 2.05 3.727 2.05 6.4V352h-3.927v-12.203c0-3.87-1.72-5.804-5.163-5.804-1.62 0-2.942.648-3.967 1.944-1.024 1.293-1.536 2.793-1.536 4.5V352h-3.924zm36.777 9.3h-13.653v-3.24h13.653zM148.563 352h-4.35l11.52-30.55h4.437L171.69 352h-4.353l-2.944-8.277H151.55zm9.304-25.727l-4.994 13.78h10.154l-4.99-13.78zm26.963 26.41c-1.593 0-3.022-.34-4.287-1.023-1.266-.684-2.212-1.538-2.836-2.56h-.174l.174 2.9v9.217h-3.927v-30.124h3.753v2.9h.174c.624-1.022 1.57-1.875 2.836-2.56 1.265-.682 2.694-1.023 4.287-1.023 2.702 0 5.034 1.067 6.997 3.2 1.964 2.133 2.946 4.779 2.946 7.937 0 3.157-.982 5.803-2.946 7.936-1.963 2.134-4.295 3.2-6.997 3.2zm-.64-3.583c1.82 0 3.384-.69 4.693-2.07 1.31-1.38 1.964-3.208 1.964-5.483 0-2.276-.655-4.104-1.964-5.484s-2.873-2.07-4.693-2.07c-1.849 0-3.42.684-4.713 2.05-1.296 1.365-1.944 3.2-1.944 5.504 0 2.304.648 4.139 1.944 5.503 1.293 1.367 2.864 2.05 4.713 2.05zm23.98 3.583c-1.593 0-3.023-.34-4.29-1.023-1.264-.684-2.21-1.538-2.837-2.56h-.17l.17 2.9v9.217h-3.923v-30.124h3.753v2.9h.17c.627-1.022 1.573-1.875 2.837-2.56 1.267-.682 2.697-1.023 4.29-1.023 2.702 0 5.034 1.067 6.997 3.2 1.962 2.133 2.943 4.779 2.943 7.937 0 3.157-.981 5.803-2.943 7.936-1.963 2.134-4.295 3.2-6.997 3.2zm-.64-3.583c1.82 0 3.384-.69 4.693-2.07 1.31-1.38 1.964-3.208 1.964-5.483 0-2.276-.655-4.104-1.964-5.484s-2.873-2.07-4.693-2.07c-1.849 0-3.421.684-4.717 2.05-1.293 1.365-1.94 3.2-1.94 5.504 0 2.304.647 4.139 1.94 5.503 1.296 1.367 2.868 2.05 4.717 2.05zm28.16 2.9h-3.927v-30.55h3.927l10.623 18.603h.17l10.624-18.603h3.926V352h-3.926v-18.133l.173-5.12h-.173l-9.557 16.766h-2.303l-9.557-16.766h-.17l.17 5.12zm39.85.683c-3.158 0-5.724-1.052-7.7-3.156-1.978-2.107-2.967-4.767-2.967-7.98 0-3.045.96-5.661 2.88-7.85 1.92-2.191 4.374-3.287 7.36-3.287 3.1 0 5.583 1.01 7.447 3.03 1.862 2.02 2.793 4.722 2.793 8.107l-.043.726H268.8c.113 2.105.817 3.768 2.11 4.99 1.296 1.225 2.81 1.837 4.543 1.837 2.818 0 4.725-1.196 5.72-3.587l3.497 1.454c-.682 1.62-1.806 2.977-3.37 4.073-1.564 1.096-3.484 1.643-5.76 1.643zm-6.487-13.653h12.12c-.086-1.196-.634-2.333-1.643-3.413-1.011-1.083-2.512-1.624-4.503-1.624-1.45 0-2.707.456-3.774 1.367-1.066.911-1.8 2.134-2.2 3.67zm27.224 13.653c-2.334 0-4.261-.569-5.784-1.706-1.52-1.138-2.635-2.56-3.346-4.267l3.496-1.45c1.11 2.616 3.001 3.923 5.677 3.923 1.222 0 2.224-.27 3.007-.81.782-.54 1.173-1.25 1.173-2.133 0-1.364-.953-2.289-2.86-2.773l-4.223-1.024c-1.336-.342-2.601-.99-3.797-1.943-1.196-.951-1.793-2.238-1.793-3.86 0-1.849.817-3.349 2.453-4.5 1.636-1.153 3.578-1.73 5.827-1.73 1.849 0 3.497.42 4.946 1.26 1.451.838 2.49 2.039 3.117 3.603l-3.413 1.41c-.77-1.849-2.363-2.773-4.78-2.773-1.167 0-2.148.241-2.944.723-.795.485-1.193 1.14-1.193 1.964 0 1.195.924 2.006 2.773 2.433l4.137.98c1.962.456 3.413 1.238 4.353 2.347.938 1.109 1.407 2.36 1.407 3.756 0 1.876-.768 3.44-2.303 4.694-1.536 1.25-3.513 1.876-5.93 1.876zm18.986 0c-2.333 0-4.26-.569-5.783-1.706-1.52-1.138-2.636-2.56-3.347-4.267l3.497-1.45c1.109 2.616 3.001 3.923 5.677 3.923 1.222 0 2.224-.27 3.006-.81.783-.54 1.174-1.25 1.174-2.133 0-1.364-.954-2.289-2.86-2.773l-4.224-1.024c-1.335-.342-2.6-.99-3.796-1.943-1.196-.951-1.794-2.238-1.794-3.86 0-1.849.818-3.349 2.454-4.5 1.635-1.153 3.577-1.73 5.826-1.73 1.85 0 3.498.42 4.947 1.26 1.451.838 2.49 2.039 3.117 3.603l-3.414 1.41c-.769-1.849-2.362-2.773-4.78-2.773-1.166 0-2.147.241-2.943.723-.796.485-1.193 1.14-1.193 1.964 0 1.195.924 2.006 2.773 2.433l4.137.98c1.962.456 3.413 1.238 4.353 2.347.938 1.109 1.407 2.36 1.407 3.756 0 1.876-.768 3.44-2.304 4.694-1.535 1.25-3.512 1.876-5.93 1.876zm18.474 0c-2.218 0-4.074-.64-5.567-1.92-1.493-1.28-2.24-2.972-2.24-5.076 0-2.276.881-4.061 2.643-5.357 1.765-1.293 3.941-1.94 6.53-1.94 2.305 0 4.196.427 5.674 1.28v-.597c0-1.537-.526-2.769-1.577-3.693-1.053-.924-2.348-1.387-3.883-1.387-1.138 0-2.17.271-3.094.814-.924.54-1.557 1.279-1.9 2.216l-3.583-1.536c.484-1.251 1.438-2.41 2.86-3.477 1.422-1.067 3.299-1.6 5.63-1.6 2.673 0 4.892.782 6.657 2.347 1.764 1.564 2.646 3.769 2.646 6.613V352h-3.756v-2.9h-.17c-1.565 2.389-3.855 3.583-6.87 3.583zm.64-3.583c1.622 0 3.094-.604 4.416-1.813 1.323-1.21 1.984-2.64 1.984-4.29-1.11-.91-2.773-1.364-4.99-1.364-1.907 0-3.344.413-4.31 1.237-.967.824-1.45 1.791-1.45 2.9 0 1.024.44 1.836 1.32 2.433.882.598 1.892.897 3.03.897zm23.466 12.8c-2.473 0-4.492-.619-6.056-1.857-1.565-1.237-2.69-2.653-3.374-4.246l3.587-1.494c.398 1.138 1.13 2.091 2.197 2.86 1.066.767 2.282 1.15 3.646 1.15 2.163 0 3.863-.646 5.1-1.94 1.238-1.293 1.857-3.05 1.857-5.27V349.1h-.173c-.683 1.022-1.65 1.876-2.9 2.56-1.251.682-2.66 1.023-4.224 1.023-2.702 0-5.034-1.066-6.996-3.2-1.965-2.133-2.947-4.779-2.947-7.936 0-3.158.982-5.804 2.947-7.937 1.962-2.133 4.294-3.2 6.996-3.2 1.565 0 2.973.341 4.224 1.023 1.25.685 2.217 1.538 2.9 2.56h.173v-2.9h3.753v19.84c0 3.585-1.037 6.308-3.113 8.17-2.078 1.865-4.61 2.797-7.597 2.797zm.3-12.8c1.85 0 3.42-.683 4.714-2.05 1.295-1.364 1.943-3.199 1.943-5.503 0-2.305-.648-4.14-1.943-5.504-1.294-1.366-2.865-2.05-4.714-2.05-1.82 0-3.384.69-4.693 2.07-1.309 1.38-1.963 3.208-1.963 5.484 0 2.275.654 4.103 1.963 5.483 1.309 1.38 2.873 2.07 4.693 2.07zm18.817-23.253a2.68 2.68 0 0 1-1.963.81c-.77 0-1.424-.27-1.964-.81a2.68 2.68 0 0 1-.81-1.964c0-.769.27-1.423.81-1.963s1.195-.81 1.964-.81c.766 0 1.42.27 1.963.81.54.54.81 1.194.81 1.963a2.68 2.68 0 0 1-.81 1.964zm0 5.246V352h-3.927v-20.907zm4.693 0h3.754v2.9h.17c.569-.995 1.465-1.84 2.69-2.536a7.786 7.786 0 0 1 3.923-1.047c2.589 0 4.566.797 5.93 2.39 1.367 1.593 2.05 3.727 2.05 6.4V352h-3.927v-12.203c0-3.87-1.72-5.804-5.163-5.804-1.62 0-2.942.648-3.967 1.944-1.024 1.293-1.536 2.793-1.536 4.5V352h-3.924zM413.44 361.9c-2.476 0-4.496-.619-6.06-1.857-1.564-1.237-2.688-2.653-3.37-4.246l3.583-1.494c.398 1.138 1.13 2.091 2.197 2.86 1.067.767 2.283 1.15 3.65 1.15 2.16 0 3.859-.646 5.097-1.94 1.237-1.293 1.856-3.05 1.856-5.27V349.1h-.17c-.682 1.022-1.65 1.876-2.903 2.56-1.251.682-2.659 1.023-4.223 1.023-2.703 0-5.035-1.066-6.997-3.2-1.962-2.133-2.943-4.779-2.943-7.936 0-3.158.98-5.804 2.943-7.937 1.962-2.133 4.294-3.2 6.997-3.2 1.564 0 2.972.341 4.223 1.023 1.253.685 2.221 1.538 2.903 2.56h.17v-2.9h3.754v19.84c0 3.585-1.038 6.308-3.114 8.17-2.075 1.865-4.606 2.797-7.593 2.797zm.297-12.8c1.849 0 3.42-.683 4.716-2.05 1.294-1.364 1.94-3.199 1.94-5.503 0-2.305-.646-4.14-1.94-5.504-1.295-1.366-2.867-2.05-4.716-2.05-1.82 0-3.385.69-4.694 2.07-1.309 1.38-1.963 3.208-1.963 5.484 0 2.275.654 4.103 1.963 5.483 1.31 1.38 2.874 2.07 4.694 2.07z" fill="#fff"/>
  </g>
</svg>
