<svg xmlns="http://www.w3.org/2000/svg" width="485.93" height="464">
  <g fill="none">
    <path d="M0 0h485.93v464H0z"/>
    <circle cx="242.965" cy="192" r="96" fill="#ffca28"/>
    <path d="M280.331 214.195v-44.38l-15.717-15.718 9.888-9.893L294.298 164v50.26l-.032.019v5.735l-19.778 19.782-9.874-9.88zm-74.732-.014l15.717 15.722-9.888 9.893L191.632 220v-50.26l.032-.019v-5.735l19.778-19.782 9.874 9.88-15.717 15.721v44.38zm16.37-15.167a7.021 7.021 0 1 1 7.02-7.023 7.019 7.019 0 0 1-7.02 7.018zm20.991 0a7.021 7.021 0 1 1 7.019-7.023 7.019 7.019 0 0 1-7.019 7.018zm20.991 0a7.021 7.021 0 1 1 7.019-7.023 7.019 7.019 0 0 1-7.019 7.018z" fill="#fff" fill-rule="evenodd"/>
    <path d="M111.87 352.683c-4.493 0-8.262-1.522-11.307-4.566-3.042-3.043-4.563-6.84-4.563-11.39 0-4.551 1.521-8.35 4.563-11.394 3.045-3.044 6.814-4.566 11.307-4.566 4.609 0 8.35 1.664 11.223 4.993l-2.733 2.647c-2.076-2.59-4.906-3.884-8.49-3.884-3.327 0-6.136 1.124-8.427 3.37-2.289 2.247-3.433 5.191-3.433 8.834 0 3.64 1.144 6.583 3.433 8.83 2.291 2.246 5.1 3.37 8.427 3.37 3.669 0 6.798-1.48 9.387-4.437l2.73 2.73c-1.394 1.68-3.143 3.01-5.247 3.99-2.104.982-4.394 1.473-6.87 1.473zm19.117-31.233V352h-3.927v-30.55zm6.186 12.14c2.018-2.12 4.591-3.18 7.72-3.18 3.13 0 5.704 1.06 7.724 3.18 2.02 2.118 3.03 4.77 3.03 7.957 0 3.186-1.01 5.839-3.03 7.956-2.02 2.12-4.595 3.18-7.724 3.18-3.129 0-5.702-1.06-7.72-3.18-2.02-2.117-3.03-4.77-3.03-7.956 0-3.187 1.01-5.84 3.03-7.957zm2.92 13.44c1.351 1.38 2.951 2.07 4.8 2.07 1.85 0 3.45-.69 4.8-2.07 1.351-1.38 2.027-3.208 2.027-5.483 0-2.276-.676-4.104-2.027-5.484-1.35-1.38-2.95-2.07-4.8-2.07-1.849 0-3.449.69-4.8 2.07-1.35 1.38-2.026 3.208-2.026 5.484 0 2.275.675 4.103 2.026 5.483zm37.057-15.937V352h-3.753v-2.9h-.17c-.598.996-1.51 1.841-2.734 2.537a7.707 7.707 0 0 1-3.88 1.046c-2.617 0-4.602-.796-5.953-2.39-1.351-1.593-2.027-3.726-2.027-6.4v-12.8h3.927v12.16c0 3.898 1.72 5.847 5.16 5.847 1.622 0 2.946-.654 3.97-1.963 1.024-1.31 1.537-2.817 1.537-4.524v-11.52zm13.1 21.59c-2.702 0-5.034-1.066-6.997-3.2-1.964-2.133-2.946-4.779-2.946-7.936 0-3.158.982-5.804 2.946-7.937 1.963-2.133 4.295-3.2 6.997-3.2 1.593 0 3.022.341 4.287 1.023 1.266.685 2.212 1.538 2.836 2.56h.174l-.174-2.9v-9.643h3.927V352h-3.753v-2.9h-.174c-.624 1.022-1.57 1.876-2.836 2.56-1.265.682-2.694 1.023-4.287 1.023zm.64-3.583c1.849 0 3.42-.683 4.713-2.05 1.296-1.364 1.944-3.199 1.944-5.503 0-2.305-.648-4.14-1.944-5.504-1.293-1.366-2.864-2.05-4.713-2.05-1.82 0-3.384.69-4.693 2.07-1.31 1.38-1.964 3.208-1.964 5.484 0 2.275.655 4.103 1.964 5.483s2.873 2.07 4.693 2.07zm29.183-10.2V352h-3.926v-30.55h17.836v3.757h-13.91v10.026h12.544v3.667zm35.157-7.807V352h-3.753v-2.9h-.17c-.598.996-1.51 1.841-2.734 2.537a7.707 7.707 0 0 1-3.88 1.046c-2.617 0-4.602-.796-5.953-2.39-1.351-1.593-2.027-3.726-2.027-6.4v-12.8h3.927v12.16c0 3.898 1.72 5.847 5.16 5.847 1.622 0 2.946-.654 3.97-1.963 1.024-1.31 1.537-2.817 1.537-4.524v-11.52zm4.78 0h3.753v2.9h.17c.57-.995 1.466-1.84 2.69-2.536a7.786 7.786 0 0 1 3.924-1.047c2.589 0 4.566.797 5.933 2.39 1.364 1.593 2.047 3.727 2.047 6.4V352H274.6v-12.203c0-3.87-1.72-5.804-5.16-5.804-1.622 0-2.946.648-3.97 1.944-1.024 1.293-1.537 2.793-1.537 4.5V352h-3.923zm32.257 21.59c-3.13 0-5.704-1.06-7.724-3.18-2.02-2.117-3.03-4.77-3.03-7.956 0-3.187 1.01-5.84 3.03-7.957 2.02-2.12 4.595-3.18 7.724-3.18 2.33 0 4.264.569 5.8 1.707 1.537 1.137 2.662 2.574 3.373 4.31l-3.587 1.493c-1.08-2.618-3.027-3.927-5.843-3.927-1.736 0-3.264.711-4.587 2.134-1.322 1.422-1.983 3.229-1.983 5.42 0 2.19.661 3.997 1.983 5.42 1.323 1.422 2.851 2.133 4.587 2.133 2.929 0 4.948-1.309 6.057-3.927l3.5 1.494c-.711 1.706-1.856 3.135-3.434 4.286-1.58 1.154-3.535 1.73-5.866 1.73zm21.12-.343c-2.191 0-3.863-.582-5.014-1.747-1.153-1.166-1.73-2.816-1.73-4.95v-10.966h-3.67v-3.584h3.67v-6.4h3.927v6.4h5.12v3.584h-5.12v10.666c0 2.276.939 3.414 2.817 3.414.71 0 1.307-.114 1.79-.34l1.366 3.37c-.853.369-1.905.553-3.156.553zm9.896-26.493c-.54.54-1.194.81-1.963.81a2.67 2.67 0 0 1-1.96-.81 2.675 2.675 0 0 1-.813-1.964c0-.769.27-1.423.813-1.963a2.67 2.67 0 0 1 1.96-.81c.769 0 1.423.27 1.963.81s.81 1.194.81 1.963a2.68 2.68 0 0 1-.81 1.964zm0 5.246V352h-3.923v-20.907zm6.317 2.497c2.018-2.12 4.591-3.18 7.72-3.18 3.129 0 5.703 1.06 7.723 3.18 2.02 2.118 3.03 4.77 3.03 7.957 0 3.186-1.01 5.839-3.03 7.956-2.02 2.12-4.594 3.18-7.723 3.18-3.129 0-5.702-1.06-7.72-3.18-2.02-2.117-3.03-4.77-3.03-7.956 0-3.187 1.01-5.84 3.03-7.957zm2.92 13.44c1.351 1.38 2.951 2.07 4.8 2.07 1.849 0 3.449-.69 4.8-2.07s2.027-3.208 2.027-5.483c0-2.276-.676-4.104-2.027-5.484s-2.951-2.07-4.8-2.07c-1.849 0-3.449.69-4.8 2.07s-2.027 3.208-2.027 5.484c0 2.275.676 4.103 2.027 5.483zm18.71-15.937h3.757v2.9h.17c.569-.995 1.464-1.84 2.686-2.536a7.804 7.804 0 0 1 3.927-1.047c2.589 0 4.566.797 5.93 2.39 1.364 1.593 2.047 3.727 2.047 6.4V352h-3.924v-12.203c0-3.87-1.72-5.804-5.163-5.804-1.622 0-2.944.648-3.967 1.944-1.024 1.293-1.536 2.793-1.536 4.5V352h-3.927zm30.463 21.59c-2.33 0-4.257-.569-5.78-1.706-1.522-1.138-2.639-2.56-3.35-4.267l3.5-1.45c1.11 2.616 3 3.923 5.674 3.923 1.224 0 2.227-.27 3.01-.81.782-.54 1.173-1.25 1.173-2.133 0-1.364-.953-2.289-2.86-2.773l-4.223-1.024c-1.338-.342-2.604-.99-3.797-1.943-1.196-.951-1.793-2.238-1.793-3.86 0-1.849.817-3.349 2.453-4.5 1.636-1.153 3.577-1.73 5.823-1.73 1.85 0 3.5.42 4.95 1.26 1.451.838 2.49 2.039 3.114 3.603l-3.414 1.41c-.766-1.849-2.359-2.773-4.776-2.773-1.167 0-2.148.241-2.944.723-.797.485-1.196 1.14-1.196 1.964 0 1.195.924 2.006 2.773 2.433l4.14.98c1.962.456 3.412 1.238 4.35 2.347.94 1.109 1.41 2.36 1.41 3.756 0 1.876-.768 3.44-2.303 4.694-1.538 1.25-3.516 1.876-5.934 1.876z" fill="#fff"/>
  </g>
</svg>
