<svg xmlns="http://www.w3.org/2000/svg" width="192" height="192">
  <g fill="none">
    <path d="M0 0h192v192H0z"/>
    <path d="M36.227 122.934L53.655 11.388a4 4 0 0 1 7.477-1.275l18.74 34.96zm65.373 59.553a11.989 11.989 0 0 1-11.696-.02L32 150 136.636 45.175a3.994 3.994 0 0 1 6.771 2.164l8.292 51.302A46.308 46.308 0 0 0 144 98c-25.405 0-46 20.595-46 46 0 12.856 5.274 24.48 13.775 32.827zM33.584 139.92L92.461 34.888a3.999 3.999 0 0 1 7.081 0l13.406 25.525zM104 144c0-22.091 17.909-40 40-40s40 17.909 40 40-17.909 40-40 40-40-17.909-40-40zm49.278 16.25l4.232 4.234 8.476-8.478v-2.458l.014-.008V132l-8.484-8.484-4.238 4.24 6.736 6.736v19.02zm-25.292-25.762l6.736-6.738-4.232-4.234-8.476 8.478v2.458l-.014.008V156l8.484 8.484 4.238-4.24-6.736-6.738zm7.016 12.516a3.008 3.008 0 1 0-3.009-3.007 3.009 3.009 0 0 0 3.009 3.009zm8.996 0a3.008 3.008 0 1 0-3.009-3.007 3.009 3.009 0 0 0 3.009 3.009zm8.996 0a3.008 3.008 0 1 0-3.009-3.007 3.009 3.009 0 0 0 3.009 3.009z" fill="#fff"/>
  </g>
</svg>
