<svg xmlns="http://www.w3.org/2000/svg" width="192" height="192">
  <g fill="none">
    <path d="M0 0h192v192H0z"/>
    <path d="M36.227 122.934L53.655 11.388a4 4 0 0 1 7.477-1.275l18.74 34.96zm65.373 59.553a11.989 11.989 0 0 1-11.696-.02L32 150 136.636 45.175a3.994 3.994 0 0 1 6.771 2.164l8.292 51.302A46.308 46.308 0 0 0 144 98c-25.405 0-46 20.595-46 46 0 12.856 5.274 24.48 13.775 32.827zM33.584 139.92L92.461 34.888a3.999 3.999 0 0 1 7.081 0l13.406 25.525zM104 144c0-22.091 17.909-40 40-40s40 17.909 40 40-17.909 40-40 40-40-17.909-40-40zm48-2c3.32 0 5.98-2.68 5.98-6s-2.66-6-5.98-6c-3.32 0-6 2.68-6 6s2.68 6 6 6zm-16 0c3.32 0 5.98-2.68 5.98-6s-2.66-6-5.98-6c-3.32 0-6 2.68-6 6s2.68 6 6 6zm0 4c-4.66 0-14 2.34-14 7v5h28v-5c0-4.66-9.34-7-14-7zm16 0c-.58 0-1.24.04-1.94.1 2.32 1.68 3.94 3.94 3.94 6.9v5h12v-5c0-4.66-9.34-7-14-7z" fill="#fff"/>
  </g>
</svg>
