<svg xmlns="http://www.w3.org/2000/svg" width="458.197" height="464">
  <g fill="none">
    <path d="M0 0h458.197v464H0z"/>
    <circle cx="229.098" cy="192" r="96" fill="#ffca28"/>
    <path d="M247.765 187.333c7.747 0 13.953-6.253 13.953-14 0-7.746-6.206-14-13.953-14-7.747 0-14 6.254-14 14 0 7.747 6.253 14 14 14zm-37.333 0c7.746 0 13.953-6.253 13.953-14 0-7.746-6.207-14-13.953-14-7.747 0-14 6.254-14 14 0 7.747 6.253 14 14 14zm0 9.334c-10.874 0-32.667 5.46-32.667 16.333v11.667h65.333V213c0-10.873-21.793-16.333-32.666-16.333zm37.333 0c-1.353 0-2.893.093-4.527.233 5.414 3.92 9.194 9.193 9.194 16.1v11.667h28V213c0-10.873-21.794-16.333-32.667-16.333z" fill="#fff" fill-rule="evenodd"/>
    <path d="M100.35 352H96l11.52-30.55h4.437l11.52 30.55h-4.354l-2.943-8.277h-12.843zm9.303-25.727l-4.993 13.78h10.153l-4.99-13.78zm34.43 4.82V352h-3.753v-2.9h-.17c-.598.996-1.509 1.841-2.733 2.537a7.707 7.707 0 0 1-3.88 1.046c-2.618 0-4.603-.796-5.954-2.39-1.35-1.593-2.026-3.726-2.026-6.4v-12.8h3.926v12.16c0 3.898 1.72 5.847 5.16 5.847 1.623 0 2.946-.654 3.97-1.963 1.025-1.31 1.537-2.817 1.537-4.524v-11.52zm13.61 21.247c-2.189 0-3.86-.582-5.013-1.747-1.151-1.166-1.727-2.816-1.727-4.95v-10.966h-3.67v-3.584h3.67v-6.4h3.927v6.4H160v3.584h-5.12v10.666c0 2.276.938 3.414 2.813 3.414.711 0 1.31-.114 1.794-.34l1.366 3.37c-.853.369-1.906.553-3.16.553zm5.634-30.89h3.926v9.643l-.173 2.9h.173c.57-.995 1.465-1.84 2.687-2.536a7.792 7.792 0 0 1 3.927-1.047c2.586 0 4.563.797 5.93 2.39 1.364 1.593 2.046 3.727 2.046 6.4V352h-3.923v-12.203c0-3.87-1.721-5.804-5.163-5.804-1.623 0-2.946.648-3.97 1.944-1.023 1.293-1.534 2.793-1.534 4.5V352h-3.926zm32.17 31.233c-3.158 0-5.725-1.052-7.7-3.156-1.978-2.107-2.967-4.767-2.967-7.98 0-3.045.96-5.661 2.88-7.85 1.92-2.191 4.373-3.287 7.36-3.287 3.1 0 5.582 1.01 7.447 3.03 1.862 2.02 2.793 4.722 2.793 8.107l-.043.726h-16.51c.113 2.105.816 3.768 2.11 4.99 1.295 1.225 2.81 1.837 4.546 1.837 2.816 0 4.721-1.196 5.717-3.587l3.497 1.454c-.683 1.62-1.806 2.977-3.37 4.073-1.565 1.096-3.485 1.643-5.76 1.643zm-6.484-13.653h12.117c-.087-1.196-.634-2.333-1.643-3.413-1.01-1.083-2.51-1.624-4.5-1.624-1.451 0-2.71.456-3.777 1.367-1.067.911-1.799 2.134-2.197 3.67zm19.454-7.937h3.756v2.9h.17c.57-.995 1.465-1.84 2.687-2.536a7.804 7.804 0 0 1 3.927-1.047c2.589 0 4.565.797 5.93 2.39 1.366 1.593 2.05 3.727 2.05 6.4V352h-3.927v-12.203c0-3.87-1.721-5.804-5.163-5.804-1.62 0-2.943.648-3.967 1.944-1.024 1.293-1.537 2.793-1.537 4.5V352h-3.926zm31.106 21.247c-2.19 0-3.862-.582-5.013-1.747-1.153-1.166-1.73-2.816-1.73-4.95v-10.966h-3.67v-3.584h3.67v-6.4h3.927v6.4h5.12v3.584h-5.12v10.666c0 2.276.939 3.414 2.816 3.414.711 0 1.308-.114 1.79-.34l1.367 3.37c-.853.369-1.906.553-3.157.553zm9.897-26.493c-.54.54-1.194.81-1.963.81a2.67 2.67 0 0 1-1.96-.81 2.675 2.675 0 0 1-.814-1.964c0-.769.271-1.423.814-1.963a2.67 2.67 0 0 1 1.96-.81c.769 0 1.423.27 1.963.81s.81 1.194.81 1.963a2.68 2.68 0 0 1-.81 1.964zm0 5.246V352h-3.923v-20.907zm14.037 21.59c-3.13 0-5.703-1.06-7.72-3.18-2.02-2.117-3.03-4.77-3.03-7.956 0-3.187 1.01-5.84 3.03-7.957 2.017-2.12 4.59-3.18 7.72-3.18 2.333 0 4.267.569 5.803 1.707 1.536 1.137 2.659 2.574 3.37 4.31l-3.583 1.493c-1.08-2.618-3.028-3.927-5.844-3.927-1.735 0-3.264.711-4.586 2.134-1.325 1.422-1.987 3.229-1.987 5.42 0 2.19.662 3.997 1.987 5.42 1.322 1.422 2.85 2.133 4.586 2.133 2.93 0 4.948-1.309 6.057-3.927l3.5 1.494c-.711 1.706-1.857 3.135-3.437 4.286-1.577 1.154-3.533 1.73-5.866 1.73zm19.116 0c-2.22 0-4.076-.64-5.57-1.92-1.493-1.28-2.24-2.972-2.24-5.076 0-2.276.883-4.061 2.647-5.357 1.764-1.293 3.94-1.94 6.527-1.94 2.304 0 4.196.427 5.676 1.28v-.597c0-1.537-.526-2.769-1.58-3.693-1.05-.924-2.345-1.387-3.883-1.387-1.138 0-2.169.271-3.093.814-.925.54-1.557 1.279-1.897 2.216l-3.583-1.536c.482-1.251 1.434-2.41 2.856-3.477 1.423-1.067 3.3-1.6 5.634-1.6 2.673 0 4.892.782 6.656 2.347 1.763 1.564 2.644 3.769 2.644 6.613V352h-3.754v-2.9h-.17c-1.564 2.389-3.854 3.583-6.87 3.583zm.64-3.583c1.62 0 3.093-.604 4.417-1.813 1.322-1.21 1.983-2.64 1.983-4.29-1.109-.91-2.773-1.364-4.993-1.364-1.904 0-3.341.413-4.31 1.237-.967.824-1.45 1.791-1.45 2.9 0 1.024.441 1.836 1.323 2.433.883.598 1.893.897 3.03.897zm22.57 3.24c-2.19 0-3.862-.582-5.013-1.747-1.151-1.166-1.727-2.816-1.727-4.95v-10.966h-3.67v-3.584h3.67v-6.4h3.924v6.4h5.12v3.584h-5.12v10.666c0 2.276.939 3.414 2.816 3.414.711 0 1.31-.114 1.794-.34l1.363 3.37c-.853.369-1.906.553-3.157.553zm9.9-26.493a2.68 2.68 0 0 1-1.963.81c-.769 0-1.423-.27-1.963-.81a2.68 2.68 0 0 1-.81-1.964c0-.769.27-1.423.81-1.963s1.194-.81 1.963-.81c.767 0 1.421.27 1.963.81.54.54.81 1.194.81 1.963a2.68 2.68 0 0 1-.81 1.964zm0 5.246V352h-3.926v-20.907zm6.314 2.497c2.02-2.12 4.594-3.18 7.723-3.18 3.129 0 5.703 1.06 7.723 3.18 2.018 2.118 3.027 4.77 3.027 7.957 0 3.186-1.009 5.839-3.027 7.956-2.02 2.12-4.594 3.18-7.723 3.18-3.129 0-5.703-1.06-7.723-3.18-2.02-2.117-3.03-4.77-3.03-7.956 0-3.187 1.01-5.84 3.03-7.957zm2.923 13.44c1.351 1.38 2.951 2.07 4.8 2.07 1.849 0 3.449-.69 4.8-2.07s2.027-3.208 2.027-5.483c0-2.276-.676-4.104-2.027-5.484s-2.951-2.07-4.8-2.07c-1.849 0-3.449.69-4.8 2.07s-2.027 3.208-2.027 5.484c0 2.275.676 4.103 2.027 5.483zm18.71-15.937h3.753v2.9h.17c.57-.995 1.466-1.84 2.69-2.536a7.786 7.786 0 0 1 3.924-1.047c2.589 0 4.565.797 5.93 2.39 1.366 1.593 2.05 3.727 2.05 6.4V352h-3.927v-12.203c0-3.87-1.721-5.804-5.163-5.804-1.62 0-2.943.648-3.967 1.944-1.024 1.293-1.537 2.793-1.537 4.5V352h-3.923z" fill-opacity=".54" fill="#000"/>
  </g>
</svg>
