<svg xmlns="http://www.w3.org/2000/svg" width="192" height="192">
  <g fill="none">
    <path d="M0 0h192v192H0z"/>
    <path d="M128 88c13.28 0 23.92-10.72 23.92-24S141.28 40 128 40c-13.28 0-24 10.72-24 24s10.72 24 24 24zm-64 0c13.28 0 23.92-10.72 23.92-24S77.28 40 64 40c-13.28 0-24 10.72-24 24s10.72 24 24 24zm0 16c-18.64 0-56 9.36-56 28v20h112v-20c0-18.64-37.36-28-56-28zm64 0c-2.32 0-4.96.16-7.76.4 9.28 6.72 15.76 15.76 15.76 27.6v20h48v-20c0-18.64-37.36-28-56-28z" fill="#fff" fill-rule="evenodd"/>
  </g>
</svg>
