<svg xmlns="http://www.w3.org/2000/svg" width="192" height="192">
  <defs>
    <clipPath id="a">
      <path d="M143.41 47.34a4 4 0 0 0-6.77-2.16L115.88 66 99.54 34.89a4 4 0 0 0-7.08 0l-8.93 17-22.4-41.77a4 4 0 0 0-7.48 1.28L32 150l57.9 32.46a12 12 0 0 0 11.7 0L160 150z" fill="none"/>
    </clipPath>
    <linearGradient x1="56.9" y1="102.54" x2="48.9" y2="98.36" gradientUnits="userSpaceOnUse" id="b">
      <stop offset="0" stop-color="#a52714"/>
      <stop offset=".4" stop-color="#a52714" stop-opacity=".5"/>
      <stop offset=".8" stop-color="#a52714" stop-opacity="0"/>
    </linearGradient>
    <linearGradient x1="90.89" y1="90.91" x2="87.31" y2="87.33" gradientUnits="userSpaceOnUse" id="c">
      <stop offset="0" stop-color="#a52714" stop-opacity=".8"/>
      <stop offset=".5" stop-color="#a52714" stop-opacity=".21"/>
      <stop offset="1" stop-color="#a52714" stop-opacity="0"/>
    </linearGradient>
    <linearGradient x1="27.188" y1="40.281" x2="160.875" y2="173.968" gradientUnits="userSpaceOnUse" id="d">
      <stop offset="0" stop-color="#fff" stop-opacity=".1"/>
      <stop offset="1" stop-color="#fff" stop-opacity="0"/>
    </linearGradient>
  </defs>
  <g fill="none">
    <path d="M0 0h192v192H0z"/>
    <g clip-path="url(#a)">
      <path d="M32 150L53.66 11.39a4 4 0 0 1 7.48-1.27l22.4 41.78 8.93-17a4 4 0 0 1 7.08 0L160 150z" fill="#ffa000"/>
      <path d="M106 9L0 0v192l32-42z" fill="url(#b)" opacity=".12"/>
      <path d="M106.83 96.01l-23.3-44.12L32 150z" fill="#f57c00"/>
      <path d="M0 0h192v192H0z" fill="url(#c)" opacity=".2"/>
      <path d="M160 150L143.41 47.34a4 4 0 0 0-6.77-2.16L32 150l57.9 32.47a12 12 0 0 0 11.7 0z" fill="#ffca28"/>
      <path d="M143.41 47.34a4 4 0 0 0-6.77-2.16L115.88 66 99.54 34.89a4 4 0 0 0-7.08 0l-8.93 17-22.4-41.77a4 4 0 0 0-7.48 1.28L32 150h-.08l.07.08.57.28L115.83 67l20.78-20.8a4 4 0 0 1 6.78 2.16l16.45 101.74.16-.1zM32.19 149.81L53.66 12.39a4 4 0 0 1 7.48-1.28l22.4 41.78 8.93-17a4 4 0 0 1 7.08 0l16 30.43z" fill-opacity=".2" fill="#fff"/>
      <path d="M101.6 181.49a12 12 0 0 1-11.7 0l-57.76-32.4-.14.91 57.9 32.46a12 12 0 0 0 11.7 0L160 150l-.15-.92z" fill="#a52714" opacity=".2"/>
      <path d="M143.41 47.34a4 4 0 0 0-6.77-2.16L115.88 66 99.54 34.89a4 4 0 0 0-7.08 0l-8.93 17-22.4-41.77a4 4 0 0 0-7.48 1.28L32 150l57.9 32.46a12 12 0 0 0 11.7 0L160 150z" fill="url(#d)"/>
    </g>
    <circle cx="144" cy="144" r="40" fill="#fff"/>
    <path d="M144 122c1.988 0 3.6 1.598 3.6 3.568 0 1.552-1 2.872-2.398 3.364L145.2 134h8.8a8 8 0 0 1 8 8h1a2 2 0 0 1 2 2v7.892a2 2 0 0 1-2 2l-1-.002V156a8 8 0 0 1-8 8h-20a8 8 0 0 1-8-8v-2.11h-1a2 2 0 0 1-2-2V144a2 2 0 0 1 2-2h1a8 8 0 0 1 8-8h8.8v-5.068a3.576 3.576 0 0 1-2.388-3.072l-.012-.292c0-1.97 1.612-3.568 3.6-3.568zm10 16h-20a4 4 0 0 0-3.99 3.7l-.01.3v14a4 4 0 0 0 3.7 3.99l.3.01h20a4 4 0 0 0 3.99-3.7l.01-.3v-14a4 4 0 0 0-3.7-3.99zm-5 16l-1.658 4h-6.658L139 154zm5-10v8h-4v-8zm-16 0v8h-4v-8z" fill-opacity=".54" fill="#000" fill-rule="evenodd"/>
  </g>
</svg>
