<svg xmlns="http://www.w3.org/2000/svg" width="192" height="192">
  <g fill="none">
    <path d="M0 0h192v192H0z"/>
    <path d="M96 8c7.952 0 14.4 6.392 14.4 14.272 0 6.208-4 11.488-9.592 13.456L100.8 56H136c17.673 0 32 14.327 32 32h4a8 8 0 0 1 8 8v31.568a8 8 0 0 1-8 8l-4-.008V144c0 17.673-14.327 32-32 32H56c-17.673 0-32-14.327-32-32v-8.44h-4a8 8 0 0 1-8-8V96a8 8 0 0 1 8-8h4c0-17.673 14.327-32 32-32h35.2V35.728a14.304 14.304 0 0 1-9.552-12.288l-.048-1.168C81.6 14.392 88.048 8 96 8zm40 64H56c-8.373-.003-15.332 6.45-15.96 14.8L40 88v56c-.003 8.373 6.45 15.332 14.8 15.96l1.2.04h80c8.373.003 15.332-6.45 15.96-14.8l.04-1.2V88c.003-8.373-6.45-15.332-14.8-15.96zm-20 64l-6.632 16H82.736L76 136zm20-40v32h-16V96zm-64 0v32H56V96z" fill="#fff" fill-rule="evenodd"/>
  </g>
</svg>
