<svg xmlns="http://www.w3.org/2000/svg" width="192" height="192">
  <g fill="none">
    <path d="M0 0h192v192H0z"/>
    <path d="M36.227 122.934L53.655 11.388a4 4 0 0 1 7.477-1.275l18.74 34.96zm65.373 59.553a11.989 11.989 0 0 1-11.696-.02L32 150 136.636 45.175a3.994 3.994 0 0 1 6.771 2.164l8.292 51.302A46.308 46.308 0 0 0 144 98c-25.405 0-46 20.595-46 46 0 12.856 5.274 24.48 13.775 32.827zM33.584 139.92L92.461 34.888a3.999 3.999 0 0 1 7.081 0l13.406 25.525zM104 144c0-22.091 17.909-40 40-40s40 17.909 40 40-17.909 40-40 40-40-17.909-40-40zm36.4-18.432l.012.292a3.576 3.576 0 0 0 2.388 3.072V134H134a8 8 0 0 0-8 8h-1a2 2 0 0 0-2 2v7.89a2 2 0 0 0 2 2h1V156a8 8 0 0 0 8 8h20a8 8 0 0 0 8-8v-2.11l1 .002a2 2 0 0 0 2-2V144a2 2 0 0 0-2-2h-1a8 8 0 0 0-8-8h-8.8l.002-5.068a3.573 3.573 0 0 0 2.398-3.364c0-1.97-1.612-3.568-3.6-3.568s-3.6 1.598-3.6 3.568zm13.9 12.442A4 4 0 0 1 158 142v14l-.01.3A4 4 0 0 1 154 160h-20l-.3-.01A4 4 0 0 1 130 156v-14l.01-.3A4 4 0 0 1 134 138h20zM139 154l1.684 4h6.658l1.658-4zm11-10v8h4v-8zm-16 0v8h4v-8z" fill="#fff"/>
  </g>
</svg>
