<svg xmlns="http://www.w3.org/2000/svg" width="192" height="192">
  <g fill="none">
    <path d="M0 0h192v192H0z"/>
    <circle cx="96" cy="96" r="96" fill="#ffca28"/>
    <path d="M96 44.667c4.639 0 8.4 3.728 8.4 8.325 0 3.621-2.333 6.701-5.595 7.85L98.8 72.666h20.533c10.31 0 18.667 8.357 18.667 18.666h2.333A4.667 4.667 0 0 1 145 96v18.415a4.667 4.667 0 0 1-4.667 4.666l-2.333-.004V124c0 10.31-8.357 18.667-18.667 18.667H72.667C62.357 142.667 54 134.309 54 124v-4.923h-2.333A4.667 4.667 0 0 1 47 114.41V96a4.667 4.667 0 0 1 4.667-4.667H54c0-10.309 8.357-18.666 18.667-18.666H93.2V60.84a8.344 8.344 0 0 1-5.572-7.168l-.028-.681c0-4.597 3.761-8.325 8.4-8.325zM119.333 82H72.667a9.333 9.333 0 0 0-9.31 8.633l-.024.7V124a9.333 9.333 0 0 0 8.634 9.31l.7.023h46.666a9.333 9.333 0 0 0 9.31-8.633l.024-.7V91.333a9.333 9.333 0 0 0-8.634-9.31zm-11.666 37.333l-3.869 9.334H88.263l-3.93-9.334zM119.333 96v18.667H110V96zM82 96v18.667h-9.333V96z" fill="#fff" fill-rule="evenodd"/>
  </g>
</svg>
