<svg xmlns="http://www.w3.org/2000/svg" width="509.537" height="464">
  <g fill="none">
    <path d="M0 0h509.537v464H0z"/>
    <path d="M158.768 192c0-53.02 42.981-96 96-96 53.02 0 96 42.98 96 96s-42.98 96-96 96c-53.019 0-96-42.98-96-96zm77.334 35c0-6.443-5.224-11.667-11.667-11.667s-11.667 5.224-11.667 11.667 5.224 11.667 11.667 11.667 11.667-5.224 11.667-11.667zm7-32.667V227c0 6.443 5.223 11.667 11.666 11.667 6.444 0 11.667-5.224 11.667-11.667v-32.667c0-6.443-5.223-11.666-11.667-11.666-6.443 0-11.666 5.223-11.666 11.666zM273.435 157v70c0 6.443 5.223 11.667 11.667 11.667 6.443 0 11.666-5.224 11.666-11.667v-70c0-6.443-5.223-11.667-11.666-11.667-6.444 0-11.667 5.224-11.667 11.667zM191.49 330.098c2.683 0 4.814 1.192 5.923 2.513h.169V330.8h4.689v20.159c0 8.302-4.9 11.708-10.694 11.708-5.454 0-8.735-3.661-9.971-6.641l4.302-1.788c.767 1.83 2.642 4 5.667 4 3.707 0 6.007-2.3 6.007-6.598v-1.618h-.17c-1.106 1.363-3.239 2.554-5.923 2.554-5.624 0-10.78-4.895-10.78-11.196 0-6.344 5.156-11.282 10.78-11.282zm-77.766-12.431c5.327 0 9.12 2.086 11.973 4.81l-3.367 3.364c-2.045-1.916-4.814-3.406-8.607-3.406-7.031 0-12.528 5.662-12.528 12.687 0 7.024 5.497 12.686 12.528 12.686 4.559 0 7.157-1.83 8.82-3.491 1.364-1.363 2.258-3.32 2.598-6.002h-11.416v-4.769h16.063c.172.851.255 1.874.255 2.98 0 3.577-.98 8.003-4.133 11.155-3.067 3.193-6.987 4.895-12.186 4.895-9.628 0-17.724-7.834-17.724-17.454 0-9.621 8.096-17.455 17.724-17.455zm109.469 12.431c5.838 0 8.693 4.642 9.629 7.152l.511 1.277-15.04 6.215c1.15 2.256 2.94 3.406 5.453 3.406 2.513 0 4.261-1.233 5.54-3.107l3.834 2.554c-1.236 1.83-4.219 4.981-9.374 4.981-6.391 0-11.032-4.937-11.032-11.238 0-6.684 4.683-11.24 10.479-11.24zm-80.31-.002c6.222.002 11.291 4.727 11.291 11.24 0 6.472-5.069 11.239-11.291 11.239-6.22 0-11.291-4.769-11.291-11.239 0-6.513 5.07-11.24 11.291-11.24zm24.538 0c6.222.002 11.291 4.727 11.291 11.24 0 6.472-5.069 11.239-11.291 11.239-6.22 0-11.291-4.769-11.291-11.239 0-6.513 5.071-11.24 11.291-11.24zm43.082-11.238v33.038h-4.941v-33.038zm-18.586 15.669c-3.408 0-6.264 2.894-6.264 6.853 0 3.917 2.856 6.77 6.264 6.77 3.365-.002 6.007-2.853 6.007-6.77 0-3.959-2.642-6.853-6.007-6.853zm-49.034-.002c-3.409 0-6.35 2.767-6.35 6.811 0 4.001 2.941 6.812 6.35 6.812s6.35-2.809 6.35-6.812c0-4.044-2.941-6.811-6.35-6.811zm24.538 0c-3.409 0-6.35 2.767-6.35 6.811 0 4.001 2.941 6.812 6.35 6.812s6.35-2.809 6.35-6.812c0-4.044-2.941-6.811-6.35-6.811zm55.941-.084c-2.515 0-6.007 2.212-5.88 6.555l10.055-4.172c-.553-1.404-2.216-2.383-4.175-2.383zM251.53 352h-4.35l11.52-30.55h4.437l11.52 30.55h-4.354l-2.943-8.277h-12.843zm9.303-25.727l-4.993 13.78h10.153l-4.99-13.78zm16.724 4.82h3.756v2.9h.17c.57-.995 1.465-1.84 2.687-2.536a7.804 7.804 0 0 1 3.927-1.047c2.589 0 4.565.797 5.93 2.39 1.364 1.593 2.046 3.727 2.046 6.4V352h-3.923v-12.203c0-3.87-1.721-5.804-5.163-5.804-1.623 0-2.945.648-3.967 1.944-1.024 1.293-1.537 2.793-1.537 4.5V352h-3.926zm29.526 21.59c-2.22 0-4.076-.64-5.57-1.92-1.493-1.28-2.24-2.972-2.24-5.076 0-2.276.883-4.061 2.647-5.357 1.764-1.293 3.94-1.94 6.527-1.94 2.304 0 4.196.427 5.676 1.28v-.597c0-1.537-.526-2.769-1.58-3.693-1.05-.924-2.345-1.387-3.883-1.387-1.138 0-2.169.271-3.093.814-.925.54-1.557 1.279-1.897 2.216l-3.583-1.536c.482-1.251 1.434-2.41 2.856-3.477 1.423-1.067 3.3-1.6 5.634-1.6 2.673 0 4.892.782 6.656 2.347 1.763 1.564 2.644 3.769 2.644 6.613V352h-3.754v-2.9h-.17c-1.564 2.389-3.854 3.583-6.87 3.583zm.64-3.583c1.62 0 3.093-.604 4.417-1.813 1.322-1.21 1.983-2.64 1.983-4.29-1.109-.91-2.773-1.364-4.993-1.364-1.904 0-3.341.413-4.31 1.237-.967.824-1.45 1.791-1.45 2.9 0 1.024.441 1.836 1.323 2.433.883.598 1.893.897 3.03.897zm18.304-27.65V352H322.1v-30.55zm23.466 9.643l-13.1 30.124h-4.053l4.867-10.54-8.62-19.584h4.266l6.23 15.02h.084l6.06-15.02zM361.1 352.34c-2.191 0-3.862-.582-5.013-1.747-1.154-1.166-1.73-2.816-1.73-4.95v-10.966h-3.67v-3.584h3.67v-6.4h3.926v6.4h5.12v3.584h-5.12v10.666c0 2.276.94 3.414 2.817 3.414.711 0 1.308-.114 1.79-.34l1.367 3.37c-.854.369-1.906.553-3.157.553zm9.897-26.493c-.54.54-1.195.81-1.964.81a2.67 2.67 0 0 1-1.96-.81 2.675 2.675 0 0 1-.813-1.964c0-.769.271-1.423.813-1.963a2.67 2.67 0 0 1 1.96-.81c.77 0 1.424.27 1.964.81s.81 1.194.81 1.963a2.68 2.68 0 0 1-.81 1.964zm0 5.246V352h-3.924v-20.907zm14.036 21.59c-3.129 0-5.702-1.06-7.72-3.18-2.02-2.117-3.03-4.77-3.03-7.956 0-3.187 1.01-5.84 3.03-7.957 2.018-2.12 4.591-3.18 7.72-3.18 2.334 0 4.268.569 5.804 1.707 1.535 1.137 2.659 2.574 3.37 4.31l-3.584 1.493c-1.08-2.618-3.027-3.927-5.843-3.927-1.736 0-3.264.711-4.587 2.134-1.324 1.422-1.986 3.229-1.986 5.42 0 2.19.662 3.997 1.986 5.42 1.323 1.422 2.851 2.133 4.587 2.133 2.929 0 4.948-1.309 6.057-3.927l3.5 1.494c-.711 1.706-1.857 3.135-3.437 4.286-1.578 1.154-3.533 1.73-5.867 1.73zm20.267 0c-2.331 0-4.258-.569-5.78-1.706-1.522-1.138-2.639-2.56-3.35-4.267l3.5-1.45c1.109 2.616 3 3.923 5.673 3.923 1.225 0 2.228-.27 3.01-.81.783-.54 1.174-1.25 1.174-2.133 0-1.364-.954-2.289-2.86-2.773l-4.224-1.024c-1.337-.342-2.603-.99-3.796-1.943-1.196-.951-1.794-2.238-1.794-3.86 0-1.849.818-3.349 2.454-4.5 1.635-1.153 3.576-1.73 5.823-1.73 1.849 0 3.499.42 4.95 1.26 1.451.838 2.489 2.039 3.113 3.603l-3.413 1.41c-.767-1.849-2.359-2.773-4.777-2.773-1.166 0-2.147.241-2.943.723-.798.485-1.197 1.14-1.197 1.964 0 1.195.925 2.006 2.774 2.433l4.14.98c1.962.456 3.412 1.238 4.35 2.347.94 1.109 1.41 2.36 1.41 3.756 0 1.876-.768 3.44-2.304 4.694-1.537 1.25-3.515 1.876-5.933 1.876z" fill="#fff"/>
  </g>
</svg>
