<svg xmlns="http://www.w3.org/2000/svg" width="328.747" height="464">
  <g fill="none">
    <path d="M0 0h328.747v464H0z"/>
    <circle cx="164.373" cy="192" r="96" fill="#ffca28"/>
    <path d="M164.373 145.333c-25.76 0-46.666 20.907-46.666 46.667s20.906 46.667 46.666 46.667c25.76 0 46.667-20.907 46.667-46.667s-20.907-46.667-46.667-46.667zm-4.666 83.674C141.273 226.72 127.04 211.04 127.04 192c0-2.893.373-5.647.98-8.353L150.373 206v4.667c0 5.133 4.2 9.333 9.334 9.333zm32.2-11.854c-1.214-3.78-4.667-6.486-8.867-6.486h-4.667v-14a4.68 4.68 0 0 0-4.666-4.667h-28v-9.333h9.333a4.68 4.68 0 0 0 4.667-4.667v-9.333h9.333c5.133 0 9.333-4.2 9.333-9.334v-1.913c13.674 5.553 23.334 18.947 23.334 34.58 0 9.707-3.734 18.527-9.8 25.153z" fill="#fff" fill-rule="evenodd"/>
    <path d="M99.923 352H96v-30.55h3.923v13.1H115.2v-13.1h3.923V352H115.2v-13.78H99.923zm26.497-18.41c2.02-2.12 4.594-3.18 7.723-3.18 3.13 0 5.704 1.06 7.724 3.18 2.017 2.118 3.026 4.77 3.026 7.957 0 3.186-1.009 5.839-3.026 7.956-2.02 2.12-4.595 3.18-7.724 3.18-3.129 0-5.703-1.06-7.723-3.18-2.02-2.117-3.03-4.77-3.03-7.956 0-3.187 1.01-5.84 3.03-7.957zm2.923 13.44c1.351 1.38 2.951 2.07 4.8 2.07 1.85 0 3.45-.69 4.8-2.07 1.351-1.38 2.027-3.208 2.027-5.483 0-2.276-.676-4.104-2.027-5.484-1.35-1.38-2.95-2.07-4.8-2.07-1.849 0-3.449.69-4.8 2.07-1.35 1.38-2.026 3.208-2.026 5.484 0 2.275.675 4.103 2.026 5.483zm26.26 5.653c-2.33 0-4.257-.569-5.78-1.706-1.522-1.138-2.639-2.56-3.35-4.267l3.5-1.45c1.11 2.616 3 3.923 5.674 3.923 1.222 0 2.224-.27 3.006-.81.783-.54 1.174-1.25 1.174-2.133 0-1.364-.953-2.289-2.857-2.773l-4.223-1.024c-1.338-.342-2.605-.99-3.8-1.943-1.194-.951-1.79-2.238-1.79-3.86 0-1.849.817-3.349 2.453-4.5 1.636-1.153 3.577-1.73 5.823-1.73 1.85 0 3.5.42 4.95 1.26 1.451.838 2.49 2.039 3.114 3.603l-3.414 1.41c-.766-1.849-2.359-2.773-4.776-2.773-1.167 0-2.15.241-2.947.723-.796.485-1.193 1.14-1.193 1.964 0 1.195.924 2.006 2.773 2.433l4.14.98c1.962.456 3.412 1.238 4.35 2.347.94 1.109 1.41 2.36 1.41 3.756 0 1.876-.769 3.44-2.307 4.694-1.535 1.25-3.512 1.876-5.93 1.876zm20.054-.343c-2.19 0-3.86-.582-5.014-1.747-1.15-1.166-1.726-2.816-1.726-4.95v-10.966h-3.67v-3.584h3.67v-6.4h3.923v6.4h5.12v3.584h-5.12v10.666c0 2.276.939 3.414 2.817 3.414.71 0 1.309-.114 1.793-.34l1.363 3.37c-.853.369-1.905.553-3.156.553zm9.9-26.493c-.54.54-1.195.81-1.964.81-.769 0-1.423-.27-1.963-.81a2.68 2.68 0 0 1-.81-1.964c0-.769.27-1.423.81-1.963s1.194-.81 1.963-.81c.77 0 1.424.27 1.964.81s.81 1.194.81 1.963a2.68 2.68 0 0 1-.81 1.964zm0 5.246V352h-3.927v-20.907zm4.693 0h3.753v2.9h.17c.57-.995 1.466-1.84 2.69-2.536a7.786 7.786 0 0 1 3.924-1.047c2.589 0 4.566.797 5.933 2.39 1.364 1.593 2.047 3.727 2.047 6.4V352h-3.927v-12.203c0-3.87-1.72-5.804-5.16-5.804-1.622 0-2.946.648-3.97 1.944-1.024 1.293-1.537 2.793-1.537 4.5V352h-3.923zm31.787 30.807c-2.476 0-4.496-.619-6.06-1.857-1.565-1.237-2.688-2.653-3.37-4.246l3.583-1.494c.398 1.138 1.13 2.091 2.197 2.86 1.066.767 2.283 1.15 3.65 1.15 2.162 0 3.86-.646 5.096-1.94 1.238-1.293 1.857-3.05 1.857-5.27V349.1h-.17c-.682 1.022-1.649 1.876-2.9 2.56-1.253.682-2.662 1.023-4.227 1.023-2.702 0-5.034-1.066-6.996-3.2-1.963-2.133-2.944-4.779-2.944-7.936 0-3.158.981-5.804 2.944-7.937 1.962-2.133 4.294-3.2 6.996-3.2 1.565 0 2.974.341 4.227 1.023 1.251.685 2.218 1.538 2.9 2.56h.17v-2.9h3.757v19.84c0 3.585-1.04 6.308-3.117 8.17-2.076 1.865-4.607 2.797-7.593 2.797zm.296-12.8c1.85 0 3.421-.683 4.717-2.05 1.293-1.364 1.94-3.199 1.94-5.503 0-2.305-.647-4.14-1.94-5.504-1.296-1.366-2.868-2.05-4.717-2.05-1.82 0-3.384.69-4.693 2.07-1.307 1.38-1.96 3.208-1.96 5.484 0 2.275.653 4.103 1.96 5.483 1.309 1.38 2.873 2.07 4.693 2.07z" fill-opacity=".54" fill="#000"/>
  </g>
</svg>
