<svg xmlns="http://www.w3.org/2000/svg" width="646.827" height="464">
  <defs>
    <clipPath id="a">
      <path d="M370.823 143.34a4 4 0 0 0-6.77-2.16L343.293 162l-16.34-31.11a4 4 0 0 0-7.08 0l-8.93 17-22.4-41.77a4 4 0 0 0-7.48 1.28L259.413 246l57.9 32.46a12 12 0 0 0 11.7 0l58.4-32.46z" fill="none"/>
    </clipPath>
    <linearGradient x1="284.313" y1="198.54" x2="276.313" y2="194.36" gradientUnits="userSpaceOnUse" id="b">
      <stop offset="0" stop-color="#a52714"/>
      <stop offset=".4" stop-color="#a52714" stop-opacity=".5"/>
      <stop offset=".8" stop-color="#a52714" stop-opacity="0"/>
    </linearGradient>
    <linearGradient x1="318.303" y1="186.91" x2="314.723" y2="183.33" gradientUnits="userSpaceOnUse" id="c">
      <stop offset="0" stop-color="#a52714" stop-opacity=".8"/>
      <stop offset=".5" stop-color="#a52714" stop-opacity=".21"/>
      <stop offset="1" stop-color="#a52714" stop-opacity="0"/>
    </linearGradient>
    <linearGradient x1="254.601" y1="136.281" x2="388.288" y2="269.968" gradientUnits="userSpaceOnUse" id="d">
      <stop offset="0" stop-color="#fff" stop-opacity=".1"/>
      <stop offset="1" stop-color="#fff" stop-opacity="0"/>
    </linearGradient>
  </defs>
  <g fill="none">
    <path d="M0 0h646.827v464H0z"/>
    <g clip-path="url(#a)">
      <path d="M259.413 246l21.66-138.61a4 4 0 0 1 7.48-1.27l22.4 41.78 8.93-17a4 4 0 0 1 7.08 0l60.45 115.1z" fill="#ffa000"/>
      <path d="M333.413 105l-106-9v192l32-42z" fill="url(#b)" opacity=".12"/>
      <path d="M334.243 192.01l-23.3-44.12-51.53 98.11z" fill="#f57c00"/>
      <path d="M227.413 96h192v192h-192z" fill="url(#c)" opacity=".2"/>
      <path d="M387.413 246l-16.59-102.66a4 4 0 0 0-6.77-2.16L259.413 246l57.9 32.47a12 12 0 0 0 11.7 0z" fill="#ffca28"/>
      <path d="M370.823 143.34a4 4 0 0 0-6.77-2.16L343.293 162l-16.34-31.11a4 4 0 0 0-7.08 0l-8.93 17-22.4-41.77a4 4 0 0 0-7.48 1.28L259.413 246h-.08l.07.08.57.28 83.27-83.36 20.78-20.8a4 4 0 0 1 6.78 2.16l16.45 101.74.16-.1zm-111.22 102.47l21.47-137.42a4 4 0 0 1 7.48-1.28l22.4 41.78 8.93-17a4 4 0 0 1 7.08 0l16 30.43z" fill-opacity=".2" fill="#fff"/>
      <path d="M329.013 277.49a12 12 0 0 1-11.7 0l-57.76-32.4-.14.91 57.9 32.46a12 12 0 0 0 11.7 0l58.4-32.46-.15-.92z" fill="#a52714" opacity=".2"/>
      <path d="M370.823 143.34a4 4 0 0 0-6.77-2.16L343.293 162l-16.34-31.11a4 4 0 0 0-7.08 0l-8.93 17-22.4-41.77a4 4 0 0 0-7.48 1.28L259.413 246l57.9 32.46a12 12 0 0 0 11.7 0l58.4-32.46z" fill="url(#d)"/>
    </g>
    <circle cx="371.413" cy="240" r="40" fill="#fff"/>
    <path d="M358.413 254a3 3 0 0 1 0-6h2a3 3 0 0 0 0-6h-4a3 3 0 0 1 0-6h7a2 2 0 1 0 0-4 3 3 0 0 1 0-6h29.94c1.254 0 2.204 1.176 1.988 2.462l-4 23.8a2.042 2.042 0 0 1-1.988 1.738zm8.69-4h20.574l3.352-20h-20.616zm18.034-3h-14.496l2.316-14h14.528zm-34.724 7a3 3 0 1 1 0-6 3 3 0 0 1 0 6z" fill-opacity=".54" fill="#000" fill-rule="evenodd"/>
    <path d="M99.923 338.9V352H96v-30.55h17.833v3.757h-13.91v10.026h12.544v3.667zm21.29-13.053a2.67 2.67 0 0 1-1.96.81c-.769 0-1.423-.27-1.963-.81a2.68 2.68 0 0 1-.81-1.964c0-.769.27-1.423.81-1.963s1.194-.81 1.963-.81c.767 0 1.42.27 1.96.81.543.54.814 1.194.814 1.963 0 .767-.271 1.421-.814 1.964zm0 5.246V352h-3.923v-20.907zm8.62 9.474V352h-3.926v-20.907h3.756v3.414h.17c.398-1.138 1.216-2.077 2.454-2.817 1.237-.74 2.44-1.11 3.606-1.11 1.165 0 2.146.171 2.944.513l-1.494 3.67c-.513-.2-1.21-.3-2.09-.3-1.422 0-2.68.563-3.776 1.687-1.096 1.122-1.644 2.594-1.644 4.417zm19.754 12.116c-3.156 0-5.723-1.052-7.7-3.156-1.978-2.107-2.967-4.767-2.967-7.98 0-3.045.96-5.661 2.88-7.85 1.92-2.191 4.373-3.287 7.36-3.287 3.102 0 5.584 1.01 7.447 3.03 1.862 2.02 2.793 4.722 2.793 8.107l-.04.726h-16.513c.113 2.105.817 3.768 2.113 4.99 1.293 1.225 2.808 1.837 4.543 1.837 2.816 0 4.721-1.196 5.717-3.587l3.5 1.454c-.684 1.62-1.809 2.977-3.373 4.073-1.565 1.096-3.485 1.643-5.76 1.643zm-6.484-13.653h12.117c-.084-1.196-.632-2.333-1.643-3.413-1.01-1.083-2.51-1.624-4.5-1.624-1.451 0-2.71.456-3.777 1.367-1.067.911-1.799 2.134-2.197 3.67zm30.507 13.653c-1.593 0-3.023-.34-4.29-1.023-1.264-.684-2.21-1.538-2.837-2.56h-.17v2.9h-3.753v-30.55h3.923v9.643l-.17 2.9h.17c.627-1.022 1.573-1.875 2.837-2.56 1.267-.682 2.697-1.023 4.29-1.023 2.702 0 5.034 1.067 6.997 3.2 1.962 2.133 2.943 4.779 2.943 7.937 0 3.157-.981 5.803-2.943 7.936-1.963 2.134-4.295 3.2-6.997 3.2zm-.64-3.583c1.82 0 3.384-.69 4.693-2.07 1.31-1.38 1.964-3.208 1.964-5.483 0-2.276-.655-4.104-1.964-5.484s-2.873-2.07-4.693-2.07c-1.849 0-3.421.684-4.717 2.05-1.293 1.365-1.94 3.2-1.94 5.504 0 2.304.647 4.139 1.94 5.503 1.296 1.367 2.868 2.05 4.717 2.05zm20.563 3.583c-2.217 0-4.073-.64-5.566-1.92-1.494-1.28-2.24-2.972-2.24-5.076 0-2.276.882-4.061 2.646-5.357 1.763-1.293 3.938-1.94 6.527-1.94 2.304 0 4.196.427 5.673 1.28v-.597c0-1.537-.525-2.769-1.576-3.693-1.054-.924-2.348-1.387-3.884-1.387-1.137 0-2.169.271-3.093.814-.924.54-1.558 1.279-1.9 2.216l-3.583-1.536c.484-1.251 1.437-2.41 2.86-3.477 1.422-1.067 3.299-1.6 5.63-1.6 2.675 0 4.894.782 6.656 2.347 1.765 1.564 2.647 3.769 2.647 6.613V352h-3.757v-2.9h-.17c-1.564 2.389-3.854 3.583-6.87 3.583zm.64-3.583c1.623 0 3.095-.604 4.417-1.813 1.322-1.21 1.983-2.64 1.983-4.29-1.109-.91-2.772-1.364-4.99-1.364-1.906 0-3.343.413-4.31 1.237-.966.824-1.45 1.791-1.45 2.9 0 1.024.441 1.836 1.324 2.433.88.598 1.889.897 3.026.897zm21.72 3.583c-2.333 0-4.26-.569-5.783-1.706-1.522-1.138-2.639-2.56-3.35-4.267l3.5-1.45c1.109 2.616 3 3.923 5.673 3.923 1.225 0 2.228-.27 3.01-.81.783-.54 1.174-1.25 1.174-2.133 0-1.364-.954-2.289-2.86-2.773l-4.224-1.024c-1.337-.342-2.603-.99-3.796-1.943-1.196-.951-1.794-2.238-1.794-3.86 0-1.849.818-3.349 2.454-4.5 1.635-1.153 3.576-1.73 5.823-1.73 1.849 0 3.499.42 4.95 1.26 1.451.838 2.49 2.039 3.117 3.603l-3.414 1.41c-.769-1.849-2.362-2.773-4.78-2.773-1.166 0-2.147.241-2.943.723-.798.485-1.197 1.14-1.197 1.964 0 1.195.925 2.006 2.774 2.433l4.14.98c1.962.456 3.413 1.238 4.353 2.347.938 1.109 1.407 2.36 1.407 3.756 0 1.876-.768 3.44-2.304 4.694-1.535 1.25-3.512 1.876-5.93 1.876zm21.334 0c-3.158 0-5.726-1.052-7.704-3.156-1.975-2.107-2.963-4.767-2.963-7.98 0-3.045.96-5.661 2.88-7.85 1.92-2.191 4.373-3.287 7.36-3.287 3.1 0 5.581 1.01 7.443 3.03 1.865 2.02 2.797 4.722 2.797 8.107l-.043.726h-16.514c.114 2.105.818 3.768 2.114 4.99 1.293 1.225 2.807 1.837 4.543 1.837 2.816 0 4.721-1.196 5.717-3.587l3.5 1.454c-.683 1.62-1.806 2.977-3.37 4.073-1.565 1.096-3.485 1.643-5.76 1.643zm-6.487-13.653h12.117c-.085-1.196-.633-2.333-1.644-3.413-1.009-1.083-2.509-1.624-4.5-1.624-1.45 0-2.71.456-3.776 1.367-1.067.911-1.8 2.134-2.197 3.67zM260.777 352h-4.35l11.52-30.55h4.436l11.52 30.55h-4.353l-2.943-8.277h-12.844zm9.303-25.727l-4.993 13.78h10.153l-4.99-13.78zm26.963 26.41c-1.593 0-3.022-.34-4.286-1.023-1.267-.684-2.213-1.538-2.837-2.56h-.173l.173 2.9v9.217h-3.927v-30.124h3.754v2.9h.173c.624-1.022 1.57-1.875 2.837-2.56 1.264-.682 2.693-1.023 4.286-1.023 2.703 0 5.035 1.067 6.997 3.2 1.964 2.133 2.947 4.779 2.947 7.937 0 3.157-.983 5.803-2.947 7.936-1.962 2.134-4.294 3.2-6.997 3.2zm-.64-3.583c1.82 0 3.385-.69 4.694-2.07 1.309-1.38 1.963-3.208 1.963-5.483 0-2.276-.654-4.104-1.963-5.484-1.31-1.38-2.874-2.07-4.694-2.07-1.849 0-3.42.684-4.713 2.05-1.296 1.365-1.943 3.2-1.943 5.504 0 2.304.647 4.139 1.943 5.503 1.293 1.367 2.864 2.05 4.713 2.05zm23.98 3.583c-1.593 0-3.023-.34-4.29-1.023-1.264-.684-2.21-1.538-2.836-2.56h-.17l.17 2.9v9.217h-3.924v-30.124h3.754v2.9h.17c.626-1.022 1.572-1.875 2.836-2.56 1.267-.682 2.697-1.023 4.29-1.023 2.703 0 5.035 1.067 6.997 3.2 1.962 2.133 2.943 4.779 2.943 7.937 0 3.157-.98 5.803-2.943 7.936-1.962 2.134-4.294 3.2-6.997 3.2zm-.64-3.583c1.82 0 3.385-.69 4.694-2.07 1.309-1.38 1.963-3.208 1.963-5.483 0-2.276-.654-4.104-1.963-5.484-1.31-1.38-2.874-2.07-4.694-2.07-1.849 0-3.42.684-4.716 2.05-1.294 1.365-1.94 3.2-1.94 5.504 0 2.304.646 4.139 1.94 5.503 1.295 1.367 2.867 2.05 4.716 2.05zm33.577 2.9h-9.343v-30.55h9.343c4.693 0 8.449 1.416 11.267 4.247 2.815 2.829 4.223 6.505 4.223 11.03 0 4.522-1.408 8.197-4.223 11.026-2.818 2.831-6.574 4.247-11.267 4.247zm-5.417-26.793v23.04h5.417c3.529 0 6.324-1.01 8.387-3.03 2.062-2.02 3.093-4.85 3.093-8.49 0-3.614-1.031-6.437-3.093-8.47-2.063-2.034-4.858-3.05-8.387-3.05zm28.714.64c-.54.54-1.195.81-1.964.81a2.67 2.67 0 0 1-1.96-.81 2.675 2.675 0 0 1-.813-1.964c0-.769.271-1.423.813-1.963a2.67 2.67 0 0 1 1.96-.81c.77 0 1.424.27 1.964.81s.81 1.194.81 1.963a2.68 2.68 0 0 1-.81 1.964zm0 5.246V352h-3.924v-20.907zm12.246 21.59c-2.333 0-4.26-.569-5.783-1.706-1.52-1.138-2.636-2.56-3.347-4.267l3.497-1.45c1.109 2.616 3.001 3.923 5.677 3.923 1.222 0 2.224-.27 3.006-.81.783-.54 1.174-1.25 1.174-2.133 0-1.364-.954-2.289-2.86-2.773l-4.224-1.024c-1.335-.342-2.6-.99-3.796-1.943-1.196-.951-1.794-2.238-1.794-3.86 0-1.849.818-3.349 2.454-4.5 1.635-1.153 3.577-1.73 5.826-1.73 1.85 0 3.498.42 4.947 1.26 1.451.838 2.49 2.039 3.117 3.603l-3.414 1.41c-.769-1.849-2.362-2.773-4.78-2.773-1.166 0-2.147.241-2.943.723-.796.485-1.193 1.14-1.193 1.964 0 1.195.924 2.006 2.773 2.433l4.137.98c1.962.456 3.413 1.238 4.353 2.347.938 1.109 1.407 2.36 1.407 3.756 0 1.876-.768 3.44-2.304 4.694-1.535 1.25-3.512 1.876-5.93 1.876zm20.054-.343c-2.191 0-3.863-.582-5.014-1.747-1.153-1.166-1.73-2.816-1.73-4.95v-10.966h-3.666v-3.584h3.666v-6.4h3.927v6.4h5.12v3.584h-5.12v10.666c0 2.276.939 3.414 2.817 3.414.71 0 1.307-.114 1.79-.34l1.366 3.37c-.853.369-1.905.553-3.156.553zm9.556-11.773V352h-3.926v-20.907h3.756v3.414h.17c.398-1.138 1.216-2.077 2.454-2.817 1.237-.74 2.44-1.11 3.606-1.11 1.165 0 2.146.171 2.944.513l-1.494 3.67c-.513-.2-1.21-.3-2.09-.3-1.422 0-2.68.563-3.776 1.687-1.096 1.122-1.644 2.594-1.644 4.417zm15.404-14.72c-.54.54-1.195.81-1.964.81-.769 0-1.423-.27-1.963-.81a2.68 2.68 0 0 1-.81-1.964c0-.769.27-1.423.81-1.963s1.194-.81 1.963-.81c.77 0 1.424.27 1.964.81s.81 1.194.81 1.963a2.68 2.68 0 0 1-.81 1.964zm0 5.246V352h-3.927v-20.907zm15.316 21.59c-1.593 0-3.022-.34-4.286-1.023-1.267-.684-2.214-1.538-2.84-2.56h-.17v2.9h-3.754v-30.55h3.924v9.643l-.17 2.9h.17c.626-1.022 1.573-1.875 2.84-2.56 1.264-.682 2.693-1.023 4.286-1.023 2.703 0 5.035 1.067 6.997 3.2 1.962 2.133 2.943 4.779 2.943 7.937 0 3.157-.98 5.803-2.943 7.936-1.962 2.134-4.294 3.2-6.997 3.2zm-.64-3.583c1.82 0 3.385-.69 4.694-2.07 1.309-1.38 1.963-3.208 1.963-5.483 0-2.276-.654-4.104-1.963-5.484-1.31-1.38-2.874-2.07-4.694-2.07-1.849 0-3.42.684-4.713 2.05-1.296 1.365-1.943 3.2-1.943 5.504 0 2.304.647 4.139 1.943 5.503 1.293 1.367 2.864 2.05 4.713 2.05zm32.3-18.007V352h-3.756v-2.9h-.17c-.598.996-1.508 1.841-2.73 2.537-1.225.697-2.52 1.046-3.884 1.046-2.617 0-4.602-.796-5.953-2.39-1.351-1.593-2.027-3.726-2.027-6.4v-12.8h3.927v12.16c0 3.898 1.721 5.847 5.163 5.847 1.62 0 2.943-.654 3.967-1.963 1.024-1.31 1.537-2.817 1.537-4.524v-11.52zm13.61 21.247c-2.19 0-3.862-.582-5.013-1.747-1.153-1.166-1.73-2.816-1.73-4.95v-10.966h-3.667v-3.584h3.667v-6.4h3.927v6.4h5.12v3.584h-5.12v10.666c0 2.276.939 3.414 2.816 3.414.711 0 1.308-.114 1.79-.34l1.367 3.37c-.853.369-1.906.553-3.157.553zm9.897-26.493a2.67 2.67 0 0 1-1.96.81c-.769 0-1.423-.27-1.963-.81a2.68 2.68 0 0 1-.81-1.964c0-.769.27-1.423.81-1.963s1.194-.81 1.963-.81c.767 0 1.42.27 1.96.81.542.54.813 1.194.813 1.963 0 .767-.27 1.421-.813 1.964zm0 5.246V352h-3.923v-20.907zm6.317 2.497c2.02-2.12 4.594-3.18 7.723-3.18 3.129 0 5.702 1.06 7.72 3.18 2.02 2.118 3.03 4.77 3.03 7.957 0 3.186-1.01 5.839-3.03 7.956-2.018 2.12-4.591 3.18-7.72 3.18-3.129 0-5.703-1.06-7.723-3.18-2.02-2.117-3.03-4.77-3.03-7.956 0-3.187 1.01-5.84 3.03-7.957zm2.923 13.44c1.351 1.38 2.951 2.07 4.8 2.07 1.849 0 3.449-.69 4.8-2.07s2.027-3.208 2.027-5.483c0-2.276-.676-4.104-2.027-5.484s-2.951-2.07-4.8-2.07c-1.849 0-3.449.69-4.8 2.07s-2.027 3.208-2.027 5.484c0 2.275.676 4.103 2.027 5.483zm18.707-15.937h3.756v2.9h.17c.57-.995 1.465-1.84 2.687-2.536a7.804 7.804 0 0 1 3.927-1.047c2.589 0 4.565.797 5.93 2.39 1.366 1.593 2.05 3.727 2.05 6.4V352H546.9v-12.203c0-3.87-1.721-5.804-5.163-5.804-1.62 0-2.943.648-3.967 1.944-1.024 1.293-1.537 2.793-1.537 4.5V352h-3.926z" fill="#fff"/>
  </g>
</svg>
