<svg xmlns="http://www.w3.org/2000/svg" width="486.4" height="464">
  <g fill="none">
    <path d="M0 0h486.4v464H0z"/>
    <path d="M147.2 192c0-53.02 42.98-96 96-96s96 42.98 96 96-42.98 96-96 96-96-42.98-96-96zm137.86 32.667a4.765 4.765 0 0 0 4.639-4.056l9.333-55.533c.504-3-1.713-5.745-4.639-5.745h-69.86a7 7 0 0 0 0 14 4.667 4.667 0 0 1 0 9.334H208.2a7 7 0 0 0 0 14h9.333a7 7 0 0 1 0 14h-4.666a7 7 0 0 0 0 14zm-44.193-56h48.104l-7.822 46.666h-48.006zm39.834 7h-33.898l-5.404 32.666h33.824zm-79.501 42a7 7 0 1 0-14 0 7 7 0 0 0 14 0zM100.35 352H96l11.52-30.55h4.437l11.52 30.55h-4.354l-2.943-8.277h-12.843zm9.303-25.727l-4.993 13.78h10.153l-4.99-13.78zm26.964 26.41c-1.594 0-3.023-.34-4.287-1.023-1.267-.684-2.212-1.538-2.837-2.56h-.173l.173 2.9v9.217h-3.926v-30.124h3.753v2.9h.173c.625-1.022 1.57-1.875 2.837-2.56 1.264-.682 2.693-1.023 4.287-1.023 2.702 0 5.034 1.067 6.996 3.2 1.965 2.133 2.947 4.779 2.947 7.937 0 3.157-.982 5.803-2.947 7.936-1.962 2.134-4.294 3.2-6.996 3.2zm-.64-3.583c1.82 0 3.384-.69 4.693-2.07 1.309-1.38 1.963-3.208 1.963-5.483 0-2.276-.654-4.104-1.963-5.484-1.309-1.38-2.873-2.07-4.693-2.07-1.85 0-3.42.684-4.714 2.05-1.295 1.365-1.943 3.2-1.943 5.504 0 2.304.648 4.139 1.943 5.503 1.294 1.367 2.865 2.05 4.714 2.05zm23.98 3.583c-1.594 0-3.024-.34-4.29-1.023-1.265-.684-2.21-1.538-2.837-2.56h-.17l.17 2.9v9.217h-3.923v-30.124h3.753v2.9h.17c.627-1.022 1.572-1.875 2.837-2.56 1.266-.682 2.696-1.023 4.29-1.023 2.702 0 5.034 1.067 6.996 3.2 1.963 2.133 2.944 4.779 2.944 7.937 0 3.157-.981 5.803-2.944 7.936-1.962 2.134-4.294 3.2-6.996 3.2zm-.64-3.583c1.82 0 3.384-.69 4.693-2.07 1.309-1.38 1.963-3.208 1.963-5.483 0-2.276-.654-4.104-1.963-5.484-1.309-1.38-2.873-2.07-4.693-2.07-1.85 0-3.421.684-4.717 2.05-1.293 1.365-1.94 3.2-1.94 5.504 0 2.304.647 4.139 1.94 5.503 1.296 1.367 2.868 2.05 4.717 2.05zm33.576 2.9h-9.343v-30.55h9.343c4.694 0 8.45 1.416 11.267 4.247 2.816 2.829 4.223 6.505 4.223 11.03 0 4.522-1.407 8.197-4.223 11.026-2.818 2.831-6.573 4.247-11.267 4.247zm-5.416-26.793v23.04h5.416c3.53 0 6.325-1.01 8.387-3.03 2.062-2.02 3.093-4.85 3.093-8.49 0-3.614-1.03-6.437-3.093-8.47-2.062-2.034-4.858-3.05-8.387-3.05zm28.713.64c-.54.54-1.194.81-1.963.81a2.67 2.67 0 0 1-1.96-.81 2.675 2.675 0 0 1-.814-1.964c0-.769.271-1.423.814-1.963a2.67 2.67 0 0 1 1.96-.81c.769 0 1.423.27 1.963.81s.81 1.194.81 1.963a2.68 2.68 0 0 1-.81 1.964zm0 5.246V352h-3.923v-20.907zm12.247 21.59c-2.334 0-4.261-.569-5.784-1.706-1.52-1.138-2.635-2.56-3.346-4.267l3.496-1.45c1.11 2.616 3.001 3.923 5.677 3.923 1.222 0 2.224-.27 3.007-.81.782-.54 1.173-1.25 1.173-2.133 0-1.364-.953-2.289-2.86-2.773l-4.223-1.024c-1.336-.342-2.601-.99-3.797-1.943-1.196-.951-1.793-2.238-1.793-3.86 0-1.849.817-3.349 2.453-4.5 1.636-1.153 3.578-1.73 5.827-1.73 1.849 0 3.497.42 4.946 1.26 1.451.838 2.49 2.039 3.117 3.603l-3.413 1.41c-.77-1.849-2.363-2.773-4.78-2.773-1.167 0-2.148.241-2.944.723-.795.485-1.193 1.14-1.193 1.964 0 1.195.924 2.006 2.773 2.433l4.137.98c1.962.456 3.413 1.238 4.353 2.347.938 1.109 1.407 2.36 1.407 3.756 0 1.876-.768 3.44-2.303 4.694-1.536 1.25-3.513 1.876-5.93 1.876zm20.053-.343c-2.191 0-3.862-.582-5.013-1.747-1.154-1.166-1.73-2.816-1.73-4.95v-10.966h-3.667v-3.584h3.667v-6.4h3.926v6.4h5.12v3.584h-5.12v10.666c0 2.276.94 3.414 2.817 3.414.711 0 1.308-.114 1.79-.34l1.367 3.37c-.854.369-1.906.553-3.157.553zm9.557-11.773V352h-3.927v-20.907h3.757v3.414h.17c.397-1.138 1.215-2.077 2.453-2.817 1.238-.74 2.44-1.11 3.607-1.11 1.164 0 2.145.171 2.943.513l-1.493 3.67c-.514-.2-1.21-.3-2.09-.3-1.423 0-2.681.563-3.777 1.687-1.096 1.122-1.643 2.594-1.643 4.417zm15.403-14.72c-.54.54-1.194.81-1.963.81-.77 0-1.424-.27-1.964-.81a2.68 2.68 0 0 1-.81-1.964c0-.769.27-1.423.81-1.963s1.195-.81 1.964-.81c.769 0 1.423.27 1.963.81s.81 1.194.81 1.963a2.68 2.68 0 0 1-.81 1.964zm0 5.246V352h-3.927v-20.907zm15.317 21.59c-1.594 0-3.023-.34-4.287-1.023-1.267-.684-2.213-1.538-2.84-2.56h-.17v2.9h-3.753v-30.55h3.923v9.643l-.17 2.9h.17c.627-1.022 1.573-1.875 2.84-2.56 1.264-.682 2.693-1.023 4.287-1.023 2.702 0 5.034 1.067 6.996 3.2 1.963 2.133 2.944 4.779 2.944 7.937 0 3.157-.981 5.803-2.944 7.936-1.962 2.134-4.294 3.2-6.996 3.2zm-.64-3.583c1.82 0 3.384-.69 4.693-2.07 1.309-1.38 1.963-3.208 1.963-5.483 0-2.276-.654-4.104-1.963-5.484-1.309-1.38-2.873-2.07-4.693-2.07-1.85 0-3.42.684-4.714 2.05-1.295 1.365-1.943 3.2-1.943 5.504 0 2.304.648 4.139 1.943 5.503 1.294 1.367 2.865 2.05 4.714 2.05zm32.3-18.007V352h-3.757v-2.9h-.17c-.598.996-1.508 1.841-2.73 2.537-1.224.697-2.519 1.046-3.883 1.046-2.618 0-4.603-.796-5.954-2.39-1.35-1.593-2.026-3.726-2.026-6.4v-12.8h3.926v12.16c0 3.898 1.721 5.847 5.164 5.847 1.62 0 2.942-.654 3.966-1.963 1.025-1.31 1.537-2.817 1.537-4.524v-11.52zm13.61 21.247c-2.191 0-3.863-.582-5.014-1.747-1.153-1.166-1.73-2.816-1.73-4.95v-10.966h-3.666v-3.584h3.666v-6.4h3.927v6.4h5.12v3.584h-5.12v10.666c0 2.276.939 3.414 2.817 3.414.71 0 1.307-.114 1.79-.34l1.366 3.37c-.853.369-1.905.553-3.156.553zm9.896-26.493a2.67 2.67 0 0 1-1.96.81c-.769 0-1.423-.27-1.963-.81a2.68 2.68 0 0 1-.81-1.964c0-.769.27-1.423.81-1.963s1.194-.81 1.963-.81c.767 0 1.42.27 1.96.81.543.54.814 1.194.814 1.963 0 .767-.271 1.421-.814 1.964zm0 5.246V352h-3.923v-20.907zm6.317 2.497c2.02-2.12 4.594-3.18 7.723-3.18 3.13 0 5.703 1.06 7.72 3.18 2.02 2.118 3.03 4.77 3.03 7.957 0 3.186-1.01 5.839-3.03 7.956-2.017 2.12-4.59 3.18-7.72 3.18-3.129 0-5.703-1.06-7.723-3.18-2.02-2.117-3.03-4.77-3.03-7.956 0-3.187 1.01-5.84 3.03-7.957zm2.923 13.44c1.351 1.38 2.951 2.07 4.8 2.07 1.85 0 3.45-.69 4.8-2.07 1.351-1.38 2.027-3.208 2.027-5.483 0-2.276-.676-4.104-2.027-5.484-1.35-1.38-2.95-2.07-4.8-2.07-1.849 0-3.449.69-4.8 2.07-1.35 1.38-2.026 3.208-2.026 5.484 0 2.275.675 4.103 2.026 5.483zm18.707-15.937h3.757v2.9h.17c.569-.995 1.464-1.84 2.686-2.536a7.804 7.804 0 0 1 3.927-1.047c2.589 0 4.566.797 5.93 2.39 1.367 1.593 2.05 3.727 2.05 6.4V352h-3.927v-12.203c0-3.87-1.72-5.804-5.163-5.804-1.62 0-2.942.648-3.967 1.944-1.024 1.293-1.536 2.793-1.536 4.5V352h-3.927z" fill="#fff"/>
  </g>
</svg>
