<svg xmlns="http://www.w3.org/2000/svg" width="192" height="192">
  <g fill="none">
    <path d="M0 0h192v192H0z"/>
    <path d="M44 152c-6.627 0-12-5.373-12-12s5.373-12 12-12h8c6.627 0 12-5.373 12-12s-5.373-12-12-12H36c-6.627 0-12-5.373-12-12s5.373-12 12-12h28a8 8 0 1 0 0-16c-6.627 0-12-5.373-12-12s5.373-12 12-12h119.76c5.016 0 8.816 4.704 7.952 9.848l-16 95.2A8.168 8.168 0 0 1 167.76 152zm34.76-16h82.296l13.408-80H92zm72.136-12H92.912l9.264-56h58.112zM12 152c-6.627 0-12-5.373-12-12s5.373-12 12-12 12 5.373 12 12-5.373 12-12 12z" fill-opacity=".54" fill="#000" fill-rule="evenodd"/>
  </g>
</svg>
