<svg xmlns="http://www.w3.org/2000/svg" width="192" height="192">
  <g fill="none">
    <path d="M0 0h192v192H0z"/>
    <path d="M36.227 122.934L53.655 11.388a4 4 0 0 1 7.477-1.275l18.74 34.96zm65.373 59.553a11.989 11.989 0 0 1-11.696-.02L32 150 136.636 45.175a3.994 3.994 0 0 1 6.771 2.164l8.292 51.302A46.308 46.308 0 0 0 144 98c-25.405 0-46 20.595-46 46 0 12.856 5.274 24.48 13.775 32.827zM33.584 139.92L92.461 34.888a3.999 3.999 0 0 1 7.081 0l13.406 25.525zM104 144c0-22.091 17.909-40 40-40s40 17.909 40 40-17.909 40-40 40-40-17.909-40-40zm57.94 14a2.042 2.042 0 0 0 1.988-1.738l4-23.8c.216-1.286-.734-2.462-1.988-2.462H136a3 3 0 0 0 0 6 2 2 0 1 1 0 4h-7a3 3 0 0 0 0 6h4a3 3 0 0 1 0 6h-2a3 3 0 0 0 0 6zM143 134h20.616l-3.352 20H139.69zm17.072 3h-14.528l-2.316 14h14.496zM126 155a3 3 0 1 0-6 0 3 3 0 0 0 6 0z" fill="#fff"/>
  </g>
</svg>
