<svg xmlns="http://www.w3.org/2000/svg" width="192" height="192">
  <g fill="none">
    <path d="M0 0h192v192H0z"/>
    <path d="M24 120h144v32.016A15.968 15.968 0 0 1 152.04 168H39.96c-8.817-.018-15.956-7.167-15.96-15.984zm0-80.064C24 31.136 31.144 24 39.96 24h112.08c8.816 0 15.96 7.2 15.96 15.936v56.128c0 8.8-7.144 15.936-15.96 15.936H39.96C31.144 112 24 104.8 24 96.064zM40 40h112v24H40zm0 44.04C40 81.8 41.712 80 44.04 80h7.92C54.2 80 56 81.712 56 84.04v7.92C56 94.2 54.288 96 51.96 96h-7.92A3.976 3.976 0 0 1 40 91.96zm0 56c0-2.24 1.712-4.04 4.04-4.04h7.92c2.24 0 4.04 1.712 4.04 4.04v7.92c0 2.24-1.712 4.04-4.04 4.04h-7.92a3.976 3.976 0 0 1-4.04-4.04z" fill-opacity=".54" fill="#000" fill-rule="evenodd"/>
  </g>
</svg>
