<svg xmlns="http://www.w3.org/2000/svg" width="695.68" height="464">
  <defs>
    <clipPath id="a">
      <path d="M395.25 143.34a4 4 0 0 0-6.77-2.16L367.72 162l-16.34-31.11a4 4 0 0 0-7.08 0l-8.93 17-22.4-41.77a4 4 0 0 0-7.48 1.28L283.84 246l57.9 32.46a12 12 0 0 0 11.7 0l58.4-32.46z" fill="none"/>
    </clipPath>
    <linearGradient x1="308.74" y1="198.54" x2="300.74" y2="194.36" gradientUnits="userSpaceOnUse" id="b">
      <stop offset="0" stop-color="#a52714"/>
      <stop offset=".4" stop-color="#a52714" stop-opacity=".5"/>
      <stop offset=".8" stop-color="#a52714" stop-opacity="0"/>
    </linearGradient>
    <linearGradient x1="342.73" y1="186.91" x2="339.15" y2="183.33" gradientUnits="userSpaceOnUse" id="c">
      <stop offset="0" stop-color="#a52714" stop-opacity=".8"/>
      <stop offset=".5" stop-color="#a52714" stop-opacity=".21"/>
      <stop offset="1" stop-color="#a52714" stop-opacity="0"/>
    </linearGradient>
    <linearGradient x1="279.028" y1="136.281" x2="412.715" y2="269.968" gradientUnits="userSpaceOnUse" id="d">
      <stop offset="0" stop-color="#fff" stop-opacity=".1"/>
      <stop offset="1" stop-color="#fff" stop-opacity="0"/>
    </linearGradient>
  </defs>
  <g fill="none">
    <path d="M0 0h695.68v464H0z"/>
    <g clip-path="url(#a)">
      <path d="M283.84 246l21.66-138.61a4 4 0 0 1 7.48-1.27l22.4 41.78 8.93-17a4 4 0 0 1 7.08 0L411.84 246z" fill="#ffa000"/>
      <path d="M357.84 105l-106-9v192l32-42z" fill="url(#b)" opacity=".12"/>
      <path d="M358.67 192.01l-23.3-44.12L283.84 246z" fill="#f57c00"/>
      <path d="M251.84 96h192v192h-192z" fill="url(#c)" opacity=".2"/>
      <path d="M411.84 246l-16.59-102.66a4 4 0 0 0-6.77-2.16L283.84 246l57.9 32.47a12 12 0 0 0 11.7 0z" fill="#ffca28"/>
      <path d="M395.25 143.34a4 4 0 0 0-6.77-2.16L367.72 162l-16.34-31.11a4 4 0 0 0-7.08 0l-8.93 17-22.4-41.77a4 4 0 0 0-7.48 1.28L283.84 246h-.08l.07.08.57.28L367.67 163l20.78-20.8a4 4 0 0 1 6.78 2.16l16.45 101.74.16-.1zM284.03 245.81l21.47-137.42a4 4 0 0 1 7.48-1.28l22.4 41.78 8.93-17a4 4 0 0 1 7.08 0l16 30.43z" fill-opacity=".2" fill="#fff"/>
      <path d="M353.44 277.49a12 12 0 0 1-11.7 0l-57.76-32.4-.14.91 57.9 32.46a12 12 0 0 0 11.7 0l58.4-32.46-.15-.92z" fill="#a52714" opacity=".2"/>
      <path d="M395.25 143.34a4 4 0 0 0-6.77-2.16L367.72 162l-16.34-31.11a4 4 0 0 0-7.08 0l-8.93 17-22.4-41.77a4 4 0 0 0-7.48 1.28L283.84 246l57.9 32.46a12 12 0 0 0 11.7 0l58.4-32.46z" fill="url(#d)"/>
    </g>
    <circle cx="395.84" cy="240" r="40" fill="#757575"/>
    <path d="M377.84 246h36v8.004a3.992 3.992 0 0 1-3.99 3.996h-28.02a3.998 3.998 0 0 1-3.99-3.996zm0-20.016c0-2.2 1.786-3.984 3.99-3.984h28.02c2.204 0 3.99 1.8 3.99 3.984v14.032c0 2.2-1.786 3.984-3.99 3.984h-28.02c-2.204 0-3.99-1.8-3.99-3.984zm4 .016h28v6h-28zm0 11.01c0-.56.428-1.01 1.01-1.01h1.98c.56 0 1.01.428 1.01 1.01v1.98a.994.994 0 0 1-1.01 1.01h-1.98a.994.994 0 0 1-1.01-1.01zm0 14c0-.56.428-1.01 1.01-1.01h1.98c.56 0 1.01.428 1.01 1.01v1.98a.994.994 0 0 1-1.01 1.01h-1.98a.994.994 0 0 1-1.01-1.01z" fill="#fff" fill-rule="evenodd"/>
    <path d="M99.923 338.9V352H96v-30.55h17.833v3.757h-13.91v10.026h12.544v3.667zm21.29-13.053a2.67 2.67 0 0 1-1.96.81c-.769 0-1.423-.27-1.963-.81a2.68 2.68 0 0 1-.81-1.964c0-.769.27-1.423.81-1.963s1.194-.81 1.963-.81c.767 0 1.42.27 1.96.81.543.54.814 1.194.814 1.963 0 .767-.271 1.421-.814 1.964zm0 5.246V352h-3.923v-20.907zm8.62 9.474V352h-3.926v-20.907h3.756v3.414h.17c.398-1.138 1.216-2.077 2.454-2.817 1.237-.74 2.44-1.11 3.606-1.11 1.165 0 2.146.171 2.944.513l-1.494 3.67c-.513-.2-1.21-.3-2.09-.3-1.422 0-2.68.563-3.776 1.687-1.096 1.122-1.644 2.594-1.644 4.417zm19.754 12.116c-3.156 0-5.723-1.052-7.7-3.156-1.978-2.107-2.967-4.767-2.967-7.98 0-3.045.96-5.661 2.88-7.85 1.92-2.191 4.373-3.287 7.36-3.287 3.102 0 5.584 1.01 7.447 3.03 1.862 2.02 2.793 4.722 2.793 8.107l-.04.726h-16.513c.113 2.105.817 3.768 2.113 4.99 1.293 1.225 2.808 1.837 4.543 1.837 2.816 0 4.721-1.196 5.717-3.587l3.5 1.454c-.684 1.62-1.809 2.977-3.373 4.073-1.565 1.096-3.485 1.643-5.76 1.643zm-6.484-13.653h12.117c-.084-1.196-.632-2.333-1.643-3.413-1.01-1.083-2.51-1.624-4.5-1.624-1.451 0-2.71.456-3.777 1.367-1.067.911-1.799 2.134-2.197 3.67zm30.507 13.653c-1.593 0-3.023-.34-4.29-1.023-1.264-.684-2.21-1.538-2.837-2.56h-.17v2.9h-3.753v-30.55h3.923v9.643l-.17 2.9h.17c.627-1.022 1.573-1.875 2.837-2.56 1.267-.682 2.697-1.023 4.29-1.023 2.702 0 5.034 1.067 6.997 3.2 1.962 2.133 2.943 4.779 2.943 7.937 0 3.157-.981 5.803-2.943 7.936-1.963 2.134-4.295 3.2-6.997 3.2zm-.64-3.583c1.82 0 3.384-.69 4.693-2.07 1.31-1.38 1.964-3.208 1.964-5.483 0-2.276-.655-4.104-1.964-5.484s-2.873-2.07-4.693-2.07c-1.849 0-3.421.684-4.717 2.05-1.293 1.365-1.94 3.2-1.94 5.504 0 2.304.647 4.139 1.94 5.503 1.296 1.367 2.868 2.05 4.717 2.05zm20.563 3.583c-2.217 0-4.073-.64-5.566-1.92-1.494-1.28-2.24-2.972-2.24-5.076 0-2.276.882-4.061 2.646-5.357 1.763-1.293 3.938-1.94 6.527-1.94 2.304 0 4.196.427 5.673 1.28v-.597c0-1.537-.525-2.769-1.576-3.693-1.054-.924-2.348-1.387-3.884-1.387-1.137 0-2.169.271-3.093.814-.924.54-1.558 1.279-1.9 2.216l-3.583-1.536c.484-1.251 1.437-2.41 2.86-3.477 1.422-1.067 3.299-1.6 5.63-1.6 2.675 0 4.894.782 6.656 2.347 1.765 1.564 2.647 3.769 2.647 6.613V352h-3.757v-2.9h-.17c-1.564 2.389-3.854 3.583-6.87 3.583zm.64-3.583c1.623 0 3.095-.604 4.417-1.813 1.322-1.21 1.983-2.64 1.983-4.29-1.109-.91-2.772-1.364-4.99-1.364-1.906 0-3.343.413-4.31 1.237-.966.824-1.45 1.791-1.45 2.9 0 1.024.441 1.836 1.324 2.433.88.598 1.889.897 3.026.897zm21.72 3.583c-2.333 0-4.26-.569-5.783-1.706-1.522-1.138-2.639-2.56-3.35-4.267l3.5-1.45c1.109 2.616 3 3.923 5.673 3.923 1.225 0 2.228-.27 3.01-.81.783-.54 1.174-1.25 1.174-2.133 0-1.364-.954-2.289-2.86-2.773l-4.224-1.024c-1.337-.342-2.603-.99-3.796-1.943-1.196-.951-1.794-2.238-1.794-3.86 0-1.849.818-3.349 2.454-4.5 1.635-1.153 3.576-1.73 5.823-1.73 1.849 0 3.499.42 4.95 1.26 1.451.838 2.49 2.039 3.117 3.603l-3.414 1.41c-.769-1.849-2.362-2.773-4.78-2.773-1.166 0-2.147.241-2.943.723-.798.485-1.197 1.14-1.197 1.964 0 1.195.925 2.006 2.774 2.433l4.14.98c1.962.456 3.413 1.238 4.353 2.347.938 1.109 1.407 2.36 1.407 3.756 0 1.876-.768 3.44-2.304 4.694-1.535 1.25-3.512 1.876-5.93 1.876zm21.334 0c-3.158 0-5.726-1.052-7.704-3.156-1.975-2.107-2.963-4.767-2.963-7.98 0-3.045.96-5.661 2.88-7.85 1.92-2.191 4.373-3.287 7.36-3.287 3.1 0 5.581 1.01 7.443 3.03 1.865 2.02 2.797 4.722 2.797 8.107l-.043.726h-16.514c.114 2.105.818 3.768 2.114 4.99 1.293 1.225 2.807 1.837 4.543 1.837 2.816 0 4.721-1.196 5.717-3.587l3.5 1.454c-.683 1.62-1.806 2.977-3.37 4.073-1.565 1.096-3.485 1.643-5.76 1.643zm-6.487-13.653h12.117c-.085-1.196-.633-2.333-1.644-3.413-1.009-1.083-2.509-1.624-4.5-1.624-1.45 0-2.71.456-3.776 1.367-1.067.911-1.8 2.134-2.197 3.67zM264.617 352h-3.924v-30.55h10.41c2.59 0 4.83.861 6.72 2.583 1.891 1.72 2.837 3.89 2.837 6.507 0 2.133-.697 4.018-2.09 5.653-1.393 1.636-3.129 2.667-5.207 3.094l-.083.126 8.573 12.417v.17h-4.65l-8.233-12.373h-4.353zm0-26.793v10.75h6.316c1.565 0 2.908-.513 4.03-1.537 1.125-1.022 1.687-2.316 1.687-3.88 0-1.338-.498-2.561-1.493-3.67-.996-1.109-2.32-1.663-3.97-1.663zm28.886 27.476c-3.157 0-5.725-1.052-7.703-3.156-1.976-2.107-2.963-4.767-2.963-7.98 0-3.045.96-5.661 2.88-7.85 1.92-2.191 4.373-3.287 7.36-3.287 3.1 0 5.58 1.01 7.443 3.03 1.864 2.02 2.797 4.722 2.797 8.107l-.044.726H286.76c.116 2.105.82 3.768 2.113 4.99 1.294 1.225 2.808 1.837 4.544 1.837 2.815 0 4.72-1.196 5.716-3.587l3.5 1.454c-.682 1.62-1.805 2.977-3.37 4.073-1.564 1.096-3.484 1.643-5.76 1.643zm-6.486-13.653h12.116c-.084-1.196-.63-2.333-1.64-3.413-1.01-1.083-2.512-1.624-4.503-1.624-1.451 0-2.71.456-3.777 1.367-1.066.911-1.799 2.134-2.196 3.67zm26.07 13.653c-2.218 0-4.074-.64-5.567-1.92-1.493-1.28-2.24-2.972-2.24-5.076 0-2.276.881-4.061 2.643-5.357 1.765-1.293 3.941-1.94 6.53-1.94 2.303 0 4.194.427 5.674 1.28v-.597c0-1.537-.527-2.769-1.58-3.693-1.051-.924-2.345-1.387-3.88-1.387-1.138 0-2.17.271-3.094.814-.924.54-1.557 1.279-1.9 2.216l-3.583-1.536c.482-1.251 1.434-2.41 2.857-3.477 1.422-1.067 3.3-1.6 5.633-1.6 2.673 0 4.892.782 6.657 2.347 1.762 1.564 2.643 3.769 2.643 6.613V352h-3.753v-2.9h-.17c-1.565 2.389-3.855 3.583-6.87 3.583zm.64-3.583c1.622 0 3.094-.604 4.416-1.813 1.323-1.21 1.984-2.64 1.984-4.29-1.11-.91-2.774-1.364-4.994-1.364-1.904 0-3.34.413-4.306 1.237-.97.824-1.454 1.791-1.454 2.9 0 1.024.441 1.836 1.324 2.433.882.598 1.892.897 3.03.897zm18.303-27.65V352h-3.923v-30.55zm14.037 30.89c-2.19 0-3.86-.582-5.014-1.747-1.15-1.166-1.726-2.816-1.726-4.95v-10.966h-3.67v-3.584h3.67v-6.4h3.926v6.4h5.12v3.584h-5.12v10.666c0 2.276.938 3.414 2.814 3.414.71 0 1.309-.114 1.793-.34l1.367 3.37c-.854.369-1.907.553-3.16.553zm9.9-26.493c-.54.54-1.195.81-1.964.81a2.68 2.68 0 0 1-1.963-.81 2.68 2.68 0 0 1-.81-1.964c0-.769.27-1.423.81-1.963a2.68 2.68 0 0 1 1.963-.81c.77 0 1.424.27 1.964.81s.81 1.194.81 1.963a2.68 2.68 0 0 1-.81 1.964zm0 5.246V352h-3.927v-20.907zm8.62 20.907h-3.927v-20.907h3.753v2.9h.174c.595-.995 1.512-1.84 2.75-2.536 1.237-.698 2.467-1.047 3.69-1.047 3.244 0 5.449 1.337 6.613 4.01 1.707-2.673 4.139-4.01 7.297-4.01 2.475 0 4.339.79 5.59 2.37 1.25 1.578 1.876 3.718 1.876 6.42V352h-3.923v-12.203c0-2.105-.384-3.598-1.153-4.48-.77-.883-1.936-1.324-3.5-1.324-1.536 0-2.808.655-3.817 1.964-1.011 1.309-1.517 2.802-1.517 4.48V352h-3.923v-12.203c0-2.105-.384-3.598-1.153-4.48-.767-.883-1.933-1.324-3.497-1.324-1.538 0-2.811.655-3.82 1.964s-1.513 2.802-1.513 4.48zm41.47.683c-3.158 0-5.725-1.052-7.7-3.156-1.978-2.107-2.967-4.767-2.967-7.98 0-3.045.96-5.661 2.88-7.85 1.92-2.191 4.373-3.287 7.36-3.287 3.1 0 5.582 1.01 7.447 3.03 1.862 2.02 2.793 4.722 2.793 8.107l-.043.726h-16.51c.113 2.105.816 3.768 2.11 4.99 1.295 1.225 2.81 1.837 4.546 1.837 2.816 0 4.721-1.196 5.717-3.587l3.497 1.454c-.683 1.62-1.806 2.977-3.37 4.073-1.565 1.096-3.485 1.643-5.76 1.643zm-6.484-13.653h12.117c-.087-1.196-.634-2.333-1.643-3.413-1.01-1.083-2.51-1.624-4.5-1.624-1.451 0-2.71.456-3.777 1.367-1.067.911-1.799 2.134-2.197 3.67zM438.867 352h-9.344v-30.55h9.344c4.693 0 8.449 1.416 11.266 4.247 2.816 2.829 4.224 6.505 4.224 11.03 0 4.522-1.408 8.197-4.224 11.026-2.817 2.831-6.573 4.247-11.266 4.247zm-5.417-26.793v23.04h5.417c3.529 0 6.324-1.01 8.386-3.03 2.063-2.02 3.094-4.85 3.094-8.49 0-3.614-1.031-6.437-3.094-8.47-2.062-2.034-4.857-3.05-8.386-3.05zm31.487 27.476c-2.218 0-4.074-.64-5.567-1.92-1.493-1.28-2.24-2.972-2.24-5.076 0-2.276.881-4.061 2.643-5.357 1.765-1.293 3.941-1.94 6.53-1.94 2.305 0 4.196.427 5.674 1.28v-.597c0-1.537-.526-2.769-1.577-3.693-1.053-.924-2.348-1.387-3.883-1.387-1.138 0-2.17.271-3.094.814-.924.54-1.557 1.279-1.9 2.216l-3.583-1.536c.484-1.251 1.438-2.41 2.86-3.477 1.422-1.067 3.299-1.6 5.63-1.6 2.673 0 4.892.782 6.657 2.347 1.764 1.564 2.646 3.769 2.646 6.613V352h-3.756v-2.9h-.17c-1.565 2.389-3.855 3.583-6.87 3.583zm.64-3.583c1.622 0 3.094-.604 4.416-1.813 1.323-1.21 1.984-2.64 1.984-4.29-1.11-.91-2.773-1.364-4.99-1.364-1.907 0-3.344.413-4.31 1.237-.967.824-1.45 1.791-1.45 2.9 0 1.024.44 1.836 1.32 2.433.882.598 1.892.897 3.03.897zm22.57 3.24c-2.19 0-3.86-.582-5.014-1.747-1.15-1.166-1.726-2.816-1.726-4.95v-10.966h-3.67v-3.584h3.67v-6.4h3.926v6.4h5.12v3.584h-5.12v10.666c0 2.276.938 3.414 2.814 3.414.71 0 1.309-.114 1.793-.34l1.367 3.37c-.854.369-1.907.553-3.16.553zm12.246.343c-2.217 0-4.073-.64-5.566-1.92-1.494-1.28-2.24-2.972-2.24-5.076 0-2.276.88-4.061 2.643-5.357 1.764-1.293 3.941-1.94 6.53-1.94 2.302 0 4.193.427 5.673 1.28v-.597c0-1.537-.526-2.769-1.58-3.693-1.05-.924-2.344-1.387-3.88-1.387-1.137 0-2.169.271-3.093.814-.924.54-1.558 1.279-1.9 2.216l-3.583-1.536c.482-1.251 1.434-2.41 2.856-3.477 1.423-1.067 3.3-1.6 5.634-1.6 2.673 0 4.892.782 6.656 2.347 1.763 1.564 2.644 3.769 2.644 6.613V352h-3.754v-2.9h-.17c-1.564 2.389-3.854 3.583-6.87 3.583zm.64-3.583c1.623 0 3.095-.604 4.417-1.813 1.322-1.21 1.983-2.64 1.983-4.29-1.109-.91-2.773-1.364-4.993-1.364-1.904 0-3.34.413-4.307 1.237-.969.824-1.453 1.791-1.453 2.9 0 1.024.441 1.836 1.323 2.433.883.598 1.893.897 3.03.897zm25.217 3.583c-1.593 0-3.023-.34-4.29-1.023-1.264-.684-2.21-1.538-2.837-2.56h-.17v2.9H515.2v-30.55h3.923v9.643l-.17 2.9h.17c.627-1.022 1.573-1.875 2.837-2.56 1.267-.682 2.697-1.023 4.29-1.023 2.702 0 5.034 1.067 6.997 3.2 1.962 2.133 2.943 4.779 2.943 7.937 0 3.157-.981 5.803-2.943 7.936-1.963 2.134-4.295 3.2-6.997 3.2zm-.64-3.583c1.82 0 3.384-.69 4.693-2.07 1.31-1.38 1.964-3.208 1.964-5.483 0-2.276-.655-4.104-1.964-5.484s-2.873-2.07-4.693-2.07c-1.849 0-3.421.684-4.717 2.05-1.293 1.365-1.94 3.2-1.94 5.504 0 2.304.647 4.139 1.94 5.503 1.296 1.367 2.868 2.05 4.717 2.05zm20.563 3.583c-2.217 0-4.073-.64-5.566-1.92-1.494-1.28-2.24-2.972-2.24-5.076 0-2.276.882-4.061 2.646-5.357 1.763-1.293 3.938-1.94 6.527-1.94 2.304 0 4.196.427 5.673 1.28v-.597c0-1.537-.525-2.769-1.576-3.693-1.054-.924-2.348-1.387-3.884-1.387-1.137 0-2.169.271-3.093.814-.924.54-1.558 1.279-1.9 2.216l-3.583-1.536c.484-1.251 1.437-2.41 2.86-3.477 1.422-1.067 3.299-1.6 5.63-1.6 2.675 0 4.894.782 6.656 2.347 1.765 1.564 2.647 3.769 2.647 6.613V352h-3.757v-2.9h-.17c-1.564 2.389-3.854 3.583-6.87 3.583zm.64-3.583c1.623 0 3.095-.604 4.417-1.813 1.322-1.21 1.983-2.64 1.983-4.29-1.109-.91-2.772-1.364-4.99-1.364-1.906 0-3.343.413-4.31 1.237-.966.824-1.45 1.791-1.45 2.9 0 1.024.441 1.836 1.324 2.433.88.598 1.889.897 3.026.897zm21.72 3.583c-2.333 0-4.26-.569-5.783-1.706-1.522-1.138-2.639-2.56-3.35-4.267l3.5-1.45c1.109 2.616 3 3.923 5.673 3.923 1.225 0 2.228-.27 3.01-.81.783-.54 1.174-1.25 1.174-2.133 0-1.364-.954-2.289-2.86-2.773l-4.224-1.024c-1.337-.342-2.603-.99-3.796-1.943-1.196-.951-1.794-2.238-1.794-3.86 0-1.849.818-3.349 2.454-4.5 1.635-1.153 3.576-1.73 5.823-1.73 1.849 0 3.499.42 4.95 1.26 1.451.838 2.49 2.039 3.117 3.603l-3.414 1.41c-.769-1.849-2.362-2.773-4.78-2.773-1.166 0-2.147.241-2.943.723-.798.485-1.197 1.14-1.197 1.964 0 1.195.925 2.006 2.774 2.433l4.14.98c1.962.456 3.413 1.238 4.353 2.347.938 1.109 1.407 2.36 1.407 3.756 0 1.876-.768 3.44-2.304 4.694-1.535 1.25-3.512 1.876-5.93 1.876zm21.334 0c-3.158 0-5.726-1.052-7.704-3.156-1.975-2.107-2.963-4.767-2.963-7.98 0-3.045.96-5.661 2.88-7.85 1.92-2.191 4.373-3.287 7.36-3.287 3.1 0 5.581 1.01 7.443 3.03 1.865 2.02 2.797 4.722 2.797 8.107l-.043.726h-16.514c.114 2.105.818 3.768 2.114 4.99 1.293 1.225 2.807 1.837 4.543 1.837 2.816 0 4.721-1.196 5.717-3.587l3.5 1.454c-.683 1.62-1.806 2.977-3.37 4.073-1.565 1.096-3.485 1.643-5.76 1.643zm-6.487-13.653h12.117c-.085-1.196-.633-2.333-1.644-3.413-1.009-1.083-2.509-1.624-4.5-1.624-1.45 0-2.71.456-3.776 1.367-1.067.911-1.8 2.134-2.197 3.67z" fill-opacity=".54" fill="#000"/>
  </g>
</svg>
