<svg xmlns="http://www.w3.org/2000/svg" width="530.987" height="464">
  <g fill="none">
    <path d="M0 0h530.987v464H0z"/>
    <path d="M169.493 192c0-53.02 42.981-96 96-96 53.02 0 96 42.98 96 96s-42.98 96-96 96c-53.019 0-96-42.98-96-96zm54 32.676a9.329 9.329 0 0 0 9.31 9.324h65.38a9.315 9.315 0 0 0 9.31-9.324V206h-84zm0-32.639c0 5.096 4.168 9.296 9.31 9.296h65.38c5.143 0 9.31-4.162 9.31-9.296v-32.741c0-5.096-4.167-9.296-9.31-9.296h-65.38c-5.142 0-9.31 4.163-9.31 9.296zm9.334-32.704h65.333v14h-65.333zm0 25.69c0-1.306.998-2.356 2.356-2.356h4.62c1.307 0 2.357.998 2.357 2.356v4.62c0 1.307-.999 2.357-2.357 2.357h-4.62a2.32 2.32 0 0 1-2.356-2.357zm0 32.667c0-1.307.998-2.357 2.356-2.357h4.62c1.307 0 2.357.999 2.357 2.357v4.62c0 1.307-.999 2.357-2.357 2.357h-4.62a2.32 2.32 0 0 1-2.356-2.357zM99.923 352H96v-30.55h10.41c2.589 0 4.829.861 6.72 2.583 1.891 1.72 2.837 3.89 2.837 6.507 0 2.133-.697 4.018-2.09 5.653-1.394 1.636-3.13 2.667-5.207 3.094l-.083.126 8.573 12.417v.17h-4.65l-8.233-12.373h-4.354zm0-26.793v10.75h6.317c1.564 0 2.908-.513 4.03-1.537 1.124-1.022 1.687-2.316 1.687-3.88 0-1.338-.498-2.561-1.494-3.67-.995-1.109-2.319-1.663-3.97-1.663zm28.887 27.476c-3.158 0-5.726-1.052-7.703-3.156-1.976-2.107-2.964-4.767-2.964-7.98 0-3.045.96-5.661 2.88-7.85 1.92-2.191 4.374-3.287 7.36-3.287 3.1 0 5.581 1.01 7.444 3.03 1.864 2.02 2.796 4.722 2.796 8.107l-.043.726h-16.513c.115 2.105.82 3.768 2.113 4.99 1.293 1.225 2.808 1.837 4.543 1.837 2.816 0 4.721-1.196 5.717-3.587l3.5 1.454c-.682 1.62-1.806 2.977-3.37 4.073-1.564 1.096-3.484 1.643-5.76 1.643zm-6.487-13.653h12.117c-.084-1.196-.631-2.333-1.64-3.413-1.011-1.083-2.512-1.624-4.503-1.624-1.451 0-2.71.456-3.777 1.367-1.067.911-1.799 2.134-2.197 3.67zm26.07 13.653c-2.217 0-4.073-.64-5.566-1.92-1.494-1.28-2.24-2.972-2.24-5.076 0-2.276.88-4.061 2.643-5.357 1.764-1.293 3.941-1.94 6.53-1.94 2.302 0 4.193.427 5.673 1.28v-.597c0-1.537-.526-2.769-1.58-3.693-1.05-.924-2.344-1.387-3.88-1.387-1.137 0-2.169.271-3.093.814-.924.54-1.558 1.279-1.9 2.216l-3.583-1.536c.482-1.251 1.434-2.41 2.856-3.477 1.423-1.067 3.3-1.6 5.634-1.6 2.673 0 4.892.782 6.656 2.347 1.763 1.564 2.644 3.769 2.644 6.613V352h-3.754v-2.9h-.17c-1.564 2.389-3.854 3.583-6.87 3.583zm.64-3.583c1.623 0 3.095-.604 4.417-1.813 1.322-1.21 1.983-2.64 1.983-4.29-1.109-.91-2.773-1.364-4.993-1.364-1.904 0-3.34.413-4.307 1.237-.969.824-1.453 1.791-1.453 2.9 0 1.024.441 1.836 1.323 2.433.883.598 1.893.897 3.03.897zm18.304-27.65V352h-3.924v-30.55zm14.036 30.89c-2.189 0-3.86-.582-5.013-1.747-1.151-1.166-1.727-2.816-1.727-4.95v-10.966h-3.67v-3.584h3.67v-6.4h3.927v6.4h5.12v3.584h-5.12v10.666c0 2.276.938 3.414 2.813 3.414.711 0 1.31-.114 1.794-.34l1.366 3.37c-.853.369-1.906.553-3.16.553zm9.9-26.493c-.54.54-1.194.81-1.963.81a2.68 2.68 0 0 1-1.963-.81 2.68 2.68 0 0 1-.81-1.964c0-.769.27-1.423.81-1.963a2.68 2.68 0 0 1 1.963-.81c.769 0 1.423.27 1.963.81s.81 1.194.81 1.963a2.68 2.68 0 0 1-.81 1.964zm0 5.246V352h-3.926v-20.907zm8.62 20.907h-3.926v-20.907h3.753v2.9h.173c.596-.995 1.513-1.84 2.75-2.536 1.238-.698 2.468-1.047 3.69-1.047 3.245 0 5.45 1.337 6.614 4.01 1.706-2.673 4.139-4.01 7.296-4.01 2.476 0 4.34.79 5.59 2.37 1.251 1.578 1.877 3.718 1.877 6.42V352h-3.923v-12.203c0-2.105-.385-3.598-1.154-4.48-.769-.883-1.935-1.324-3.5-1.324-1.535 0-2.807.655-3.816 1.964-1.011 1.309-1.517 2.802-1.517 4.48V352h-3.923v-12.203c0-2.105-.385-3.598-1.154-4.48-.766-.883-1.932-1.324-3.496-1.324-1.538 0-2.811.655-3.82 1.964-1.01 1.309-1.514 2.802-1.514 4.48zm41.47.683c-3.157 0-5.724-1.052-7.7-3.156-1.977-2.107-2.966-4.767-2.966-7.98 0-3.045.96-5.661 2.88-7.85 1.92-2.191 4.373-3.287 7.36-3.287 3.1 0 5.582 1.01 7.446 3.03 1.863 2.02 2.794 4.722 2.794 8.107l-.044.726h-16.51c.114 2.105.817 3.768 2.11 4.99 1.296 1.225 2.811 1.837 4.547 1.837 2.816 0 4.721-1.196 5.717-3.587l3.496 1.454c-.682 1.62-1.805 2.977-3.37 4.073-1.564 1.096-3.484 1.643-5.76 1.643zm-6.483-13.653h12.117c-.087-1.196-.635-2.333-1.644-3.413-1.009-1.083-2.509-1.624-4.5-1.624-1.45 0-2.71.456-3.776 1.367-1.067.911-1.8 2.134-2.197 3.67zM274.173 352h-9.343v-30.55h9.343c4.694 0 8.45 1.416 11.267 4.247 2.816 2.829 4.223 6.505 4.223 11.03 0 4.522-1.407 8.197-4.223 11.026-2.818 2.831-6.573 4.247-11.267 4.247zm-5.416-26.793v23.04h5.416c3.53 0 6.325-1.01 8.387-3.03 2.062-2.02 3.093-4.85 3.093-8.49 0-3.614-1.03-6.437-3.093-8.47-2.062-2.034-4.858-3.05-8.387-3.05zm31.486 27.476c-2.217 0-4.073-.64-5.566-1.92-1.494-1.28-2.24-2.972-2.24-5.076 0-2.276.88-4.061 2.643-5.357 1.764-1.293 3.941-1.94 6.53-1.94 2.304 0 4.196.427 5.673 1.28v-.597c0-1.537-.525-2.769-1.576-3.693-1.054-.924-2.348-1.387-3.884-1.387-1.137 0-2.169.271-3.093.814-.924.54-1.558 1.279-1.9 2.216l-3.583-1.536c.484-1.251 1.437-2.41 2.86-3.477 1.422-1.067 3.299-1.6 5.63-1.6 2.673 0 4.892.782 6.656 2.347 1.765 1.564 2.647 3.769 2.647 6.613V352h-3.757v-2.9h-.17c-1.564 2.389-3.854 3.583-6.87 3.583zm.64-3.583c1.623 0 3.095-.604 4.417-1.813 1.322-1.21 1.983-2.64 1.983-4.29-1.109-.91-2.772-1.364-4.99-1.364-1.906 0-3.343.413-4.31 1.237-.966.824-1.45 1.791-1.45 2.9 0 1.024.44 1.836 1.32 2.433.883.598 1.893.897 3.03.897zm22.57 3.24c-2.189 0-3.86-.582-5.013-1.747-1.151-1.166-1.727-2.816-1.727-4.95v-10.966h-3.67v-3.584h3.67v-6.4h3.927v6.4h5.12v3.584h-5.12v10.666c0 2.276.938 3.414 2.813 3.414.711 0 1.31-.114 1.794-.34l1.366 3.37c-.853.369-1.906.553-3.16.553zm12.247.343c-2.218 0-4.073-.64-5.567-1.92-1.493-1.28-2.24-2.972-2.24-5.076 0-2.276.881-4.061 2.644-5.357 1.764-1.293 3.94-1.94 6.53-1.94 2.302 0 4.193.427 5.673 1.28v-.597c0-1.537-.527-2.769-1.58-3.693-1.051-.924-2.344-1.387-3.88-1.387-1.138 0-2.169.271-3.093.814-.925.54-1.558 1.279-1.9 2.216l-3.584-1.536c.483-1.251 1.435-2.41 2.857-3.477 1.422-1.067 3.3-1.6 5.633-1.6 2.674 0 4.893.782 6.657 2.347 1.762 1.564 2.643 3.769 2.643 6.613V352h-3.753v-2.9h-.17c-1.564 2.389-3.854 3.583-6.87 3.583zm.64-3.583c1.622 0 3.094-.604 4.417-1.813 1.322-1.21 1.983-2.64 1.983-4.29-1.109-.91-2.773-1.364-4.993-1.364-1.905 0-3.34.413-4.307 1.237-.969.824-1.453 1.791-1.453 2.9 0 1.024.44 1.836 1.323 2.433.882.598 1.892.897 3.03.897zm25.217 3.583c-1.594 0-3.024-.34-4.29-1.023-1.265-.684-2.21-1.538-2.837-2.56h-.17v2.9h-3.753v-30.55h3.923v9.643l-.17 2.9h.17c.627-1.022 1.572-1.875 2.837-2.56 1.266-.682 2.696-1.023 4.29-1.023 2.702 0 5.034 1.067 6.996 3.2 1.963 2.133 2.944 4.779 2.944 7.937 0 3.157-.981 5.803-2.944 7.936-1.962 2.134-4.294 3.2-6.996 3.2zm-.64-3.583c1.82 0 3.384-.69 4.693-2.07 1.309-1.38 1.963-3.208 1.963-5.483 0-2.276-.654-4.104-1.963-5.484-1.309-1.38-2.873-2.07-4.693-2.07-1.85 0-3.421.684-4.717 2.05-1.293 1.365-1.94 3.2-1.94 5.504 0 2.304.647 4.139 1.94 5.503 1.296 1.367 2.868 2.05 4.717 2.05zm20.563 3.583c-2.218 0-4.073-.64-5.567-1.92-1.493-1.28-2.24-2.972-2.24-5.076 0-2.276.883-4.061 2.647-5.357 1.762-1.293 3.938-1.94 6.527-1.94 2.304 0 4.195.427 5.673 1.28v-.597c0-1.537-.526-2.769-1.577-3.693-1.053-.924-2.347-1.387-3.883-1.387-1.138 0-2.169.271-3.093.814-.925.54-1.558 1.279-1.9 2.216l-3.584-1.536c.485-1.251 1.438-2.41 2.86-3.477 1.423-1.067 3.3-1.6 5.63-1.6 2.676 0 4.895.782 6.657 2.347 1.764 1.564 2.647 3.769 2.647 6.613V352h-3.757v-2.9h-.17c-1.564 2.389-3.854 3.583-6.87 3.583zm.64-3.583c1.622 0 3.094-.604 4.417-1.813 1.322-1.21 1.983-2.64 1.983-4.29-1.109-.91-2.772-1.364-4.99-1.364-1.907 0-3.343.413-4.31 1.237-.967.824-1.45 1.791-1.45 2.9 0 1.024.441 1.836 1.323 2.433.88.598 1.89.897 3.027.897zm21.72 3.583c-2.333 0-4.261-.569-5.783-1.706-1.523-1.138-2.64-2.56-3.35-4.267l3.5-1.45c1.109 2.616 3 3.923 5.673 3.923 1.224 0 2.228-.27 3.01-.81.782-.54 1.173-1.25 1.173-2.133 0-1.364-.953-2.289-2.86-2.773l-4.223-1.024c-1.338-.342-2.603-.99-3.797-1.943-1.195-.951-1.793-2.238-1.793-3.86 0-1.849.818-3.349 2.453-4.5 1.636-1.153 3.577-1.73 5.824-1.73 1.849 0 3.499.42 4.95 1.26 1.45.838 2.49 2.039 3.116 3.603l-3.413 1.41c-.769-1.849-2.362-2.773-4.78-2.773-1.167 0-2.148.241-2.943.723-.798.485-1.197 1.14-1.197 1.964 0 1.195.924 2.006 2.773 2.433l4.14.98c1.963.456 3.414 1.238 4.354 2.347.937 1.109 1.406 2.36 1.406 3.756 0 1.876-.767 3.44-2.303 4.694-1.536 1.25-3.512 1.876-5.93 1.876zm21.333 0c-3.157 0-5.725-1.052-7.703-3.156-1.976-2.107-2.963-4.767-2.963-7.98 0-3.045.96-5.661 2.88-7.85 1.92-2.191 4.373-3.287 7.36-3.287 3.1 0 5.58 1.01 7.443 3.03 1.864 2.02 2.797 4.722 2.797 8.107l-.044.726H418.43c.113 2.105.818 3.768 2.113 4.99 1.294 1.225 2.808 1.837 4.544 1.837 2.815 0 4.72-1.196 5.716-3.587l3.5 1.454c-.682 1.62-1.805 2.977-3.37 4.073-1.564 1.096-3.484 1.643-5.76 1.643zm-6.486-13.653h12.116c-.084-1.196-.632-2.333-1.643-3.413-1.009-1.083-2.509-1.624-4.5-1.624-1.451 0-2.71.456-3.777 1.367-1.066.911-1.799 2.134-2.196 3.67z" fill="#fff"/>
  </g>
</svg>
